<?xml version="1.0" encoding="utf-8"?>
<!-- Generator: Adobe Illustrator 18.0.0, SVG Export Plug-In . SVG Version: 6.00 Build 0)  -->
<!DOCTYPE svg PUBLIC "-//W3C//DTD SVG 1.1//EN" "http://www.w3.org/Graphics/SVG/1.1/DTD/svg11.dtd">
<svg version="1.1" id="Layer_1" xmlns="http://www.w3.org/2000/svg" xmlns:xlink="http://www.w3.org/1999/xlink" x="0px" y="0px"
	 viewBox="0 0 500 500" enable-background="new 0 0 500 500" xml:space="preserve">
<g>
	<path fill="#010101" d="M223.4,42.6c97.4,0,176.7,79.3,176.7,176.7S320.9,396,223.4,396c-30.9,0-58.4-1-81.6-13.1
		c-7.2-3.7-16.1-1-19.9,6.3c-3.8,7.2-1,16.1,6.3,19.9c20.6,10.8,42.4,14.4,65.7,15.7v30.1h-44.2c-8.1,0-14.7,6.6-14.7,14.7
		c0,8.1,6.6,14.7,14.7,14.7h117.8c8.1,0,14.7-6.6,14.7-14.7c0-8.1-6.6-14.7-14.7-14.7h-44.2v-29.5c113.7,0,206.2-92.5,206.2-206.2
		S337.1,13.1,223.4,13.1c-8.1,0-14.7,6.6-14.7,14.7S215.3,42.6,223.4,42.6z"/>
	<path fill="#010101" d="M223.4,373.9c85.3,0,154.6-69.4,154.6-154.6S308.7,64.7,223.4,64.7S68.8,134,68.8,219.3
		S138.2,373.9,223.4,373.9z M223.4,94.1c69,0,125.2,56.1,125.2,125.2s-56.1,125.2-125.2,125.2S98.3,288.3,98.3,219.3
		S154.4,94.1,223.4,94.1z"/>
</g>
</svg>
