<?xml version="1.0" encoding="utf-8"?>
<!-- Generator: Adobe Illustrator 18.0.0, SVG Export Plug-In . SVG Version: 6.00 Build 0)  -->
<!DOCTYPE svg PUBLIC "-//W3C//DTD SVG 1.1//EN" "http://www.w3.org/Graphics/SVG/1.1/DTD/svg11.dtd">
<svg version="1.1" id="Layer_1" xmlns="http://www.w3.org/2000/svg" xmlns:xlink="http://www.w3.org/1999/xlink" x="0px" y="0px"
	 viewBox="0 0 500 500" enable-background="new 0 0 500 500" xml:space="preserve">
<path fill="#010101" d="M485.3,210L355.5,80.2c-7.4-7.5-20.5-7.5-27.9,0l-59.5,59.5c-7.6,7.7-7.6,20.2,0,27.9l16.1,15.9
	c-10.4-0.8-25.1,4.6-26.5,4.5l-37-11.5l8.9-8.9c3.7-3.7,5.8-8.7,5.8-14c0-5.3-2.1-10.3-5.8-14l-59.5-59.5c-7.5-7.4-20.4-7.4-27.9,0
	L12.6,210c-3.7,3.7-5.8,8.7-5.8,14c0,5.3,2.1,10.2,5.8,14L72,297.4c3.7,3.7,8.7,5.8,14,5.8c5.3,0,10.2-2.1,14-5.8l4.1-4.1
	c10.5,22.1,45.9,66.9,70.6,91.6l32.4,32.4c9.9,9.9,19.4,12,25.5,12c7.9,0,15.2-3.2,21.3-9.3c6-6,7.7-11.8,8-16
	c7.2,1.7,17.9,0.9,24.4-5.6c6-6,7.7-11.8,8-16c7.2,1.7,17.9,0.9,24.4-5.6c6-6,7.7-11.8,8-16c7.2,1.6,17.9,0.9,24.4-5.6
	c5.5-5.5,11.5-15.4,7.2-29.2c9.3-8.7,24.9-18.8,40.4-28c3.6,3.2,8.1,5.1,13,5.1c5.3,0,10.3-2.1,14-5.8l59.5-59.5
	C493,230.2,493,217.7,485.3,210z M86,277.1L32.8,224l123.5-123.5l53.2,53.2L86,277.1z M335.1,337.7c-0.9,0-2.5-0.4-4-0.8
	c-2.5-0.6-5.3-1.3-8.4-1.3c-6.3,0-10.4,2.8-12.8,5.1c-5.5,5.5-6.1,11.4-6.4,14.9c-0.2,2.5-0.3,2.6-0.8,3.6c-0.9,0-2.5-0.4-4-0.8
	c-2.5-0.6-5.3-1.3-8.4-1.3c-6.3,0-10.5,2.8-12.8,5.1c-5.5,5.5-6.1,11.4-6.4,14.9c-0.2,2.5-0.3,2.6-0.8,3.6c-0.9,0-2.5-0.4-4-0.8
	c-2.5-0.6-5.3-1.3-8.4-1.3c-6.3,0-10.5,2.8-12.8,5.1c-5.5,5.5-6.1,11.4-6.5,14.9c-0.2,2.5-0.3,2.6-1.7,4c-2.2,2.2-3.7,2.2-4.2,2.2
	c-2.2,0-5.3-1.8-8.4-4.9l-32.4-32.4c-27.7-27.7-59.1-71.8-71.3-90.9l81.1-81.1l17.9,5c-15,11.4-26.8,27.8-36.4,39.7
	c-3.2,3.9-5.7,7.1-7.5,8.9c-7.6,7.6-9.9,15.5-6.9,23.6c2.2,6,7,10.8,13.2,16.9c5.4,5.4,12.3,8.3,19.8,8.3c15.4,0,30.2-11.7,44.5-23
	c3.1-2.5,12.5-8.8,18.5-12.8c23.2,21.1,45.6,41.9,61.4,57.6C339.1,333.1,335.7,336.6,335.1,337.7z M343.2,302.9
	c-20.7-20.7-47.7-42.9-64.4-58.8c-5.1-4.9-14.3-3.4-21.5-1.2c-8.4,1.4-16.2,5.4-26.2,13.3c-9.5,7.5-22.5,17.8-29.5,17.8
	c-0.9,0-6.4-3.9-7.5-4.9c-2-2,3.9-8.6,7.7-13.4c13.3-16.5,31-35,54.1-43.9c19.7-7.6,33.4-4.3,51.5-4l73.6,72.7
	c-13.3,8-26,16.6-35.7,24.9C344.6,304.5,344,303.8,343.2,302.9z M411.9,277.1L288.4,153.6l53.2-53.2l123.5,123.5L411.9,277.1z"/>
</svg>
