<?xml version="1.0" encoding="utf-8"?>
<!-- Generator: Adobe Illustrator 18.0.0, SVG Export Plug-In . SVG Version: 6.00 Build 0)  -->
<!DOCTYPE svg PUBLIC "-//W3C//DTD SVG 1.1//EN" "http://www.w3.org/Graphics/SVG/1.1/DTD/svg11.dtd">
<svg version="1.1" id="Layer_1" xmlns="http://www.w3.org/2000/svg" xmlns:xlink="http://www.w3.org/1999/xlink" x="0px" y="0px"
	 viewBox="0 0 500 500" enable-background="new 0 0 500 500" xml:space="preserve">
<g>
	<g>
		<path fill="#010101" d="M345.4,156.3c-0.4,35.5,25.5,65.1,59.6,70.4l-2.1,172.1c-0.1,5.6,4.4,10.1,10,10.2
			c5.6,0.1,10.1-4.4,10.2-10l0.1-10.1l30.2,0.4c5.6,0.1,10.1-4.4,10.2-10c0.1-5.6-4.4-10.1-10-10.2l-30.2-0.4l0.2-20.1l10.1,0.1
			c5.6,0.1,10.1-4.4,10.2-10c0.1-5.6-4.4-10.1-10-10.2l-10.1-0.1l1.2-101.5c34.2-4.5,60.9-33.5,61.3-69
			c0.5-38.9-30.8-70.9-69.7-71.4S345.9,117.4,345.4,156.3z M466.3,157.8c-0.3,27.8-23.2,50.1-51,49.8c-27.8-0.3-50.1-23.2-49.8-51
			s23.2-50.1,51-49.8C444.3,107.1,466.7,130,466.3,157.8z"/>
	</g>
	<g>
		<path fill="#010101" d="M81.3,94c-5.5,0-9.9,4.4-9.9,9.9v72.3l-9.9,3.3v-75.6c0-5.5-4.4-9.9-9.9-9.9c-5.5,0-9.9,4.4-9.9,9.9v75.6
			l-9.9-3.3v-72.3c0-5.5-4.4-9.9-9.9-9.9c-5.5,0-9.9,4.4-9.9,9.9v79.5c0,4.3,2.7,8.1,6.8,9.4l23,7.7v201.4c0,5.5,4.4,9.9,9.9,9.9
			c5.5,0,9.9-4.4,9.9-9.9V200.5l23-7.7c4.1-1.4,6.8-5.1,6.8-9.4v-79.5C91.2,98.5,86.8,94,81.3,94z"/>
		<path fill="#010101" d="M348.4,269c0-68.5-55.7-124.1-124.1-124.1c-68.5,0-124.1,55.7-124.1,124.1s55.7,124.1,124.1,124.1
			C292.7,393.2,348.4,337.5,348.4,269z M120,269c0-57.5,46.8-104.3,104.3-104.3S328.5,211.5,328.5,269s-46.8,104.3-104.3,104.3
			S120,326.5,120,269z"/>
		<path fill="#010101" d="M308.7,269c0-46.5-37.9-84.4-84.4-84.4s-84.4,37.9-84.4,84.4s37.9,84.4,84.4,84.4S308.7,315.6,308.7,269z
			 M159.7,269c0-35.6,29-64.6,64.6-64.6c35.6,0,64.6,29,64.6,64.6s-29,64.6-64.6,64.6C188.6,333.6,159.7,304.6,159.7,269z"/>
	</g>
</g>
</svg>
