<?xml version="1.0" encoding="utf-8"?>
<!-- Generator: Adobe Illustrator 18.0.0, SVG Export Plug-In . SVG Version: 6.00 Build 0)  -->
<!DOCTYPE svg PUBLIC "-//W3C//DTD SVG 1.1//EN" "http://www.w3.org/Graphics/SVG/1.1/DTD/svg11.dtd">
<svg version="1.1" id="Layer_1" xmlns="http://www.w3.org/2000/svg" xmlns:xlink="http://www.w3.org/1999/xlink" x="0px" y="0px"
	 viewBox="0 0 500 500" enable-background="new 0 0 500 500" xml:space="preserve">
<g>
	<path fill="#662D91" d="M238.8,315.4h21.7c44.7,0,81.3-33.2,81.3-73.8v-79.9c0,0,0-3.7,0-10.2V87.9c0-40.6-36.6-73.8-81.3-73.8
		h-21.7c-44.7,0-81.3,33.2-81.3,73.8v63.7c0,6.4,0,10.2,0,10.2v79.9C157.5,282.2,194.1,315.4,238.8,315.4z M325.4,241.6
		c0,31.7-29.1,57.6-65,57.6h-21.7c-35.8,0-65-25.8-65-57.6v-73.8h151.7V241.6z"/>
	<path fill="#662D91" d="M406.7,245c0-9-7.3-16.2-16.2-16.2c-9,0-16.3,7.3-16.3,16.2c-0.1,68.8-55.8,124.5-124.6,124.6
		C180.8,369.5,125.1,313.8,125,245c0-9-7.3-16.2-16.3-16.2c-9,0-16.2,7.3-16.2,16.2c0,81.3,61.7,148.1,140.8,156.3v49.6h-78.5
		c-9,0-16.3,7.3-16.3,16.2c0,9,7.3,16.2,16.3,16.2h189.6c9,0,16.2-7.3,16.2-16.2c0-9-7.3-16.2-16.2-16.2h-78.6v-49.6
		C345,393.1,406.7,326.3,406.7,245z"/>
</g>
</svg>
