<?xml version="1.0" encoding="utf-8"?>
<!-- Generator: Adobe Illustrator 18.0.0, SVG Export Plug-In . SVG Version: 6.00 Build 0)  -->
<!DOCTYPE svg PUBLIC "-//W3C//DTD SVG 1.1//EN" "http://www.w3.org/Graphics/SVG/1.1/DTD/svg11.dtd">
<svg version="1.1" id="Layer_1" xmlns="http://www.w3.org/2000/svg" xmlns:xlink="http://www.w3.org/1999/xlink" x="0px" y="0px"
	 viewBox="0 0 500 500" enable-background="new 0 0 500 500" xml:space="preserve">
<g>
	<path fill="#FFFFFF" stroke="#ED1C24" stroke-width="5" stroke-miterlimit="10" d="M44.9,473.1c21.1-16.4,45.2-27.9,70.9-34.9
		c28.4-7.8,57-6.2,86.1-5.8c42,0.6,96.2-12.3,106.6-59.8l20.9,14.9c2.4-11.1,1.3-25-2.7-36.7c-8.3-0.1-16.5-1-24.6-2.7
		c-8.2-1.8-16-4.4-23.5-7.8c-8.6,8.9-15.4,21.1-17.8,32.2L289,367c-11.6,53.8-84.4,44.5-124.8,44.7c-48.7,0.2-95.2,17.6-133.5,47.3
		C20.4,466.8,34.8,481,44.9,473.1z"/>
	<path fill="#FFFFFF" stroke="#ED1C24" stroke-width="5" stroke-miterlimit="10" d="M372.6,25.1c-7.6-1.7-15.2-2.5-22.8-2.5
		c-62,0-120.8,53.7-137.5,130.2c-17.4,79.5,16.8,155.7,77.4,178.6c4.8,1.8,9.8,3.4,14.9,4.5c5.1,1.1,10.3,1.8,15.4,2.2
		c2.5,0.2,4.9,0.3,7.4,0.3c62,0,120.8-53.8,137.5-130.2C483.7,122.3,442.4,40.3,372.6,25.1z"/>
</g>
</svg>
