<?xml version="1.0" encoding="utf-8"?>
<!-- Generator: Adobe Illustrator 18.0.0, SVG Export Plug-In . SVG Version: 6.00 Build 0)  -->
<!DOCTYPE svg PUBLIC "-//W3C//DTD SVG 1.1//EN" "http://www.w3.org/Graphics/SVG/1.1/DTD/svg11.dtd">
<svg version="1.1" id="Layer_1" xmlns="http://www.w3.org/2000/svg" xmlns:xlink="http://www.w3.org/1999/xlink" x="0px" y="0px"
	 viewBox="0 0 500 500" enable-background="new 0 0 500 500" xml:space="preserve">
<g>
	<g>
		<path fill="#27AAE1" d="M392.8,409.5c-4.6,0-9.2-1.7-12.7-5.2L93.8,118.6c-7-7-7-18.4,0-25.4c7-7,18.4-7,25.4,0l286.3,285.6
			c7,7,7,18.4,0,25.4C402,407.7,397.4,409.5,392.8,409.5z"/>
		<path fill="#27AAE1" d="M106.8,409.8c-4.6,0-9.2-1.7-12.7-5.2c-7-7-7-18.4,0-25.4L379.7,92.9c7-7,18.4-7,25.4,0c7,7,7,18.4,0,25.4
			L119.5,404.6C116,408.1,111.4,409.8,106.8,409.8z"/>
	</g>
	<g>
		<path fill="#27AAE1" d="M464.6,260.4c-3.2,3.3-7.7,5.3-12.7,5.3l-404.4,2c-9.9,0-18-8-18-17.9c0-9.9,7.9-18,17.9-18l404.4-2
			c9.9,0,18,8,18,17.9C469.8,252.6,467.8,257.1,464.6,260.4z"/>
		<path fill="#27AAE1" d="M263.4,463.6c-3.2,3.3-7.7,5.3-12.7,5.3c-9.9,0.1-18-7.9-18-17.9l-2-404.4c0-9.9,7.9-18,17.9-18
			c9.9-0.1,18,7.9,18,17.9l2,404.4C268.6,455.8,266.6,460.3,263.4,463.6z"/>
	</g>
</g>
</svg>
