<?xml version="1.0" encoding="utf-8"?>
<!-- Generator: Adobe Illustrator 18.0.0, SVG Export Plug-In . SVG Version: 6.00 Build 0)  -->
<!DOCTYPE svg PUBLIC "-//W3C//DTD SVG 1.1//EN" "http://www.w3.org/Graphics/SVG/1.1/DTD/svg11.dtd">
<svg version="1.1" id="Layer_1" xmlns="http://www.w3.org/2000/svg" xmlns:xlink="http://www.w3.org/1999/xlink" x="0px" y="0px"
	 viewBox="0 0 500 500" enable-background="new 0 0 500 500" xml:space="preserve">
<g>
	<path fill="#FFF200" stroke="#F8E600" stroke-width="4" stroke-miterlimit="10" d="M457.7,229.1H41.5c-14.9,0-27.1-10.8-27.1-24
		v-70.4c0-13.3,12.1-24,27.1-24h416.2c14.9,0,27.1,10.8,27.1,24V205C484.8,218.3,472.6,229.1,457.7,229.1z M41.5,129.6
		c-3,0-5.6,2.3-5.6,5V205c0,2.7,2.6,5,5.6,5h416.2c3,0,5.6-2.3,5.6-5v-70.4c0-2.7-2.6-5-5.6-5H41.5z"/>
	<path fill="#FFF200" stroke="#F8E600" stroke-width="4" stroke-miterlimit="10" d="M399.7,470.4H99.5c-28.4,0-51.6-20.5-51.6-45.8
		v-205c0-5.3,4.8-9.5,10.7-9.5c5.9,0,10.7,4.3,10.7,9.5v205c0,14.7,13.5,26.7,30.1,26.7h300.2c16.6,0,30.1-12,30.1-26.7v-205
		c0-5.3,4.8-9.5,10.7-9.5c5.9,0,10.7,4.3,10.7,9.5v205C451.3,449.8,428.1,470.4,399.7,470.4z"/>
	<path fill="#FFF200" stroke="#F8E600" stroke-width="4" stroke-miterlimit="10" d="M249.6,470.4c-5.9,0-10.7-4.3-10.7-9.5V219.6
		c0-5.3,4.8-9.5,10.7-9.5c5.9,0,10.7,4.3,10.7,9.5v241.3C260.3,466.1,255.5,470.4,249.6,470.4z"/>
	<g>
		<path fill="#FFF200" stroke="#F8E600" stroke-width="4" stroke-miterlimit="10" d="M122.7,129.5C90.6,114.1,78.6,78.4,96,50
			c17.4-28.5,57.5-39.1,89.6-23.7c48.6,23.4,74.8,88.5,75.9,91.3l-20.3,6.3c-0.2-0.6-24.6-61-65.9-80.8c-21.6-10.4-48.8-3.2-60.5,16
			c-11.7,19.2-3.6,43.3,18,53.7L122.7,129.5z"/>
		<path fill="#FFF200" stroke="#F8E600" stroke-width="4" stroke-miterlimit="10" d="M376.5,129.5l-10.2-16.8
			c10.5-5,18.1-13.4,21.5-23.5c3.4-10.1,2.1-20.9-3.5-30.2c-11.7-19.2-38.9-26.4-60.5-16c-41.3,19.8-65.6,80.2-65.9,80.8l-20.3-6.3
			c1.1-2.8,27.3-67.9,75.9-91.3c32.1-15.4,72.3-4.8,89.6,23.7c8.4,13.8,10.3,29.6,5.2,44.7C403.4,109.7,392.1,122.1,376.5,129.5z"/>
	</g>
	<path fill="#FFF200" stroke="#F8E600" stroke-width="4" stroke-miterlimit="10" d="M440.5,349.7H58.7c-5.9,0-10.7-4.3-10.7-9.5
		c0-5.3,4.8-9.5,10.7-9.5h381.8c5.9,0,10.7,4.3,10.7,9.5C451.3,345.5,446.5,349.7,440.5,349.7z"/>
</g>
</svg>
