<?xml version="1.0" encoding="utf-8"?>
<!-- Generator: Adobe Illustrator 18.0.0, SVG Export Plug-In . SVG Version: 6.00 Build 0)  -->
<!DOCTYPE svg PUBLIC "-//W3C//DTD SVG 1.1//EN" "http://www.w3.org/Graphics/SVG/1.1/DTD/svg11.dtd">
<svg version="1.1" id="Layer_1" xmlns="http://www.w3.org/2000/svg" xmlns:xlink="http://www.w3.org/1999/xlink" x="0px" y="0px"
	 viewBox="0 0 500 500" enable-background="new 0 0 500 500" xml:space="preserve">
<g>
	<path fill="#EC008C" d="M310,476.6c13.7,7.9,26.1-13.3,12.4-21.2c-31.8-18.2-51.2-51.2-53.5-86.8c-4.8-5.9-8.9-12.6-12.4-20
		c-3.2,8.5-7.2,16.2-12.1,23C247.3,414.6,272.2,454.9,310,476.6z"/>
	<path fill="#EC008C" d="M437,147.2c-10.2-27.8-36.4-44.1-63-44.1c-4.9,0-9.8,0.6-14.7,1.7c-19.8,4-37.3,16.5-53,33.3
		c5.5,3.9,10.5,8.3,15,13.2c9-5.6,18.1-9.5,27.1-11c3.2-0.6,6.3-0.9,9.4-0.9c16.7,0,31.4,8.8,36.9,23.6c6.6,17.5-2,37.3-20,47.7
		c-8,4.9-17.6,7.9-28.2,9.6c-0.3,6.7-1.3,13.3-2.9,19.6c6,0.7,12,1.1,17.8,1.1c16.4,0,31.6-3,44.7-10.4
		C434.4,215.9,449.7,180,437,147.2z"/>
	<path fill="#EC008C" d="M311.5,73.2c-5.1-30.2-32-55.1-66-55.1c-1.1,0-2.2,0-3.4,0.1c-35.5,1.4-62.1,29.2-64.5,60.9
		c-2.3,20.3,4.4,41.1,15.9,61.5c5.2-4,10.8-7.4,16.8-10.3c-2.7-10.5-3.7-20.7-2.3-30c2.5-20.5,17.2-36.5,36.1-37.1
		c0.5,0,1.1,0,1.6,0c18.2,0,33.4,14.3,37.5,33.9c2.1,9,2,18.9,0.4,29.4c6.3,2.2,12.3,5.2,17.9,8.7C310.9,114,315.6,93,311.5,73.2z"
		/>
	<path fill="#EC008C" d="M252.2,188.9c-0.2,0-0.5,0-0.7,0c-14.7,0-26.8,11.7-27.1,26.5c-0.4,15,11.5,27.5,26.5,27.9
		c0.2,0,0.5,0,0.7,0c14.7,0,26.8-11.7,27.2-26.5C279.1,201.8,267.2,189.3,252.2,188.9z"/>
	<path fill="#EC008C" d="M253.7,132.9c-0.7,0-1.5,0-2.2,0c-44.9,0-81.9,35.9-83.1,81c-1.2,45.9,35.1,84.1,81,85.3c0.7,0,1.5,0,2.2,0
		c44.9,0,81.9-35.8,83.1-81C335.9,172.3,299.6,134.1,253.7,132.9z M307.2,217.5c-0.8,30.2-25.5,54.2-55.6,54.2c-0.5,0-1,0-1.5,0
		c-30.7-0.8-55-26.3-54.2-57.1c0.8-30.2,25.5-54.2,55.6-54.2c0.5,0,1,0,1.5,0C283.7,161.2,308,186.8,307.2,217.5z"/>
	<path fill="#EC008C" d="M172.6,269.3c-3.6-5.3-6.7-11-9.1-17c-20.9,11.6-37.7,26.2-46.5,45.2c-14.2,28.4-5.7,66,24,85.4
		c11.7,7.9,24.8,11.5,37.5,11.5c19.3,0,37.9-8.3,50.3-22.8c14.1-15.4,21-36.5,23.6-60.3c-1,0-1.9,0.1-2.9,0.1c-0.1,0-0.2,0-0.3,0
		c-5.5-0.1-10.9-0.8-16.1-1.9c-4.1,10.7-9.4,20-16.3,27.1c-8.8,9.4-20.3,14.6-31.6,14.6c-6.8,0-13.4-1.9-19.3-5.8
		c-15.9-10.3-20.2-31.5-11.8-50.4C157.7,285.8,164.3,277.2,172.6,269.3z"/>
	<path fill="#EC008C" d="M374.4,372.7c27.8-21.6,33.1-60.2,16.6-87.3c-10.1-17.7-27.6-30.6-48.8-40.2c-2,6.3-4.6,12.3-7.9,18
		c8.4,7,15.2,14.6,19.6,23c10,18.2,7.2,39.6-7.5,51.2c-6.4,5.1-14,7.6-21.9,7.6c-10.2,0-20.8-4.1-29.5-12
		c-7.4-6.3-13.4-15-18.4-25.1c-6.2,1.7-12.6,2.8-19.3,3.1c2,10.3,4.9,20.1,8.7,29c1,2.4,2.1,4.7,3.3,7c4.4,8.3,9.8,15.7,16.6,22
		c12.3,12,29.1,18.5,46.3,18.5C346.9,387.6,361.8,382.8,374.4,372.7z"/>
	<path fill="#EC008C" d="M97,244c10.8,4.9,22.6,7,35.1,7c9.5,0,19.5-1.2,29.6-3.4c-2.1-6-3.7-12.4-4.5-18.9
		c-11.4-0.6-21.8-2.8-30.7-7.2c-18.7-8.8-29.2-27.8-24.1-45.7c4.5-16.5,20.8-27,39.3-27c1.6,0,3.3,0.1,4.9,0.2
		c9.7,0.8,19.4,4.1,29.3,9.2c4-5.2,8.5-10,13.5-14.3c-17.3-15.9-36-27.1-56.5-29.4c-3.1-0.5-6.1-0.7-9.2-0.7
		c-28.5,0-56.5,19.5-64.7,49.8C49.5,197.3,67.6,231.8,97,244z"/>
</g>
</svg>
