<?xml version="1.0" encoding="utf-8"?>
<!-- Generator: Adobe Illustrator 18.0.0, SVG Export Plug-In . SVG Version: 6.00 Build 0)  -->
<!DOCTYPE svg PUBLIC "-//W3C//DTD SVG 1.1//EN" "http://www.w3.org/Graphics/SVG/1.1/DTD/svg11.dtd">
<svg version="1.1" id="Layer_1" xmlns="http://www.w3.org/2000/svg" xmlns:xlink="http://www.w3.org/1999/xlink" x="0px" y="0px"
	 viewBox="0 0 500 500" enable-background="new 0 0 500 500" xml:space="preserve">
<g>
	<g>
		<path fill="#A2B2B3" d="M450.6,213.4c-32-35.1-83-58.2-123.6-69.1c-15.8-4.2-32.2-6.7-48.4-8.5c-32.5-3.6-65.7-1.9-97.7,4.8
			c-32.4,6.8-64.9,20.9-92.8,38.8c-9.2,5.9-18.3,11.5-27,18.3c-2.3,1.8-4.8,4.3-7,7.1c-29.5,25.7-46.9,65.3-38,104.4
			c9.3,40.4,46,68.8,80.5,87.5c41.1,22.3,85.1,35.2,131.8,37.6c44.9,2.3,92.6-2.3,135.6-15.7c58.4-18.3,115.4-63.6,117.2-129.5
			C482,259.6,469.7,234.4,450.6,213.4z"/>
		<path fill="#F0F3F2" d="M450.6,203.8c-32-35.1-83-51-123.6-61.9c-15.8-4.2-32.2-6.7-48.4-8.5c-32.5-3.6-65.7-1.9-97.7,4.8
			c-32.4,6.8-64.9,13.7-92.8,31.5c-9.2,5.9-18.3,11.5-27,18.3c-2.3,1.8-4.8,4.3-7,7.1c-29.5,25.7-46.9,65.3-38,104.4
			c9.3,40.4,46,68.8,80.5,87.5c41.1,22.3,85.1,35.2,131.8,37.6c44.9,2.3,92.6-2.3,135.6-15.7c58.4-18.3,115.4-63.6,117.2-129.5
			C482,249.9,469.7,224.7,450.6,203.8z"/>
		<linearGradient id="SVGID_1_" gradientUnits="userSpaceOnUse" x1="3.6982" y1="273.4995" x2="118.4741" y2="273.4995">
			<stop  offset="0" style="stop-color:#F0F3F2"/>
			<stop  offset="0.4553" style="stop-color:#E1E8E8"/>
			<stop  offset="1" style="stop-color:#D5DFDF"/>
		</linearGradient>
		<path fill="url(#SVGID_1_)" d="M398.3,223.4c-27.9-32-70.1-51.9-111.1-51.6c-15.4,0.1-24.2-1.8-39.5-0.2
			c-31.2,3.2-62,7.8-91.9,17.5c-14.6,4.7-29.1,10.2-42.7,17.2c-64.4,33-56.7,95.1-8.3,130.2c44.1,32,122.1,42.9,176.8,38.8
			c36.8-2.8,77.8-19.5,106.4-42.7C425.2,302.2,430.4,260.2,398.3,223.4z"/>
		<path opacity="0.5" fill="#A2B2B3" d="M398.3,223.4c-27.9-32-70.1-51.9-111.1-51.6c-15.4,0.1-24.2-1.8-39.5-0.2
			c-31.2,3.2-62,7.8-91.9,17.5c-14.6,4.7-29.1,10.2-42.7,17.2c-64.4,33-56.7,95.1-8.3,130.2c44.1,32,122.1,42.9,176.8,38.8
			c36.8-2.8,77.8-19.5,106.4-42.7C425.2,302.2,430.4,260.2,398.3,223.4z"/>
		<path opacity="0.8" fill="#BCBBBB" d="M449,239.6c-4.3-13.5-21.5-19.8-19.7-26.2c6.5-22.7-14.4-57.9-26.3,4.5
			c-1.8,9.2,1.8,16.4,6.7,23.8c1.9,2.8,2.2,4.8,1.5,6.6c-5.1-2.7-12.2-2.2-15.7,3.9c-2.1,3.6-3.9,7.3-5,11.2c-0.9,1.6-2,3.1-3.1,4.6
			c-6.2,7.8-1.7,17.1,5.4,19.1c1.6,3.8,3.3,7.5,3.8,11.6c0.5,3.9-1.1,7.8-3.8,11.5c-5-1.3-11.6,1.3-13.1,6.7
			c-0.9,3.2-2.8,6.3-4.9,9.2c-2.8,1.9-5.3,3.6-7.3,4.9c-17,11.7-36.8,18.9-56.9,23c-8.9,1.8-18.6,3.2-27.6,1.7
			c-10.1-1.6-19-6.9-27.3-12.5c-10.9-7.3-22.9,9-13.8,17.9c3.1,3,7.3,6.1,8.9,10.3c1.4,3.7,0.9,8.6,1.4,12.5
			c0.2,1.5,0.7,2.9,1.4,4.2c-10.2-1-22-4.6-30.3-9.5c-6.6-3.9-16.1,4.3-11.1,11.1c10.9,14.9,32.2,20.3,50.4,20.4
			c26.7,0.1,17.9-19.2,46.2-13.9c20.4,3.8,39.4,2,59.1-6.7c26.2-11.5,55.7-30.8,66.6-58.7c10.3-26.4-28.7-42.6,11.6-80.1
			C449.9,247,450.2,243.3,449,239.6z"/>
		<linearGradient id="SVGID_2_" gradientUnits="userSpaceOnUse" x1="61.8693" y1="302.8857" x2="148.2834" y2="302.8857">
			<stop  offset="0" style="stop-color:#61672C"/>
			<stop  offset="1" style="stop-color:#33341B"/>
		</linearGradient>
		<path fill="url(#SVGID_2_)" d="M144.9,318.7c-5.2,1.4-10.3,2.4-15.4,2.7c0.4-1.2,0.3-2.5-0.3-3.6c1.7-1.7,1.8-4.9-0.7-6.2
			c-0.2-0.1-0.3-0.2-0.4-0.2c-0.6-1.3-1.4-2.4-2.3-3.3c-0.3-1.2-1.1-2.3-2.5-2.8c-1.7-0.7-3.5-1.4-5.2-2c-1.6-0.6-2.9,0-3.8,1.1
			c-4.6-0.2-9.2,0.4-13.8,0.1c-7.8-0.5-15.4-3.2-21.2-8.5c-1.2-1.1-2.6-1.2-3.8-0.7c-0.1-0.2-0.3-0.4-0.4-0.6
			c-3.6-5.6-6.3-11.7-10.8-16.7c-0.6-0.7-1.7-0.3-1.9,0.5c-2.2,5.9,4.2,14.6,6.9,19.6c4.6,8.6,11.4,15.3,19.3,20.9
			c17,12.1,38.9,11.3,57.9,5.1C149.7,322.9,148.3,317.8,144.9,318.7z"/>
		<path fill="#33341B" d="M134.7,326.9c-1.1-1.9-2.4-3.8-3.8-5.6c-0.4,0-0.9,0.1-1.3,0.1c0.2-0.5,0.3-1.1,0.2-1.6
			c-1.1-1.4-2.1-2.7-2.9-4c-2.5-3.7-4.2-8-6.6-11.8c-0.7-0.3-1.5-0.6-2.2-0.8c-1.6-0.6-2.9,0-3.8,1.1c-2-0.1-4.1,0-6.1,0.1
			c-2.1,5.9,1,13.2,3.3,18.5c0.7,1.5,1.4,3.3,2.3,5.1C120.7,328.7,127.8,328.2,134.7,326.9z"/>
		<radialGradient id="SVGID_3_" cx="102.7006" cy="268.3049" r="40.233" gradientUnits="userSpaceOnUse">
			<stop  offset="0" style="stop-color:#FFDBAC"/>
			<stop  offset="0.3905" style="stop-color:#FEDAAB"/>
			<stop  offset="0.5624" style="stop-color:#FCD6A4"/>
			<stop  offset="0.6914" style="stop-color:#F9D19A"/>
			<stop  offset="0.7991" style="stop-color:#F5C98C"/>
			<stop  offset="0.8934" style="stop-color:#F1C07A"/>
			<stop  offset="0.9771" style="stop-color:#ECB564"/>
			<stop  offset="1" style="stop-color:#EBB15C"/>
		</radialGradient>
		<path fill="url(#SVGID_3_)" d="M137,295.9c-2.5,0.7-5,1.3-7.5,1.9c3.3-4,3.9-9,4.6-14.2c0.5-2,0.8-4,0.9-6.1
			c0.9-5.8,1.6-11.4,0.5-17.4c-1.2-6.6-6.6-11.4-11.9-14.8c-3.9-2.5-8.2-4.2-12-6.7c-1.4-1-2.9-2-4.3-2.9c-2.3-1.6-4.5-3-7.2-4.2
			c-0.7-0.3-1.3-0.4-2-0.4c-0.8-0.8-2-1.1-3.1-0.5c1.2-1.4,0.8-1.8-1.4-2.2c-11.3-1.9-21.3,12.2-26.1,20.5
			c-6.7,11.5-9.4,24.4-4,36.8c5.1,11.6,17.9,19.1,29.4,22.6c13.8,4.3,35,1.6,45.8-8.4C140.3,298.4,138.9,295.4,137,295.9z"/>
		<g opacity="0.3">
			<path fill="#B0862D" d="M137,295.9c-11.2,2.9-23.2,5.6-35.6,4.9c-10.6-0.6-21.6-7.4-27.8-15.8c-6.8-9.2-4-19.9,0.6-29.4
				c2.3-4.7,5.4-9.1,8.9-13c3.5-3.9,8.7-8.3,12-12.1c1.2-1.4,0.8-1.8-1.4-2.2c-11.3-1.9-21.3,12.2-26.1,20.5
				c-6.7,11.5-9.4,24.4-4,36.8c5.1,11.6,17.9,19.1,29.4,22.6c13.8,4.3,35,1.6,45.8-8.4C140.3,298.4,138.9,295.4,137,295.9z"/>
		</g>
		<path fill="#90983D" d="M130.8,305.1c-0.4-1.3-1.3-2.3-2.7-1.8c-8.8,2.8-23.9,5.3-37.6,1.4c-10-2.9-17.9-9.5-22.4-18.6
			c-5-10.1-5.5-22.3-0.9-32.1c5.1-10.9,13-19,21.9-25.6c-9.4,1.7-17.5,13.2-21.8,20.5c-6.7,11.5-9.4,24.4-4,36.8
			c5.1,11.6,17.9,19.1,29.4,22.6C103.8,311.7,119.4,310.7,130.8,305.1z"/>
		<path fill="#EBB15C" d="M104,284.9c-1.1,9,1.2,17.4,5.1,25.2c7.4-0.3,15-1.9,21.4-4.9c-0.9-1.1-1.6-2.3-2.3-3.4
			c-6.1-10.5-3.1-21.1-1.5-32.4c1.2-8.1,1.5-17.3-3-24.2c-0.1,0-0.1-0.1-0.2-0.1c-3.9-2.5-8.2-4.2-12-6.7c-1.4-1-2.9-2-4.3-2.9
			c-2.3-1.6-4.5-3-7.2-4.2c-0.7-0.3-1.3-0.4-2-0.4c-0.8-0.8-2-1.1-3.1-0.5c1.2-1.4,0.8-1.8-1.4-2.2c-5.2-0.9-10.1,1.7-14.4,5.5
			c0,0,0,0.1,0.1,0.1c4.5,4.4,9.8,7.6,15,11c4.2,2.8,10.9,5.9,13.7,10.2c1.5,2.3-0.5,8.8-0.9,11.2C106,272.6,104.8,278.7,104,284.9z
			"/>
		<path fill="#EBB15C" d="M123.6,245.2c-3.9-2.5-8.2-4.2-12-6.7c-1.4-1-2.9-2-4.3-2.9c-2.3-1.6-4.5-3-7.2-4.2
			c-0.7-0.3-1.3-0.4-2-0.4c-0.8-0.8-2-1.1-3.1-0.5c1.2-1.4,0.8-1.8-1.4-2.2c-3.6-0.6-7.1,0.4-10.4,2.4c9.3,6.2,29.9,20.1,47.3,33.9
			c-0.3-4.5-4.3-15.7-6.8-19.5C123.7,245.2,123.7,245.2,123.6,245.2z"/>
		<linearGradient id="SVGID_4_" gradientUnits="userSpaceOnUse" x1="117.6885" y1="322.4003" x2="215.9481" y2="322.4003">
			<stop  offset="0" style="stop-color:#61672C"/>
			<stop  offset="1" style="stop-color:#33341B"/>
		</linearGradient>
		<path fill="url(#SVGID_4_)" d="M214.1,334.5c-2.9-2.2-7.4-0.8-10.6-0.2c-7.3,1.3-14.7-0.4-22-0.7c-2.4-0.1-3.9,1.7-4.3,3.7
			c-1.6,0-3.3,0-5,0c-8-0.3-15.1-2.7-22.7-4.4c-0.8-0.2-1.6,0.1-2.1,0.6c-13-9.7-19.4-24.2-25.2-39.3c-0.9-2.3-4.3-2-4.4,0.6
			c-1,18.8,13.9,39.1,28.6,49.1c7.7,5.3,17.4,7.2,26.7,8.1c12.6,1.3,24.1-2.9,35.9-6.3c1.8-0.5,2.6-2,2.6-3.5c0.2,0,0.3,0,0.5,0
			C216.6,342.6,217,336.6,214.1,334.5z"/>
		<path fill="#33341B" d="M193.4,347.3c-0.4-4.3-0.4-8.6-1.2-12.8c-3.6-0.3-7.2-0.8-10.7-0.9c-2.4-0.1-3.9,1.7-4.3,3.7
			c-1.2,0-2.4,0-3.6,0c-0.8,3.2-1.1,6.6-1.1,10c0,1.4,0,3,0.1,4.6c0.1,0,0.3,0,0.4,0c7.2,0.7,14-0.3,20.8-2
			C193.6,349.1,193.5,348.2,193.4,347.3z"/>
		<radialGradient id="SVGID_5_" cx="168.3197" cy="289.7483" r="48.8137" gradientUnits="userSpaceOnUse">
			<stop  offset="0" style="stop-color:#FFDBAC"/>
			<stop  offset="0.3905" style="stop-color:#FEDAAB"/>
			<stop  offset="0.5624" style="stop-color:#FCD6A4"/>
			<stop  offset="0.6914" style="stop-color:#F9D19A"/>
			<stop  offset="0.7991" style="stop-color:#F5C98C"/>
			<stop  offset="0.8934" style="stop-color:#F1C07A"/>
			<stop  offset="0.9771" style="stop-color:#ECB564"/>
			<stop  offset="1" style="stop-color:#EBB15C"/>
		</radialGradient>
		<path fill="url(#SVGID_5_)" d="M221.6,314.6c-7.9,2.3-15.3,5.9-22.8,9.1c6.4-4,11.8-9.4,15.5-16c2-3.6,1.7-7.2-0.1-10
			c1.8-7.5-7-13.3-13.3-10c-0.8-0.3-1.5-0.6-2.4-1c-0.5-0.3-0.9-0.6-1.3-1c-0.6-3-2.1-6.3-4.8-9.6c-2.2-2.8-5.9-3.2-9.1-2
			c-1.6-1.5-3.2-2.8-5-3.9c-4.1-2.6-9.2-3.4-13.5-1.6c-1.9-1.4-4.1-2-6.5-1.8c-1.6-2.2-3-4.4-4.3-6.8c-1.3-2.4-3.4-3.9-5.6-4.5
			c-1.6-2.7-4.9-4.3-8.1-2c-0.1,0.1-0.1,0.1-0.2,0.2c-0.4-0.8-1-1.4-1.9-1.6c-12.4-2.2-19.1,20.2-20.5,29.1
			c-2.3,14.7,3.5,28.1,12.9,39.1c24.5,28.8,68.4,21.7,93-2.5C225,316.6,223.5,314,221.6,314.6z"/>
		<g opacity="0.3">
			<path fill="#B0862D" d="M221.6,314.6c-13.8,4-26,12.1-40.3,14.8c-13.5,2.6-28.5-2.6-38.9-11.1c-9.3-7.6-15.8-19.2-15.7-31.3
				c0-6.6,2.2-13.3,5.1-19.1c2.2-4.4,7.3-7.2,8.4-12c0.4-1.5-0.4-3.4-2.1-3.7c-12.4-2.2-19.1,20.2-20.5,29.1
				c-2.3,14.7,3.5,28.1,12.9,39.1c24.5,28.8,68.4,21.7,93-2.5C225,316.6,223.5,314,221.6,314.6z"/>
		</g>
		<path fill="#90983D" d="M204.1,331c-5.7,0.6-11,2.5-16.6,3.7c-8.6,1.8-17.4,1.4-26-0.4c-11-2.3-21-7.7-28.8-15.7
			c-16.7-17.2-16.4-44.6-2.8-63.5c0.2-0.2,0.2-0.5,0.2-0.8c-7.4,5.6-11.5,20.2-12.6,27c-2.3,14.7,3.5,28.1,12.9,39.1
			c19.2,22.5,50.2,23.1,74.6,10.7C204.8,331,204.5,331,204.1,331z"/>
		<path fill="#E4D468" d="M428.7,173c-0.6-7.2-3.1-25.5-11.7-28.2c-1.3-0.4-18.8,13-26.3,16.6c-12.6,6.2-25.4,11.4-39.1,14.2
			c-28.1,5.6-54.8,7.9-62.7,7.9c-4.6,0-3.8,1.6-7.5,4.7c-0.8,0.7-1.2,2.1-0.8,3.1c1.9,5.4,7.7,7.2,14,7.5c0.5,1.2,1.4,2.2,2.9,2.7
			c15.5,5.2,33.7,14.8,43.4,28.3c3.3,4.6,8.3,12,14.1,16.1c-0.2,0.1-0.3,0.3-0.5,0.4c-5.2,3.9-9.7,7.8-10.4,14.4
			c-0.2,2,1.6,4.1,3.5,4.6c7.8,1.8,14.3-3.7,20.2-8.2c7.1-5.3,14-10.7,20.7-16.5c11.8-10,22.6-16.2,30.6-29.6
			C425.5,200.4,429.7,185.3,428.7,173z"/>
		<path fill="#C9B942" d="M410,188.5c5.5-7.8,8.1-22.5-1.5-28.6c-2.9-1.8-6.4-2.9-10-3.2c-3,2-5.8,3.7-7.9,4.7
			c-2.2,1.1-4.5,2.2-6.7,3.2c6.6-0.8,13.8-3.1,19.6,0.8c18.5,12.6-28.9,45.9-39.7,51.6c-8.3,4.4-17.2,6.6-26,9
			c1.1,1.2,2.1,2.5,3,3.8c1.2,1.6,2.6,3.6,4.1,5.6c10.3-3.2,20.4-8,28.8-13.1C387.3,214.2,400.9,201.5,410,188.5z"/>
		<path fill="#FAF4D0" d="M419.1,211c6.4-10.7,10.6-25.7,9.5-38.1c-0.6-7.2-3.1-25.5-11.7-28.2c-1.3-0.4-18.8,13-26.3,16.6
			c-1.2,0.6-2.5,1.2-3.8,1.8c7.1-2.6,14-4.4,19.6-1.6c9.6,4.8,3.4,19.2-0.2,25.8c-5.6,10.4-15.3,18.3-24.6,25.2
			c-5,3.7-10.3,6.8-15.5,10.2c-3,2-8.7,7.3-12.6,6.7c-2.6-0.4-3.8,2.6-1.8,4.2c3.7,2.9,4.7,15.2,8.4,13.4c3.8-1.9,10.4,0.5,17,2.7
			c3.8-3,7.5-6,11.2-9.1C400.3,230.6,411.1,224.4,419.1,211z"/>
		<path fill="#F9B118" d="M428.7,173c-0.6-7.2-3.1-25.5-11.7-28.2c-0.3-0.1-1.5,0.6-3.4,1.8c1.1,1.9,2.2,3.8,2.8,5.5
			c3.7,9.8,5.4,17.9,3,29.8c-3.8,19-12.3,29.9-28.2,45.5c-2,2,2,6.7,4,7.9c9.1-7.2,17.4-13.3,23.9-24.1
			C425.5,200.4,429.7,185.3,428.7,173z"/>
		<path opacity="0.3" fill="#AB9E33" d="M391.3,227.5c-14.6-3.6-29.2-5.9-41-16.1c-10.1-8.8-19.1-20.2-23.6-31.6
			c-17.8,2.6-32.4,3.7-37.9,3.7c-0.5,0-0.9,0-1.2,0.1c0.1,0.2,0.2,0.4,0.3,0.5c3.7,5.1,9.1,11.4,15.3,16.2c1.2,1.1,2.5,2.2,3.7,3.2
			c0.9,1.1,1.8,2,2.8,2.9c3,1.4,6.1,2.9,9,4.6c1.4,0.1,2.7-0.1,3.9-0.6c1.9,2.5,3.8,4.8,5.8,7c4.5,3.4,8.5,7.3,11.7,11.6
			c12,9.4,27.2,14.2,42.2,16.6c2-1.7,4.1-3.3,6.1-5c3.1-2.6,6.1-5,9-7.3C396.6,230.6,394.6,228.3,391.3,227.5z"/>
		<g opacity="0.5">
			<path fill="#F27434" d="M328.5,217.5c2.9,2.2,5.6,4.6,8,7.2c-0.2-1.1-0.8-2.3-1.7-3.5c-8.2-10.7-16.5-23.5-18.1-37.2
				c-0.1-1-0.2-1.9-0.3-2.9c-12.7,1.6-22.8,2.3-27.3,2.3c0.2,1.1,0.5,2.2,0.8,3.3c3.5,4.5,8.1,9.5,13.3,13.5
				c1.2,1.1,2.5,2.2,3.7,3.2c0.9,1.1,1.8,2,2.8,2.9c3,1.4,6.1,2.9,9,4.6c1.4,0.1,2.7-0.1,3.9-0.6
				C324.6,212.9,326.5,215.3,328.5,217.5z"/>
		</g>
		<linearGradient id="SVGID_6_" gradientUnits="userSpaceOnUse" x1="409.7705" y1="212.0447" x2="384.434" y2="274.4812">
			<stop  offset="0" style="stop-color:#E24427"/>
			<stop  offset="1" style="stop-color:#9F2326"/>
		</linearGradient>
		<path fill="url(#SVGID_6_)" d="M436,236.3c-0.1-0.3-0.2-0.7-0.3-1c-7.2-17.2-27.5-23.5-44.7-21c-13.8,2-34.1,14.9-32.8,30.9
			c0.1,0.8,0.4,1.6,0.8,2.3c-0.1,1,0,2.1,0.6,3.1c7.8,13.7,23,20.6,38.3,20.4c15.8-0.3,36.8-12,39.2-28.9
			C437.5,239.8,437.2,237.9,436,236.3z"/>
		<path fill="#B9812D" d="M410.8,268.6c0-0.2,0-0.4,0-0.5c-0.5-9.3-3.9-18.7-8.9-26.4c-6.9-10.5-19.8-18-32.4-17.6
			c-5.6,4.4-9.9,10.1-11.1,16.4c4.2,1.5,8.9,1.8,13.4,2.9c6.3,1.5,9.5,6.5,12.3,11.8c2.5,4.8,3.7,9.8,4.1,15
			c3.2,0.6,6.6,0.9,9.9,0.9C402,270.9,406.5,270.1,410.8,268.6z"/>
		<linearGradient id="SVGID_7_" gradientUnits="userSpaceOnUse" x1="208.0549" y1="206.3319" x2="358.2626" y2="335.7276">
			<stop  offset="0" style="stop-color:#D6682B"/>
			<stop  offset="1" style="stop-color:#A95325"/>
		</linearGradient>
		<path fill="url(#SVGID_7_)" d="M412.6,286.5c-14.7-32.5-27.2-6.5-25.8,6.9c0.9,9.1-5.5,14.3-11.8,20.2c-8.7,8-18.9,13.9-29.2,19.4
			c-9.5,5.1-19.5,8.6-29.7,12c-4.6,1.5-9.2,2.9-13.8,4c-4.3,1.1-9.5,0.5-14,1.2c-6.3,1-10.9,9.3-8.7,15.1
			c10.9,29.6,55,10.6,83.1-3.9c14.3-7.4,28.8-15.4,39.3-27.5C412.6,321.8,420,302.9,412.6,286.5z"/>
		<linearGradient id="SVGID_8_" gradientUnits="userSpaceOnUse" x1="282.3356" y1="270.8056" x2="374.6817" y2="345.1622">
			<stop  offset="0" style="stop-color:#F38252"/>
			<stop  offset="1" style="stop-color:#D3622D"/>
		</linearGradient>
		<path fill="url(#SVGID_8_)" d="M356.7,227.1c-18.4-14.1-36.9-27.4-56.5-39.7c-18.6-11.6-37.4-23.6-57.7-32
			c-38.2-15.9-83.9-10.2-120.2,8.3c-14.1,7.2-56.6,24.1-44.1,46.4c1,1.7,2.5,2.4,4,2.4c0.5,0.4,1.1,0.7,1.7,0.9
			c10.4,3.9,21,6.8,31.1,11.6c10,4.7,19.6,10.5,29.2,16.1c20.3,12,39.7,25.2,58.2,39.7c17.6,13.8,34.3,28.5,51.6,42.7
			c15.4,12.7,31.3,25.5,51.1,30.1c26.2,6.1,74-16.2,92.7-34.9C433.8,282.9,386.7,250.1,356.7,227.1z"/>
		<g opacity="0.5">
			<path fill="#A91F24" d="M175.4,173.1c20.9-6.2,42-11.8,63.3-16.7c1.3-0.3,2.7-0.6,4-0.9c-0.1,0-0.2-0.1-0.3-0.1
				c-9.4-3.9-19.3-6.5-29.4-7.9c-13.9,3.8-27.7,8-41.4,12.4c-20.2,6.4-40.5,12.9-60.5,19.8c-10.6,3.6-21.8,7.6-32.2,12.8
				c-2.7,4.2-3.8,8.7-2.5,13.5c12.5-5.1,25-10.3,38-14.5C134.6,185,155.1,179.1,175.4,173.1z"/>
		</g>
		<g opacity="0.5">
			<path fill="#A91F24" d="M211.7,200.7c20.3-5.2,40.6-10,60.9-15.1c5.8-1.5,11.6-3,17.4-4.5c-7.1-4.4-14.3-8.7-21.6-12.8
				c-19.3,4.8-38.6,10-57.9,15.2c-19.7,5.3-39.4,10.9-58.9,17c-16.7,5.2-34.8,10.9-50.7,18.9c4.8,1.7,9.6,3.5,14.2,5.7
				c1.2,0.6,2.4,1.2,3.6,1.8c1.8-0.6,3.6-1.2,5.3-1.7c9.5-3,19-5.8,28.6-8.6C172.1,210.7,191.9,205.8,211.7,200.7z"/>
		</g>
		<g opacity="0.5">
			<path fill="#A91F24" d="M322.1,207.2c1.8-0.5,3.6-1.1,5.4-1.6c-5.6-3.9-11.2-7.7-16.9-11.5c-19.5,5.7-39.1,11.1-58.6,17
				c-23,7-45.7,14.5-68.5,21.9c-10.8,3.5-21.6,7.1-32.3,10.8c-0.5,0.2-1,0.4-1.5,0.5c5.1,3.1,10.1,6.2,15,9.4
				c6.5-2.1,12.9-4.2,19.3-6.1c22.9-7,45.8-14.2,68.8-20.9C275.9,220.1,299.1,213.9,322.1,207.2z"/>
		</g>
		<g opacity="0.5">
			<path fill="#A91F24" d="M361.5,230.8c-1.7-1.3-3.3-2.5-4.8-3.7c-3.8-2.9-7.6-5.8-11.4-8.6c-13.2,4.5-26.3,9-39.4,13.5
				c-22.8,8-45.7,15.8-68.6,23.7c-15.2,5.2-30.6,10.6-45.4,17.1c3.6,2.7,7.1,5.3,10.6,8.1c0.8,0.6,1.5,1.2,2.2,1.8
				c35.4-10.9,70.4-23.2,105.5-34.7C327.4,242.3,344.4,236.5,361.5,230.8z"/>
		</g>
		<g opacity="0.5">
			<path fill="#A91F24" d="M239.2,311.1c15.2-3.8,30-9,44.9-14c21.8-7.4,43.6-15,65.2-23.1c14.6-5.5,29.1-11.1,43.6-16.8
				c-3.9-4.1-8.3-8-12.7-11.8c-11.6,4.7-23.2,9.4-34.8,14c-21.5,8.6-43.1,16.5-64.8,24.3c-10.9,3.9-21.8,7.8-32.6,11.8
				c-5.8,2.2-11.6,5.3-17.4,8.1C233.4,306.2,236.3,308.7,239.2,311.1z"/>
		</g>
		<g opacity="0.5">
			<path fill="#A91F24" d="M406.7,275.8c-9.2,3.8-18.3,7.7-27.5,11.6c-19.6,8.4-39.2,16.9-58.7,25.5c-9.6,4.2-19.3,8.1-28.9,12.3
				c-5.3,2.3-10.6,4.6-15.9,6.9c-2.2,1-4.4,2.1-6.5,3.4c3.9,2.9,7.9,5.7,12.1,8.1c1.9-0.7,3.9-1.4,5.9-2.1
				c10.9-3.9,21.8-8.1,32.6-12.4c20.9-8.3,41.6-17,62.5-25.4c9.6-3.9,19.1-7.8,28.6-11.8C410.8,286.5,409.3,281.1,406.7,275.8z"/>
		</g>
		<path opacity="0.8" fill="#A95325" d="M300.2,187.4c-7.9-4.9-15.9-9.9-24-14.7c-5.4,1.2-10.7,3.2-15.8,5.8
			c-17.4,9-36.3,7.3-55,7.7c-3.8,0.1-6,4.1-4.2,7.3c3.5,6.5,12.7,8.1,19.3,9.3c12.3,2.3,24.4,0.8,36.6-1.9c11.7-2.5,21-8,33.2-8.1
			c5-0.1,10.7-0.3,16.2-1.4C304.4,190.1,302.3,188.7,300.2,187.4z"/>
		<path fill="#EBB15C" d="M177.5,339c8.7-0.7,17.4-3.1,25.5-6.9c0.2-1.5,0.5-3.1,0.8-4.6c0.4-2.1,0.6-4.2,0.7-6.3
			c-1.9,0.8-3.8,1.7-5.8,2.5c2-1.3,4-2.7,5.8-4.3c0-3.6-0.6-7.2-1.9-10.7c-4.4-11.7-14.7-19.6-24.9-26c-10.4-6.5-21-12.6-31.5-19
			c-25.4-15.5-21.3,4.2-7.3,18c18.2,17.9,45.7,21.7,39.5,51.3C178,335.1,177.7,337,177.5,339z"/>
		<g>
			<path fill="#EBB15C" d="M203.9,327c0.3-1.9,0.6-3.9,0.7-5.8c-1.4,0.6-2.8,1.3-4.3,1.9C201.4,324.5,202.6,325.9,203.9,327z"/>
			<path fill="#EBB15C" d="M191.3,310.7c2.9,3.2,5.6,8,8.8,12.1c1.6-1.1,3.1-2.2,4.5-3.4c0-3.6-0.6-7.2-1.9-10.7
				c-4.4-11.7-14.7-19.6-24.9-26c-10.4-6.5-21-12.6-31.5-19c-7.7-4.7-12.7-6.2-15.5-5.5c0,0.2,0,0.3,0,0.4
				c0.7,8.2,7.8,12.3,14.3,16.4c8.4,5.2,16.9,10,24.9,15.8C177.8,296.5,184.8,303.5,191.3,310.7z"/>
		</g>
		<linearGradient id="SVGID_9_" gradientUnits="userSpaceOnUse" x1="140.6649" y1="242.4987" x2="229.3417" y2="306.7441">
			<stop  offset="0" style="stop-color:#F3CCB9"/>
			<stop  offset="1" style="stop-color:#E8AC77"/>
		</linearGradient>
		<path fill="url(#SVGID_9_)" d="M302.7,343.5c-2.3-1.3-4.3-2-6.5-0.2c-8.5-14.8-21.3-27.9-33.3-39.1c-17.2-16.1-37.1-29-57.3-41.1
			c-20.2-12.1-40.4-24.6-60.9-36.2c-9.6-5.5-20.1-9.4-30.3-13.6c-8.5-3.5-20-11-29.4-10.1c-0.2,0-0.4,0.1-0.6,0.1
			c-1.7-1.4-3.5-2.6-5.6-3.5c-4.4-1.9-7.1,2-5.3,6.9c3.9,10.7,6.2,13.6,10.2,19.1c4.5,6.1,11.9,9.4,24.2,17.2
			c15.8,10,23.2,16.7,38.9,26.8c29.7,19.1,60.3,36.3,85.5,60.9c14.1,13.7,51.4,54.1,76.1,50.7C316.4,380.2,320.4,354,302.7,343.5z"
			/>
		<g opacity="0.3">
			<path fill="#A87D50" d="M280.6,370.9c-1.9-10.1-3.9-20.2-6-30.3c-2.3-11.2-5.1-22.2-8.1-33.2c-1.2-1.1-2.3-2.3-3.5-3.3
				c-0.1-0.1-0.3-0.2-0.4-0.3c2.7,11.5,5.1,23,7.5,34.5c2.1,10.1,4,20.2,5.9,30.3c0.1,0.3,0.1,0.6,0.2,0.9c1.6,1.1,3.2,2.2,4.9,3.2
				C280.8,372.1,280.7,371.5,280.6,370.9z"/>
			<path fill="#A87D50" d="M260.3,355c-2.5-10.2-4.7-20.4-7.6-30.4c-3.5-12.1-5.1-24.4-8.7-36.2c-1-0.8-2.1-1.6-3.2-2.3
				c4.3,13.8,5.6,28.6,9.4,42.4c2.2,7.9,3.7,16.4,5.5,24.8c1.7,1.6,3.5,3.1,5.3,4.6C260.7,356.9,260.5,356,260.3,355z"/>
			<path fill="#A87D50" d="M227,296.6c3.3,12.7,5.7,25.9,9.8,38.4c0.7,0.7,1.5,1.5,2.3,2.3c0.2-0.2,0.4-0.4,0.3-0.8
				c-0.6-12.7-4.3-25.4-7.6-37.6c-2.1-7.8-4.2-15.7-6.5-23.5c-1.6-1-3.2-2.1-4.8-3.1C222.5,280.4,224.8,288.5,227,296.6z"/>
			<path fill="#A87D50" d="M211.6,300.4c-3-12.6-5.1-26.1-8.5-38.9c-1.8-1.1-3.6-2.2-5.4-3.3c2.8,13.4,5.6,26.8,8.8,40.1
				c1,4.1,1.9,8.3,2.7,12.4c2.1,1.6,4.1,3.2,6.2,4.8C214.1,310.5,212.8,305.4,211.6,300.4z"/>
			<path fill="#A87D50" d="M190.9,280.1c-2.2-10-4.6-20-6.8-29.9c-1.7-1-3.3-2-5-3c1.5,9.3,4.4,18.5,6.2,27.3
				c1.5,7.6,3.2,15.3,4.8,22.9c2.1,1.4,4.1,2.8,6.2,4.2C194.5,294.2,192.5,287,190.9,280.1z"/>
			<path fill="#A87D50" d="M172.4,270.7c-1.7-10.8-4.6-21.4-7.3-31.9c-1.2-0.7-2.4-1.4-3.6-2.1c2.2,10.6,5,21.1,6.8,31.9
				c0.8,5.1,1.4,10.6,2,16c1.7,1.1,3.5,2.2,5.2,3.3C174.4,282.1,173.3,276.4,172.4,270.7z"/>
			<path fill="#A87D50" d="M155.8,259.1c-2.7-10.3-5.8-20.6-8.7-30.9c-0.8-0.5-1.6-0.9-2.4-1.4c-0.7-0.4-1.4-0.8-2.1-1.1
				c2.3,10.5,5.1,21,7.8,31.4c1.5,5.7,2.6,11.4,3.7,17.2c2.2,1.4,4.5,2.8,6.7,4.2C159.3,271.9,157.4,265.3,155.8,259.1z"/>
			<path fill="#A87D50" d="M135.9,249.6c-1.9-10.3-4-20.5-7-30.4c-1.2-0.5-2.4-1-3.7-1.5c2.6,10.9,4.8,22,6.7,33.1
				c0.6,3.2,1,6.6,1.5,9.9c1.8,1.3,3.6,2.5,5.5,3.9C137.9,259.5,136.8,254.5,135.9,249.6z"/>
			<path fill="#A87D50" d="M115.3,236.6c-2-8.7-3.9-17.3-6.2-25.9c-1.2-0.6-2.5-1.2-3.8-1.9c2.2,9.5,4.4,19.1,6.5,28.7
				c0.6,2.9,1.2,5.9,1.8,9c1.9,1.2,3.6,2.4,5.3,3.6C117.6,245.6,116.3,241.1,115.3,236.6z"/>
			<path fill="#A87D50" d="M86.7,203c0.5,9.8,2.3,20,5.1,29.9c2.1,1.4,4.5,2.9,7.3,4.5c-0.6-1.7-1.1-3.4-1.6-5.1
				c-2.8-9.5-5.2-19-6.6-28.8C89.4,203.2,88,203,86.7,203z"/>
			<g>
				<path fill="#A87D50" d="M293.9,354.3c-2.6-9.1-5.8-18.2-9.1-27.2c-1.9-2.3-3.9-4.6-5.9-6.8c3.4,10.6,7,21,10,31.7
					c2.6,9.3,5.1,18.7,7.6,28.1c1.8,0.5,3.6,0.9,5.4,1.2C299.2,372.1,296.4,363,293.9,354.3z"/>
			</g>
		</g>
	</g>
	<g>
		<g opacity="0.3">
			<path fill="#BB5B28" d="M304.6,358.1c-19.9-1.8-49.7-35.6-62.4-49.5c-7.5-8.2-16-15-28-16.1c-8-0.8-13.8,4.6-14.8,11.3
				c0,0,0,0,0,0c2.2,1.6,4.4,3.1,6.6,4.8c0,0,0.1,0,0.1,0.1c3-3.1,5.2-4.9,10-1.8c7.5,4.8,13.2,12.2,18.6,19
				c4.9,6.2,9.6,12.6,13.6,19.4c0.5,0.8,0.9,1.6,1.3,2.4c17.4,16.5,41.2,36.1,58.8,33.7c5.4-0.7,9-13,5.2-24.1
				C310.9,358,307.9,358.4,304.6,358.1z"/>
		</g>
	</g>
	<g>
		<path fill="#97792D" d="M367.8,191.2c-3.6-5.1-8.7-7.6-15.8-8.9c-1.1-0.2-2.5-0.7-2.7,1.2c-0.8,4.8,2.6,10.9,5.2,14.7
			c2.7,4,7.8,8.1,12.8,6.1C372.7,202.1,370.2,194.5,367.8,191.2z"/>
		<path fill="#E8B576" d="M366.9,193.1c-2.9-4.2-6.6-6.5-8.5-7.3c-1.6-0.7-7.1-3.2-7.3-1.3c-0.6,5.1,9.2,21.7,15.7,17.8
			C369.8,200.4,369.1,196.2,366.9,193.1z"/>
		<path fill="#F9D9A2" d="M366.9,193.1c-2.9-4.2-6.6-6.5-8.5-7.3c-1.6-0.7-7.1-3.2-7.3-1.3c-0.6,5.1,9.2,21.7,15.7,17.8
			C369.8,200.4,369.1,196.2,366.9,193.1z M365,200.6c-3.7,0.4-6.8-3.7-8.5-6.3c-1.6-2.5-3.4-6.1-4.1-9.3c2.8,1.6,5.8,2.9,8.5,4.8
			C362.6,191.2,371.1,200,365,200.6z"/>
	</g>
	<path opacity="0.5" fill="#FFFFFF" d="M382.3,220.9c-0.8,0.7-0.4,2.1,0.6,2.4c7.2,2.1,15.7-0.2,23.3,1.4c4.4,0.9,8.3,3,12,5.4
		c3,2,4.7,4.3,8.4,5.1c1.3,0.3,2.8-0.6,2.7-2C427.2,217.9,393.7,211.3,382.3,220.9z"/>
	<path fill="#A91F24" d="M401.5,314.8c-10.2,11-15.4,13.7-23.7,18c-8.7,4.6-16.9,8.3-26.3,11.4c-8.3,2.8-17.1,4.4-25.6,6.3
		c-16.8,3.7-22.1-11.3-31.4-22c-8.7-10-18.1-19.2-27.9-28.2c-18.8-17.3-39.3-32.4-61-45.8c-21.3-13.1-43.7-24-65.9-35.4
		c-19.1-9.8-42.7-23.2-64.9-19.8c-0.8,0.1-0.7,1.4,0,1.6c10.2,2.8,20.4,5.3,30.3,9.1c11.6,4.5,22.6,10.7,33.5,16.5
		c21.2,11.3,42.5,22.3,62.8,35.1c21,13.3,40.3,28.5,58.4,45.4c8.9,8.3,17.4,17.1,25.4,26.3c6.3,7.2,11.9,17.3,20.8,21.6
		c2.5,1.7,5.4,3,8.8,3.7c9.5,2,21.2-2.3,30.2-4.8c10.8-3,21.1-7.5,30.5-13.4c8.5-5.4,20.2-13.3,24.9-22.4
		C400.9,317.1,402.2,314,401.5,314.8z"/>
	<g>
		<linearGradient id="SVGID_10_" gradientUnits="userSpaceOnUse" x1="257.9094" y1="175.5532" x2="241.6214" y2="84.1592">
			<stop  offset="0" style="stop-color:#4B7737"/>
			<stop  offset="0.1662" style="stop-color:#67933C"/>
			<stop  offset="0.3433" style="stop-color:#82AE3F"/>
			<stop  offset="0.4485" style="stop-color:#8DBC40"/>
			<stop  offset="1" style="stop-color:#8DBC40"/>
		</linearGradient>
		<path fill="url(#SVGID_10_)" d="M267.8,108c-4.8-11.3-11.8-23.4-21.6-31c-3.5-2.7-11.1-3.9-11.5,1.1
			c-12.4,34.2-19.5,92.3,27.7,101.5c0.6,0.1,1.3,0.1,1.9-0.3c8.8-4.9,11.1-17.7,12.1-26.8C278.1,137.8,273.5,121.4,267.8,108z"/>
		<path fill="#DBE57C" d="M253.5,129.6c-2.9-13.7-5.4-27.6-9.7-41c-0.1-0.4-0.7-0.2-0.6,0.2c3.7,26.5,11.4,52.4,15.4,78.8
			c0.1,0.8,1.3,0.5,1.3-0.2C261.3,155.2,256.1,141.6,253.5,129.6z"/>
		<path opacity="0.5" fill="#3B6631" d="M274.9,161.8c0.7-3.2,1.2-6.4,1.5-9.2c1.2-10.4-0.8-21.7-4-32.1c-0.8,0.9-1.3,2.1-1.4,3.6
			c-1.1,14.3-3.5,27.1-20.3,27.8c-12.8,0.5-20.3-10.9-22.9-22.2c-0.5-2.1-1.1-6.1-2.1-9.8c-1.2,18.6,2.1,36.9,14,48.5
			c7.6,3.2,15.7,2.9,21.4,10.2c0.3,0.4,0.7,0.8,1,1.1c0.1,0,0.1,0,0.2,0c0.6,0.1,1.3,0.1,1.9-0.3c2.8-1.5,4.9-3.9,6.5-6.6
			c-0.2-0.9-0.6-1.8-1.3-2.6c-1.2-1.5-2.3-2.8-3.4-4c0.7-0.2,1.3-0.4,2-0.6C270.8,164.6,273,163.3,274.9,161.8z"/>
		<linearGradient id="SVGID_11_" gradientUnits="userSpaceOnUse" x1="262.3738" y1="167.68" x2="332.9554" y2="161.648">
			<stop  offset="0" style="stop-color:#4B7737"/>
			<stop  offset="1" style="stop-color:#8DBC40"/>
		</linearGradient>
		<path fill="url(#SVGID_11_)" d="M312.5,154.8c-9-5.3-19.6-9.2-34.1-3.4c-16.2,6.4-26.6,21.3-10.2,29
			C283.8,187.7,346.3,174.9,312.5,154.8z"/>
		<path fill="#A8C15F" d="M314.3,162.7c-5.7-5.2-15.1-5.4-22.4-4.5c-8.6,1.2-19.1,3.9-25.5,10.2c-0.5,0.5,0.1,1.2,0.7,0.9
			c7.3-3.8,14.1-7.2,22.3-8.8c8.6-1.7,16.4-0.2,24.5,2.7C314.3,163.4,314.6,163,314.3,162.7z"/>
		<path opacity="0.5" fill="#3B6631" d="M302.8,174c-8.5,2.8-19.1,4.1-27.8,1.8c-9.2-2.4-10.8-11.5-3.7-18c5.1-4.6,10.7-7,17-9.1
			c-3.1,0.4-6.4,1.2-9.9,2.6c-16.2,6.4-26.6,21.3-10.2,29c13.8,6.4,64.7-2.9,52.1-19.2C324,166.9,310.4,171.5,302.8,174z"/>
		<linearGradient id="SVGID_12_" gradientUnits="userSpaceOnUse" x1="255.4972" y1="172.8162" x2="199.9982" y2="186.6914">
			<stop  offset="0" style="stop-color:#4B7737"/>
			<stop  offset="0.1125" style="stop-color:#5C873A"/>
			<stop  offset="0.3626" style="stop-color:#7EAA3E"/>
			<stop  offset="0.497" style="stop-color:#8DBC40"/>
			<stop  offset="1" style="stop-color:#8DBC40"/>
		</linearGradient>
		<path fill="url(#SVGID_12_)" d="M230.8,161c-17.1,4.3-28.9,14.6-41.7,25.6c-2.2,1.9-1.2,6.3,1.8,6.8c13.3,2.3,27.3,3.4,40.8,2.4
			c8.4-0.6,25.7-4.5,31.1-11.7C273,170.4,246.1,157.2,230.8,161z"/>
		<path fill="#DBE57C" d="M259.5,173.7c-8.1-4-19.8-3.8-28.4-2.3c-10.6,1.9-21.9,7.6-31,13.4c-0.2,0.1-0.1,0.5,0.2,0.4
			c8.1-3.1,18.4-8.6,27.9-10.9c10.7-2.6,21.4-1.5,30.9,1C259.9,175.5,260.3,174.1,259.5,173.7z"/>
		<path opacity="0.5" fill="#3B6631" d="M250.6,163.1c8.9,6.1,7.2,16.1-1.7,21.9c-17,11.1-37.2,5.4-55.7,8.7c12.7,2,25.8,3,38.5,2.1
			c8.4-0.6,25.7-4.5,31.1-11.7C269.2,175.6,261.2,167.3,250.6,163.1z"/>
	</g>
	<path opacity="0.5" fill="#F3CCB9" d="M282.7,281.9c-6-13.5-26.2-31.3-68.3-56.2c-10.6-6.3-35.8-21.1-43.5-30.9
		c-13.4-17.1-3-16.1,11.5-27.9c2.8-2.2,2-7.5-1.2-9c-5.9-2.8-12.4-1.6-18.8-0.6c-8.6,1.4-17.2,3.3-25.4,6.2
		c-13.4,4.8-50.7,25.3-31.7,32.6c11,4.2,29.3,12.3,38.8,16.9c27.6,13.4,54.7,27.8,80.5,44.3c10.3,6.6,42.7,38,55.4,32.3
		C283.3,288.1,284.2,285.3,282.7,281.9z"/>
	<g>
		<path fill="#C94031" d="M244.6,334.5c-9.3-13.6-22.1-27-37.2-33.9c-3.8-1.7-6.4,3.4-3.6,6c1.8,1.7,3.6,3.3,5.4,5
			c-3.8,0.6-6.9,4.8-3.7,8.4c17.9,20.3,30.8,44.1,47.2,65.5c3.3,4.3,10.3,1.4,9.7-3.9C260.4,363.4,254.9,349.6,244.6,334.5z"/>
		<path fill="#F06046" d="M258.1,385.3c-9.5-13.8-19.2-27.5-27.8-41.9c-7.9-13.3-15.2-26.8-23.6-39.8c-0.2-1.3-1-2.3-1.9-3
			c-0.2-0.3-0.3-0.5-0.5-0.8c-0.7-1.1-1.9-0.8-2.6-0.1c-1.6,0.1-3.1,0.9-3.8,2.7c-8.9,22.5-19.4,45.7-5.7,68.8
			c14.5,24.5,38.4,18.9,62.6,19.5C257.8,390.9,259.9,388,258.1,385.3z"/>
		<path opacity="0.5" fill="#FFFFFF" d="M214.8,381.6c-3.3-5.2-9-8.3-12.8-13.3c-4-5.4-6.2-12.6-7.6-19.1
			c-1.4-6.8-1.4-13.7-0.5-20.6c0.9-6.7,4.4-11.9,6.3-18.1c0.4-1.2-0.8-2.1-1.9-1.5c-12.4,7.1-12.2,28.8-10.6,40.9
			c1.6,12.2,9,36,24.1,36.6C214.6,386.7,216.3,384.1,214.8,381.6z"/>
		<path fill="#AD2925" d="M225.2,342.2c-3-5.4-7.2-13.1-10.4-18.4c-14.6-24.4-21.8,8.7-17.7,24.1c3,11.3,10.9,24.1,21.3,29.7
			c6.3,3.4,18.9,9.8,22.5,0.4C243.8,370.5,237.4,364,225.2,342.2z"/>
		<path fill="#AD2925" d="M212.7,330.4c-0.8,0.2-1.3,0.4-2,0.8c-1.9,1.2-1.2,4.2,0.6,5c0.4,0.2,0.9,0.3,1.3,0.4
			c1.7,0.3,3.3-1,3.6-2.6C216.4,332.1,214.7,329.9,212.7,330.4z"/>
		<path fill="#AD2925" d="M213.7,340.2c-0.8,0.3-1.6,0.7-2.1,1.5c-0.6,1-0.9,2.3,0,3.4c0.8,1,1.7,1.4,2.9,1.6
			c2.2,0.4,4.1-1.6,3.8-3.7C218,340.7,215.7,339.5,213.7,340.2z"/>
		<path fill="#AD2925" d="M221.8,350.6c-1.3-1.7-3.5-1.4-4.9-0.1c-0.6,0.6-0.8,1.3-1,2c-0.3,1.8,1.3,3.3,3,3.1
			c0.5-0.1,1-0.2,1.5-0.4C222.4,354.5,223,352.2,221.8,350.6z"/>
		<path fill="#AD2925" d="M227,358.2c-1.8-0.8-3.4,0.4-3.8,2.1c-0.4,1.4,0,2.6,0.8,3.8c0.3,0.5,1,0.7,1.5,0.6c1.7-0.3,2.3-1.5,3-2.9
			C229.1,360.5,228.4,358.8,227,358.2z"/>
		<path fill="#AD2925" d="M230.4,368.2c0.3,1.6,0.6,2.7,2,3.6c0.6,0.3,1.7,0.2,2.2-0.3c1.2-1.2,1.2-2.4,1.1-4
			C235.6,364.1,229.8,364.8,230.4,368.2z"/>
		<path fill="#EB2227" d="M255.2,386c-15.3,0.7-29.2,6.8-44.3,0.4c-10.2-4.3-15.7-14.3-18.9-24.2c-6.4-19.5-1.1-44,9.9-61
			c0.6-0.9-0.6-1.9-1.3-1.1c-15.9,17.4-19.4,44.1-13.3,66.4c8.3,30.2,43.7,36,69.6,25.4C260,390.5,258.5,385.8,255.2,386z"/>
		<path fill="#AC1F25" d="M248.2,333.5c-9.8-13-26.3-31.9-43.2-34.6c-0.8-0.1-1.1,1-0.4,1.3c14.4,6.5,24.9,15.4,35.1,28.9
			c5.7,7.6,14.2,20.4,17.4,29.4c3.5,9.7,4.8,20-2,27.5c-1.4,1.6,2.4,5.9,3.6,4.4C271.1,374.4,258.2,346.8,248.2,333.5z"/>
		<path fill="#C3996B" d="M214.4,333.2c-0.8-1.4-4.1-2-5.4-1.8c-1.4,0.3-2.9,1-2.7,2.6c0.1,1.7,2.3,2.3,3.7,2.2
			c1.1-0.1,4.3-0.9,4.6-2.1C214.6,333.8,214.5,333.5,214.4,333.2z"/>
		<path fill="#EDD2B3" d="M209.3,332.7c-0.6,0-1.1,0-1.6,0.2c-0.7,0.3-0.9,1.3-0.3,1.8c0.5,0.4,0.9,0.5,1.5,0.5
			C210.5,335.3,210.9,332.7,209.3,332.7z"/>
		<path fill="#C3996B" d="M233.1,374.4c2.8-0.5,2.3-5,1-7.1c-0.1-1.2-2-1.6-2.6-0.4C230.5,369,228.6,375.2,233.1,374.4z"/>
		<path fill="#C3996B" d="M223.3,366.3c3.2,0.1,5.4-5.1,3.1-7.3c-0.1-0.1-0.3-0.2-0.5-0.2c-0.4-0.2-0.9-0.2-1.3,0.2
			c-1.2,1.2-2.6,2.3-3.1,3.9C221.2,364.3,221.6,366.2,223.3,366.3z"/>
		<path fill="#C3996B" d="M214.4,355.7c2.2,2.6,7-0.7,6.9-3.5c0-0.2-0.1-0.4-0.3-0.5c-0.2-0.6-0.8-1-1.5-0.9
			C217.6,350.9,212,352.9,214.4,355.7z"/>
		<path fill="#C3996B" d="M215.8,344.6c1.3-0.8,0.5-2.5-0.7-2.7c-2.3-1.3-7.3-0.4-6.4,2.9C209.6,347.8,214.2,345.6,215.8,344.6z"/>
		<path fill="#EDD2B3" d="M233.9,372.1c0-0.3,0-0.6-0.1-0.9c-0.2-1.1-2-1.4-2.2-0.1c0,0.4-0.1,0.8-0.1,1.1
			C231.6,373.8,233.9,373.6,233.9,372.1z"/>
		<path fill="#EDD2B3" d="M224.8,364.6c0.4-0.8,0.9-2.6-0.5-2.8c-0.9-0.1-1.5,0.9-1.8,1.6C221.9,364.7,224.1,365.9,224.8,364.6z"/>
		<path fill="#EDD2B3" d="M217.1,356.1c0.6-0.3,1.2-0.7,1.5-1.4c0.3-0.8-0.3-1.6-1.2-1.5c-0.6,0.1-1.1,0.4-1.6,0.8
			C214.7,354.8,215.8,356.8,217.1,356.1z"/>
		<path fill="#EDD2B3" d="M211.1,345c0.6,0,1.1-0.2,1.6-0.4c0.8-0.3,0.7-1.4-0.1-1.6c-0.6-0.2-1.1-0.3-1.7-0.3c-0.5,0-1,0.5-1,0.9
			c0,0.2,0,0.4,0,0.6C210,344.8,210.6,345.1,211.1,345z"/>
		<path opacity="0.8" fill="#AD2925" d="M254.2,364.6c0.7-3.6-4.1-11.8-5.1-13.7c-1.9-3.9-22.9-36.5-28.2-35.3
			c-4.6,1.1,4.2,8.9,11.3,22.3c3.1,5.9,8.1,14.3,11.8,19.8c1.1,1.6,6.5,9.3,8.9,8.5C253.7,366,254.1,365.4,254.2,364.6z"/>
		<path fill="#AD2925" d="M206.4,358c-9.2-13.9-5.9-28.4-1.3-42.8c-7.9,0-11.1,21.3-8,32.8c3,11.3,10.9,24.1,21.3,29.7
			c5.4,2.9,15.4,8,20.4,3.5C224.7,377.2,214.8,370.6,206.4,358z"/>
	</g>
	<path opacity="0.7" fill="#FFFFFF" d="M165.4,160.8c-9.4-3.4-24.6,3.9-33.1,7.5c-8.3,3.5-26.4,10.8-24.6,22
		c0.2,1.6,2.2,2.9,3.7,2.8c4.8-0.3,6.8-3.3,10.2-6.4c4.5-4.1,10.3-7.1,15.8-9.8c5.7-2.8,11.7-5,17.8-6.9c4.1-1.3,8.2-2.2,11.3-5.3
		C167.8,163.4,167.1,161.4,165.4,160.8z"/>
</g>
</svg>
