<?xml version="1.0" encoding="utf-8"?>
<!-- Generator: Adobe Illustrator 18.0.0, SVG Export Plug-In . SVG Version: 6.00 Build 0)  -->
<!DOCTYPE svg PUBLIC "-//W3C//DTD SVG 1.1//EN" "http://www.w3.org/Graphics/SVG/1.1/DTD/svg11.dtd">
<svg version="1.1" id="Layer_1" xmlns="http://www.w3.org/2000/svg" xmlns:xlink="http://www.w3.org/1999/xlink" x="0px" y="0px"
	 viewBox="0 0 500 500" enable-background="new 0 0 500 500" xml:space="preserve">
<path fill="#010101" d="M315.2,30.9c31.1,0,43.6,20.7,43.6,54.6c-1.3,40.7-12.3,81.3-29.6,118.2c24.3,2.3,48.8,1.8,73.2,1.8
	c41.1,0,65.5,17,65.5,49.1c0.3,13-6.8,23.7-17,31.2l0.3,0.4c8.9,20.1,8.2,39.9-11.2,54.1l0.3,0.4c8.9,20.1,8.2,39.9-11.2,54.1
	l0.3,0.4c6.1,17,4.8,9.3,5.8,23c0,29.8-22.1,49.1-54.6,49.1h-65.5c-36.1,0-77.2-3.4-113.7-8.9c-9.4-1.5-18.8-3-28.1-5v3
	c0,6-4.9,10.9-10.9,10.9h-120c-6,0-10.9-4.9-10.9-10.9V194.6c0-6,4.9-10.9,10.9-10.9h120c6,0,10.9,4.9,10.9,10.9v1.9
	c23.9-14.4,41.4-37.3,58.9-58.6c4.6-6.1,8.9-12.8,13.3-20.3c6.1-10.6,26.6-52.3,31.7-60.6C287.6,40.5,298.8,30.9,315.2,30.9z
	 M53.4,205.5v240h98.2v-240H53.4z M315.2,52.7c-21.8,0-32.7,54.6-65.5,98.2c-20.2,27.7-44.5,51.2-73.2,70l-3.1,1.4v208.4
	c46.3,11.4,94.4,13,141.8,14.8c0,0,43.6,0,65.5,0c21.8,0,32.7-10.9,32.7-27.3c0-16.4-10.9-16.4-10.9-27.3s21.8-10.9,21.8-27.3
	c0-16.4-10.9-16.4-10.9-27.3s21.8-10.9,21.8-27.3s-10.9-16.4-10.9-27.3c0-10.9,21.8-10.9,21.8-27.3s-10.9-27.3-43.6-27.3
	c-76.4,0-109.1,0-98.2-21.8c11.9-23.8,32.7-76.4,32.7-120C337.1,63.6,332.3,52.7,315.2,52.7z"/>
</svg>
