<?xml version="1.0" encoding="utf-8"?>
<!-- Generator: Adobe Illustrator 18.0.0, SVG Export Plug-In . SVG Version: 6.00 Build 0)  -->
<!DOCTYPE svg PUBLIC "-//W3C//DTD SVG 1.1//EN" "http://www.w3.org/Graphics/SVG/1.1/DTD/svg11.dtd">
<svg version="1.1" id="Layer_1" xmlns="http://www.w3.org/2000/svg" xmlns:xlink="http://www.w3.org/1999/xlink" x="0px" y="0px"
	 viewBox="0 0 500 500" enable-background="new 0 0 500 500" xml:space="preserve">
<g>
	<circle fill="#FFFFFF" stroke="#010101" stroke-width="5" stroke-miterlimit="10" cx="105.1" cy="184.1" r="93.9"/>
	<circle fill="#FFFFFF" stroke="#010101" stroke-width="6" stroke-miterlimit="10" cx="132.4" cy="203.8" r="101.4"/>
	<circle fill="#FFFFFF" stroke="#010101" stroke-width="7" stroke-miterlimit="10" cx="162.7" cy="222" r="106"/>
	<path fill="#010101" d="M439.4,427.8c6.2,0,11.2-5,11.2-11.2V203c23-6.4,39.1-31.5,39.1-54.3c0-23.9-19-78.2-50.2-78.2
		c-31.3,0-50.2,54.3-50.2,78.2c0,22.8,16.1,47.9,39.1,54.3v213.7C428.2,422.8,433.2,427.8,439.4,427.8z M411.5,148.7
		c0-23,18.1-55.8,27.9-55.8c9.9,0,27.9,32.8,27.9,55.8c0,15.2-12.5,33.5-27.9,33.5C423.9,182.2,411.5,163.9,411.5,148.7z"/>
	<circle fill="#FFFFFF" stroke="#010101" stroke-width="7" stroke-miterlimit="10" cx="194.4" cy="244.7" r="110.5"/>
	<circle fill="#FFFFFF" stroke="#010101" stroke-width="7" stroke-miterlimit="10" cx="230.8" cy="268.9" r="113.5"/>
	<circle fill="#FFFFFF" stroke="#010101" stroke-width="7" stroke-miterlimit="10" cx="267.1" cy="296.1" r="119.6"/>
	<circle fill="#FFFFFF" stroke="#010101" stroke-width="7" stroke-miterlimit="10" cx="270.1" cy="302.2" r="59"/>
</g>
</svg>
