<?xml version="1.0" encoding="utf-8"?>
<!-- Generator: Adobe Illustrator 18.0.0, SVG Export Plug-In . SVG Version: 6.00 Build 0)  -->
<!DOCTYPE svg PUBLIC "-//W3C//DTD SVG 1.1//EN" "http://www.w3.org/Graphics/SVG/1.1/DTD/svg11.dtd">
<svg version="1.1" id="Layer_1" xmlns="http://www.w3.org/2000/svg" xmlns:xlink="http://www.w3.org/1999/xlink" x="0px" y="0px"
	 viewBox="0 0 500 500" enable-background="new 0 0 500 500" xml:space="preserve">
<g>
	<g>
		<path fill="none" stroke="#010101" stroke-width="10" stroke-miterlimit="10" d="M264.2,156.8V135c9.7-4.7,16.4-14.6,16.4-26
			c0-16-12.9-28.9-28.9-28.9c-16,0-28.9,12.9-28.9,28.9c0,11.5,6.7,21.4,16.4,26v21.6c3.7-0.2,7.4-0.3,11.2-0.3
			C255,156.4,259.6,156.5,264.2,156.8z"/>
		<path fill="none" stroke="#010101" stroke-width="10" stroke-miterlimit="10" d="M467.3,372.3H32.6c-12.5,0-22.5,10.1-22.5,22.5
			c0,12.4,10.1,22.5,22.5,22.5h434.7c12.5,0,22.5-10.1,22.5-22.5C489.8,382.4,479.7,372.3,467.3,372.3z"/>
		<path fill="none" stroke="#010101" stroke-width="10" stroke-miterlimit="10" d="M264.2,156.8c-4.6-0.3-9.2-0.5-13.8-0.5
			c-3.7,0-7.5,0.1-11.2,0.3c-113.9,5.8-204.5,100-204.5,215.4c171.9,0,275.1,0,431.4,0C466.1,257.6,376.9,164,264.2,156.8z"/>
	</g>
	<g>
		<path fill="none" stroke="#010101" stroke-width="10" stroke-miterlimit="10" d="M250.3,233.4c0.2,0,0.3,0,0.5,0
			c0.8,0,1.7-0.1,2.5-0.2c-0.4-2.2-1.9-10.7,0.2-20.9c-1.5-1.2-2.9-2.6-4.1-4.1c-0.6-0.8-0.5-1.9,0.2-2.6c2.4-2.3,5.3-4.2,8.3-5.6
			c1-1.8,2.1-3.6,3.4-5.4c1.3-1.8,0.7-4.1-1.2-5.2c-2-1.1-4.6-0.7-5.9,1.1c-12.2,16.6-10.8,35.2-9.7,42.1c1.9,0.5,3.7,0.8,5.3,0.8
			C250,233.4,250.1,233.4,250.3,233.4z"/>
		<path fill="none" stroke="#010101" stroke-width="10" stroke-miterlimit="10" d="M238.9,356.7c-1.3,3-3.2,7.4-2.7,8.2
			c0.1,0.3,0.6,0.7,1.1,0.8c0.5,0.1,1.3-0.1,1.8-0.4c0.5-0.3,4.8-4.5,6.8-4.5c2,0,4,4.9,4.3,5.5c0.3,0.5,0.9,0.9,1.3,0.8
			c0.8,0,1.1-0.3,1.4-0.7c0.4-0.4,4.7-4.7,5.9-4.7c1.3,0,4.8,3.5,5.5,4c0.7,0.5,1.2,0.5,1.7,0.5c0.1,0,0.3,0,0.4-0.1
			c0.6-0.1,0.9-0.4,1.1-1.1c0.3-1-0.4-3.9-1.1-6.7c-4.5-1.7-9.2-3.4-16.1-3.7C245.7,354.9,242.1,355.7,238.9,356.7z"/>
		<path fill="none" stroke="#010101" stroke-width="10" stroke-miterlimit="10" d="M326.3,248.2c-8.9-13.7-24.8-22.4-42-22.6
			c-11.8-0.2-23,6.3-31,7.6c-0.9,0.1-1.7,0.2-2.5,0.2c-0.2,0-0.3,0-0.5,0c-0.2,0-0.3,0-0.5,0c-1.6,0-3.4-0.3-5.3-0.8
			c-7.7-2-17.7-7.2-28.2-7c-17.2,0.2-33.1,8.9-42,22.6c-17.9,27.6-4.6,68.6,12.9,91c8.5,11,18.7,23.3,32.1,22.8
			c8.2-0.3,13.1-3.2,19.6-5.3c3.2-1,6.8-1.9,11.4-2.1c6.9,0.3,11.6,2,16.1,3.7c4.5,1.7,8.8,3.4,15,3.6c13.4,0.4,23.5-11.9,32.1-22.8
			C330.9,316.8,344.2,275.8,326.3,248.2z"/>
		<path fill="none" stroke="#010101" stroke-width="10" stroke-miterlimit="10" d="M249.5,208.3c1.2,1.5,2.5,2.8,4.1,4.1
			c2.1,1.7,4.5,3.2,7.2,4.5c5.8,2.7,12.7,4.2,19.4,4.2c12.3,0,24.2-4.2,31.9-11.2c0.9-0.8,0.9-2,0.1-2.8c-2.7-2.6-6.3-5-10.5-7
			c-6.5-3-13.8-4.7-20.6-4.8c-6.9-0.1-15.6,1.2-23.1,4.9c-3,1.5-5.9,3.3-8.3,5.6C249,206.4,248.9,207.5,249.5,208.3z"/>
	</g>
</g>
</svg>
