<?xml version="1.0" encoding="utf-8"?>
<!-- Generator: Adobe Illustrator 18.0.0, SVG Export Plug-In . SVG Version: 6.00 Build 0)  -->
<!DOCTYPE svg PUBLIC "-//W3C//DTD SVG 1.1//EN" "http://www.w3.org/Graphics/SVG/1.1/DTD/svg11.dtd">
<svg version="1.1" id="Layer_1" xmlns="http://www.w3.org/2000/svg" xmlns:xlink="http://www.w3.org/1999/xlink" x="0px" y="0px"
	 viewBox="0 0 500 500" enable-background="new 0 0 500 500" xml:space="preserve">
<g>
	<path fill="#A2B2B3" d="M456.4,209.8c-32.2-35.3-83.6-58.6-124.4-69.5c-15.9-4.3-32.4-6.7-48.7-8.6c-32.7-3.7-66.1-1.9-98.3,4.9
		c-32.7,6.9-65.3,21-93.4,39c-9.3,5.9-18.5,11.6-27.1,18.4c-2.3,1.8-4.8,4.3-7.1,7.1c-29.7,25.8-47.2,65.7-38.2,105
		c9.3,40.6,46.3,69.2,81,88c41.3,22.4,85.6,35.4,132.6,37.8c45.1,2.3,93.2-2.3,136.4-15.8c58.8-18.4,116.2-64,117.9-130.3
		C488,256.3,475.6,230.9,456.4,209.8z"/>
	<path fill="#F0F3F2" d="M456.4,200.1c-32.2-35.3-83.6-51.3-124.4-62.3c-15.9-4.3-32.4-6.7-48.7-8.6c-32.7-3.7-66.1-1.9-98.3,4.9
		c-32.7,6.9-65.3,13.8-93.4,31.7c-9.3,5.9-18.5,11.6-27.1,18.4c-2.3,1.8-4.8,4.3-7.1,7.1c-29.7,25.8-47.2,65.7-38.2,105
		c9.3,40.6,46.3,69.2,81,88c41.3,22.4,85.6,35.4,132.6,37.8c45.1,2.3,93.2-2.3,136.4-15.8c58.8-18.4,116.2-64,117.9-130.3
		C488,246.5,475.6,221.2,456.4,200.1z"/>
	<g>
		<path fill="#335027" d="M363.1,125.7L353,151.8c0,0-21.4-8.3-15.6-13.7C343.1,132.7,363.1,125.7,363.1,125.7z"/>
		<path fill="#335027" d="M349.3,103.7l-6.8,25.8c0,0-10.5,6.8-11.1-3.3C330.7,116.1,332.6,101.5,349.3,103.7z"/>
		<g>
			<g>
				<path fill="#72AE43" d="M205.6,188.7c-12.9,2.4-17,32,0.9,18c10.5-8,10.1,0.2,7.6,11.4c-2.1,10.1-0.6,10.6,11.2,11.4
					c7.8,0.1,10.3-2,17.6,3.4c5.5,3.6,3.2,24.9,24.6,5.2l6.9-52.7l-48.7-16L205.6,188.7z"/>
				<g>
					<path fill="#AE2826" d="M205.2,188.3c-5.6,1.3-9,6.2-10.7,11.4c-1.2,3.6-1.8,9.8,2.8,11.1c1.9,0.5,3.8-0.1,5.5-0.8
						c3.5-1.5,11.6-9.9,11.9-1.9c0.2,4.7-1.5,9.4-2.1,14.1c-0.3,2-0.2,4.6,1.7,5.8c7.3,4.5,16.9-0.4,24.3,3
						c6.3,2.8,5.9,8.3,9.6,13.2c2.8,3.8,7.6,2.9,11.3,1c1.9-1,3.5-2.3,5.2-3.5c0.8-0.6,3.7-2.5,3.8-3.4c0.1-1.2,0.3-2.3,0.5-3.5
						c2.2-16.4,4.3-32.8,6.5-49.2c0-0.2-0.3-0.4-0.4-0.4c-16.2-5.3-32.5-10.7-48.7-16c-0.3-0.1-1-0.2-1.3,0.1
						c-6.7,6.4-13.4,12.8-20.1,19.3c-0.6,0.6,1.2,0.9,1.6,0.5c3.7-3.5,7.3-7,11-10.6c2.3-2.1,4.5-4.3,6.7-6.5
						c0.6-0.6,1.3-1.2,1.9-1.8c0.9-0.9-1.4-0.5-0.6-0.2c11.1,3.6,22.1,7.3,33.2,10.9c4.8,1.6,9.5,3.1,14.3,4.7
						c1.3,0.4,0.5-0.4,0.4,0.6c-0.2,1.8-0.5,3.7-0.7,5.5c-1.7,13.2-3.5,26.5-5.2,39.7c-0.2,1.6-0.4,3.3-0.6,4.9
						c-0.3,2.1-0.7,2.2-2.6,3.8c-2.8,2.5-8.4,7.4-12.5,5.4c-2-1-3.1-3.5-3.9-5.5c-2-4.7-3.2-7.1-7.8-9.7c-2.4-1.3-5.1-1.6-7.8-1.5
						c-4.7,0.1-9.3,0.4-14-0.5c-3.5-0.6-4.1-3-3.8-6.1c0.4-4.4,1.8-8.6,2.1-13.1c0.4-5.1-2.5-7.2-7.1-5.1c-3.1,1.4-8,7.5-11.9,5.7
						c-2.3-1-2.1-4.5-2-6.5c0.5-5.8,4.5-12.8,10.5-14.1C207.3,188.9,205.8,188.2,205.2,188.3z"/>
				</g>
			</g>
			<path fill="#72AE43" d="M345.6,140.6c3.7-2.3,16.8-11.1,17.5-14.9c2-8.1-6.2-10.2-12.4-7.6c-5,2.5-8.4,11.2-14.2,3.5
				c-6.3-9.6,6.8-10,10.5-14c10-10.6-16.1-7-22.4-11.4c-7.9-6.7-1.6-16.8-16.7-17.7c-7.7-0.2-22.3,2.8-22.8,17.5l-2.4,32.6
				l31.4,26.1L345.6,140.6z"/>
			<path opacity="0.3" fill="#2E421E" d="M350.8,118.1c-3.5,1.7-6.3,6.6-9.6,6.6c0,0,0,0,0,0l-8,21.5l12.6-5.6
				c3.7-2.3,16.8-11.1,17.5-14.9C365.2,117.6,357,115.5,350.8,118.1z"/>
			<path opacity="0.3" fill="#2E421E" d="M299.2,120.6c-8-13.1-8.6-30.9-8.6-36.7c-3.1,2.7-5.2,6.5-5.4,12l-2.2,29
				C292.2,131.8,307.9,134.8,299.2,120.6z"/>
			<path opacity="0.3" fill="#2E421E" d="M335,116.1c1-4.5,9.3-5.4,12.1-8.5c10-10.6-16.1-7-22.4-11.4c-0.9-0.8-1.6-1.6-2.2-2.4
				c-0.2,0-0.3,0-0.3,0s1.6,10.1-4.4,24.3c-6,14.2,8.4,19.6,8.4,19.6S332,120.4,335,116.1z"/>
			<g>
				<path fill="#5D8C3E" d="M346,242.2c6.2,1.4,12.5,4.1,12.7,11.4c0.4,10.7-13,9.6-17.8,17.9c-7.3,14.1,13.8,30.3,21.7,16.4
					c2.4-5.2-2.2-9.3,2.3-15.1c4.5-5.8,9.5-4.8,13.5-0.8c5.6,5.1,0.6,12.1,11.9,9.9c5-1,19.2-10.8,22.6-18.1
					c0,0-15.6-27.9-40.8-40.1C347.1,211.4,346,242.2,346,242.2z"/>
				<g>
					<path fill="#335027" d="M345.8,242.6c6.1,1.4,11.5,4.2,12.1,11c0.4,5.2-3.6,8-7.7,10.1c-6.8,3.6-12.7,7.7-11.4,16.3
						c1.6,10.7,16.9,19.3,24.3,8.9c2.2-3.2,0.7-7.1,0.8-10.7c0-3.2,2.3-5.9,4.7-7.8c3.9-3.1,8.6,0.5,10.8,3.8c1.3,2,1.2,5.5,3.1,7.1
						c1.9,1.6,4.6,1.6,7,1.1c7.3-1.2,13.9-6.8,19.1-11.7c0.9-0.8,6.2-5.8,5.4-7.2c-0.8-1.4-1.7-2.7-2.5-4.1
						c-5.9-9-13-17.3-21.1-24.5c-7.4-6.6-18.2-14.9-28.7-14.8c-11.4,0.1-16.2,11.9-16.5,21.8c0,0.6,1.9,0.7,1.9,0.1
						c0.3-8.4,3.9-19.9,13.6-21.1c5.2-0.6,10.4,2.2,14.8,4.6c5.6,3.1,10.6,7.1,15.3,11.4c6.9,6.3,12.9,13.6,18.1,21.3
						c1.1,1.6,2.1,3.2,3.1,4.9c1,1.8-5.7,7.5-6.8,8.6c-3.3,2.9-6.9,5.5-10.8,7.6c-2.3,1.3-4.3,1.9-6.9,2.2c-3.9,0.4-4.3-2.2-5.1-4.8
						c-1.7-5.7-7.5-9.9-13.4-8.2c-3.5,1-6.1,4.9-6.9,8.3c-1.1,4.8,1.8,8.4-1.8,12.8c-5.6,6.8-14.7,0.4-18-5.3
						c-4.2-7.3-0.8-14.7,6-18.6c5.4-3.1,11.4-5.1,11.4-12.3c0-7.4-7.3-10.4-13.4-11.9C345.5,241.7,344.5,242.3,345.8,242.6z"/>
				</g>
			</g>
			<path fill="#BCD862" d="M362.4,235.7c5.5,4.3,21.8,20,40.1,22.6c16.1,2.2-46.7-48.2-55.4-22.8c-0.9,3.7-1,6.7-1,6.7
				S356.8,231.4,362.4,235.7z"/>
			<path fill="#4B7737" d="M411.1,161.6l-11.7,33.5c0,0-28-2.3-19.3-16.6C388.8,164.2,411.1,161.6,411.1,161.6z"/>
			<path fill="#4B7737" d="M447.9,216.3L407.2,250c0,0-12.3-33.3,5.7-36.8C430.8,209.7,447.9,216.3,447.9,216.3z"/>
			<path fill="#3A5B2B" d="M421.9,292.4l-34.7-6c0,0,8.7-27.8,29.8-22.9C438.2,268.6,421.9,292.4,421.9,292.4z"/>
			<path fill="#335027" d="M429.7,348.1c-0.1-1.5-0.4-3-0.9-4.4c-0.3-1-16.9-27.6-8.3-26.7c9.9,1,16.8,9.7,20-5.8
				c6.8-32.5-44-46.1-63.1-26.7c-12.7,12.9-19.3,32.7-21.2,50.3c-0.7,6-2.6,21.7,2.2,26.4c11.7,11.5,24.6-5.9,34-9.4
				c9.8-3.8,16.6,5.1,24.8,8.5C426.5,364.3,430.5,356.6,429.7,348.1z"/>
			<path fill="#3A5B2B" d="M421.9,292.4l-34.7-6c0,0,8.7-27.8,29.8-22.9C438.2,268.6,421.9,292.4,421.9,292.4z"/>
			<path opacity="0.5" fill="#214497" d="M403.8,289.7c-3.7-4.2-3.8-10.6-7.7-14.7c-5-5.3-14-6.7-20-11c-6.1-4.4-11.9-8.8-16-15.2
				c-2.7-4.2-7.9-9.4-13.3-11.8c-0.6,3-0.7,5.2-0.7,5.2c6.2,1.4,12.5,4.1,12.7,11.4c0.4,10.7-13,9.6-17.8,17.9
				c-1.2,2.3-1.6,4.7-1.5,7c0.5,0.8,1.1,1.7,1.6,2.4c3.2,4.6,7,8.5,11.2,12.1c3.9,0.7,7.8-0.6,10.4-5.1c2.4-5.2-2.2-9.3,2.3-15.1
				c4.5-5.8,9.5-4.8,13.5-0.8c3.2,2.9,2.9,6.4,4.2,8.5c-1.9,1.2-3.7,2.5-5.3,4.1c-5.2,5.3-9.3,11.7-12.6,18.7
				c1.2,0.9,2.3,1.9,3.5,2.9c4.7,4,9.8,9.8,16.1,11.1c6.1,1.3,12.9,0.5,19.2,1.6c7.1,1.3,10.4-3.5,10.6-10.6
				C414.3,301.4,408,294.5,403.8,289.7z"/>
			<path fill="#BCD862" d="M427.7,281.2c-2-7.7-7-16.2-12.8-21.7c-1.9-1.8-5.2-4.8-8-4.9c-2.5-0.1-4.2,4.1-3.4,4.2
				c6,0.4,3.1,9.8,2.2,13.4c-1,4.4-2.1,10.6,0.2,14.9c2.5,4.7,8.4,5.6,13.1,5.4C426.8,292,429.9,289.5,427.7,281.2z"/>
			<path fill="#8DBC40" d="M389.3,247.2c-0.3,13.1,28,3.3,20.7,25.3c-2.9,8.9-6.9,12.9,4.6,18c9.3,3.7,24.4,2.1,29.5-7.5
				c10.8-20.9-17.6-30.9-28.5-41.7c-4.4-4.7-10.4-14.6-3.3-20.2c5.7-5.4,17.3,1.7,24.8,0.9c15.3-2.3,19.5-21.3,5.4-28.6
				c-12.7-7.5-24.1,15.2-30.7,9.1c-3-3,2-36.3-13.2-18.2c-4.1,4.6,2,9.9-6.9,7c-8.7-3.5-7-12.9-2.1-17.8c7.7-7.4,26.4-3.9,20.4-19.7
				c-6.6-16-37.5-8.4-31.3,0.9l-13.7,15.6l4.3,33.6l-1.7,20.2L389.3,247.2z"/>
			<path opacity="0.3" fill="#2E421E" d="M395.9,192.1c-0.8,0.1-2-0.2-4-0.8c-6.2-2.5-7.1-7.9-5.4-12.6l-14.7,21l10.7,9.5
				L395.9,192.1z"/>
			<path opacity="0.3" fill="#2E421E" d="M393.2,242.9l16.7-19.2c0,0,0.1,0.1,0.2,0.1c0.5-0.9,1.3-1.8,2.3-2.6
				c5.7-5.4,17.3,1.7,24.8,0.9c15.3-2.3,19.5-21.3,5.4-28.6c-12.7-7.5-24.1,15.2-30.7,9.1l-26.6,34.3L393.2,242.9z"/>
			<path fill="#72AE43" d="M335.3,243.4c9.4,6.1,11.9-3.3,16.6-8.4c7.8-7.1,13.8-1.5,21.4,4.6c4.5,4.5,12.9,13.9,20.1,6.6
				c8.5-9.3-5.5-12.7-10.6-15.5c-10.7-5.9-7.6-9.7,1-14.1c8.1-4.6,10.3-7.5,1.6-15.8c-5.3-6-14.3-7.7-13.5-17.7
				c1-8.7,10.6-10.4,13.1-18c3-11.1-16.5-22.5-27.4-8.7l-36-4.9L295,195.2l7,40.4L335.3,243.4z"/>
			<path opacity="0.5" fill="#2E421E" d="M385.5,200.9c-5.3-6-14.3-7.7-13.5-17.7c0.1-0.9,0.3-1.7,0.6-2.5c0,0-0.1,0-0.1,0
				c0,0-10.1,13.1-14.9,20.4c0.3,0.4,0.7,0.9,1,1.4c2.4,3.6,2.8,6.7,1.3,9.5c0.1,0,0.1,0,0.1,0S349,232.8,341,241.3
				c-0.4,0.5-0.9,0.8-1.4,1c0.1,1.2,0.3,2.3,0.9,3.1c5.5,0.4,7.8-6.4,11.5-10.4c5.8-5.3,10.6-3.5,15.8,0.2c2.8-3.5,5.7-7.9,8.7-13
				l0,0c1-1.9,3.7-3.7,7.5-5.6C392.1,212.1,394.2,209.2,385.5,200.9z"/>
			<path opacity="0.3" fill="#2E421E" d="M360,211.9c0,0-11.1,20.9-19.1,29.4c-8.3,8.9-27.8-23.8-18.5-27.9
				C331.7,209.3,360,211.9,360,211.9z"/>
			<path opacity="0.3" fill="#2E421E" d="M359.4,157.3c0,0-10.2,17.5-20.5,24.7c-10.3,7.3-29.2-21.2-13.3-25.9
				C341.6,151.4,359.4,157.3,359.4,157.3z"/>
			<path fill="#BCD862" d="M328.1,220.2c0,0,2-3.1,13.7-1.2c11.8,1.9,19.1-3.1,19.1-9.1C360.9,204,317.5,208.8,328.1,220.2z"/>
			<path fill="#BCD862" d="M345.7,172.8c0,0,2.4,5.5-3.4,11c-5.8,5.5-11.6,11.1-5.7,15c5.9,3.9-2.6,7.3-3.5,7.5
				c-0.8,0.2-9.7-16.3-9.7-16.3L345.7,172.8z"/>
			<path fill="#BCD862" d="M340.3,160.4c0,0-12-0.5-14,5.6c-2,6,3.1,8.7,5.8,9.3c2.8,0.7-3.8,6.4-5.3,6.4c-1.5,0-10.9-15.1-3.2-21.2
				C331.4,154.5,340.3,160.4,340.3,160.4z"/>
			<path fill="#4B7737" d="M326.5,219.5c8.8-6.7,20.8,2.6,29.5-3.6c5.4-3.6,6.3-8.2,2.7-13.6c-4.4-6.9-9.4-4.3-15.8-3.4
				c-12.8,2.4-17.2-4.5-5.5-12.7c8.1-6.4,13.3-18.5,0.5-14.3c-5.2,1.3-6.1,7.6-11.4,1.7c-4.5-4.5-1.5-10.1,2.8-12.3
				c7.4-4.2,23,3.3,29.1-2.5c7.2-7.3-8.6-17.9-15.3-19.5c-9.4-2.5-19.4-1.6-18-15c0.7-9.4,5-15.2-9.7-18.3c-8-1.4-15,1.7-16.4,9.7
				l-17,13.2l-8,16.7l17.5,23.6c0,0-0.2,35.1-1.5,36.1c-1.3,1,8,26.9,8,26.9L326.5,219.5z"/>
			<path fill="#335027" d="M337.2,186.4c0.1,0,0.1-0.1,0.1-0.1c8.1-6.4,13.3-18.5,0.5-14.3c-5.2,1.3-6.1,7.6-11.4,1.7
				c-4.5-4.5-1.5-10.1,2.8-12.3c7.4-4.2,23,3.3,29.1-2.5c7.2-7.3-8.6-17.9-15.3-19.5c-8.9-2.4-18.2-1.7-18.1-12.7c0,0-0.1,0-0.1,0
				l-29.1,87.5C295.8,214.2,304.6,221.7,337.2,186.4z"/>
			<path fill="#4B7737" d="M356,216c5.4-3.6,6.3-8.2,2.7-13.6c-4.4-6.9-9.4-4.3-15.8-3.4c-12.8,2.4-13.2-5.4-5.5-12.7
				c8.1-6.4,13.3-18.5,0.5-14.3c-5.2,1.3-6.1,7.6-11.4,1.7c-2.4-2.3-2.7-4.9-1.8-7.3L307,208.3c0,0,1.2,4.9,13.6,13.9l5.8-2.6
				C335.3,212.8,347.3,222.2,356,216z"/>
			<path fill="#335027" d="M333,192.2c0.8-1.8,2.3-3.9,4.4-5.9c8.1-6.4,13.3-18.5,0.5-14.3c-3.9,1-5.4,4.7-8.1,4.1l-16.6,37.4
				l8.6,3.8l10.9-25.1L333,192.2z"/>
			<path fill="#335027" d="M301.4,120.9c0,0-22.1,5.9-25.7,23.9c-0.2,1-0.3,1.9-0.3,2.7l10.4,14.1c6,2.6,12.4,3.1,12.4,3.1
				L301.4,120.9z"/>
			<path fill="#BCD862" d="M275.7,144.8c-0.2,1-0.3,1.9-0.3,2.7l6.2,8.3c4-0.4,7.3-1.4,4.9-3.6c-4.9-4.2-7.2-14.2,4.2-18.7
				c8.3-3.3,10.2-8.5,10.6-11.1l0.1-1.6c0,0-5.3,2.4-10.8,4.8C284.5,129.4,277.6,135.5,275.7,144.8z"/>
			<path fill="#335027" d="M226.6,125.7l8,41.9c0,0,29.4-8.2,25.2-36.6C257.5,115.6,226.6,125.7,226.6,125.7z"/>
			<path fill="#4B7737" d="M191.6,131.7l11.8,36.2c0,0,14.8-21.9,9.4-28.6C207.5,132.6,191.6,131.7,191.6,131.7z"/>
			<path fill="#4B7737" d="M249.4,83.4l3.6,36.2c0,0,17.7,5.5,16.2-10.2C267.8,93.7,249.4,83.4,249.4,83.4z"/>
			<path fill="#4B7737" d="M188.9,163.1l-0.3,14.1C188.5,177.2,204.5,179.8,188.9,163.1z"/>
			<path fill="#8DBC40" d="M275,98c-2.7-6.3-19-38.6-25.4-17.2c-3.4,10.3,26.2,28.5,5.8,33.8c-6,1.7-35.2-6.7-30,8.8
				c4.4,12.3,19.7-6.8,27.4,6.6c4.6,8.1-3.1,5.6-4.7,12.3c-0.5,5.3,5.8,7.9,2.8,13.6c-7.9,13.1-25-2.8-28.1-9.8
				c-4.9-8.9-11.1-22.9-24.3-19.5c-18.8,4.1,5.8,11.6,8,15.9c4.6,9.9-15.5,10.6-17.7,18.9c-1.2,5.6,3,13,5.9,17l1.2,1
				c9.7,23.7,42.8-2.8,59.6,12.4l22.3,5.1l15.3-30.1l-17.3-15.1l1.7-18.7l13-11.1l-10-13.2L275,98z"/>
			<path fill="#759C3F" d="M271.8,106.6l3.1,25.8c0,0,13.1,1.3,11.6-9.1C284.9,112.9,271.8,106.6,271.8,106.6z"/>
			<path fill="#759C3F" d="M262.6,109.5c0,0-0.1,0-0.2,0c-0.5,2.2-2.6,4-7.1,5.2c-6,1.7-35.2-6.7-30,8.8c4.4,12.3,19.7-6.8,27.4,6.6
				c4.6,8.1-3.1,5.6-4.7,12.3c-0.5,4.6,4.4,7.3,3.5,11.7c0.4,0.1,0.7,0.2,1,0.3c5.7,0.9,7,0.7,8.4-11.4
				C262.2,130.8,262.6,109.5,262.6,109.5z"/>
			<path opacity="0.3" fill="#2E421E" d="M258.6,188c-1.5-25.1-4.3-50.9-4.6-53.1c-0.7,2.6-4.9,2.7-6,7.5c-0.3,3,1.6,5.2,2.8,7.5
				c0.3,0.6,0.6,1.3,0.8,2.2c2.1,9.6,0.9,32.3,0.9,32.3s0.8,3.2,1.9,6.7c0.3,0.2,0.6,0.5,0.9,0.7l3.5,0.8
				C258.7,191.3,258.7,189.8,258.6,188z"/>
			<path fill="#466D34" d="M260,193.1c0,0-6.6-4.5-4.1-1.2l21.7,5l15.3-30.1l-17.3-15.1c-7.7,0.1-16.5,8.5-21.2,16.8L260,193.1z"/>
			<path opacity="0.3" fill="#2E421E" d="M194.1,155.7c0.1,0.2,0.2,0.4,0.3,0.5c23.4,38.9,31.2,31.6,32.4,28
				c1.2-3.6-4.9-37.8-4.2-38.1c-4.9-8.9-11.1-22.9-24.3-19.5c-18.8,4.1,5.8,11.6,8,15.9C209.6,149.6,200.5,152,194.1,155.7z"/>
			<path opacity="0.5" fill="#642C1C" d="M209.9,166.8c0,0,7.1-1.6,15.8,5.2c0,0,17.4,7.8,27.1,2.5c0,0-0.1,13.3-2,11.4
				C248,183,205,187.9,209.9,166.8z"/>
			<path fill="#759C3F" d="M207,145L207,145c0.4,7.6-16.4,8.9-18.3,16.4c-1.1,4.8,1.9,11,4.6,15.2c4.2,1,16.5,9,18,4.9
				C215.2,171.5,207,145,207,145z"/>
			<path opacity="0.5" fill="#642C1C" d="M212.3,176.7c0.2-2.3,0.1-4.9-0.2-7.6c-0.6,0.8-2.1,1.9-6.1,1.6
				c-6.4-0.5-13.4,3.5-13.4,3.5s17.2,4,19.1,3C212,177.2,212.1,177,212.3,176.7z"/>
			<path fill="#8DBC40" d="M261.3,211.9c-3.9,24.6-5.9,43.8,21.1,55.2c4.7,2.1,15.4,6.3,16.8-1.7l-0.4,1.1
				c-2.2-9.8,14.8-8.4,20.2-10.2c12.5-3.1,18.6-16.2,14.7-28.3c-5.5-18.1-16.7-6.1-28.8-9.5c-11.1-3-5.7-15.7-0.1-21.7
				c12.4-12.2,21.2-33.4-3.8-39.8c-8.3-2.1-18.8-1.4-20.3-13.3c-1.9-12.7,11.7-10,17.7-17.1c7.9-9.5-5.3-16.8-12.2-12.4l-1.1-0.4
				c-0.2-3.1,2.5-5.8,3.2-9.8c0.7-4,4.3-5.8-0.8-8.7c-4-2.5-10.5,0.8-12.7,3.7c-9.2,11.4,6.2,12.3,6.2,21.3
				c0.2,8.5-14.5,7.3-16.8,16.2c-0.9,4.5,2.9,9.4,1,13.6c-1.4,4.4-5.8,4.7-8.3,8.7c-1.4,2.5-5,9.8-0.5,12.5c5.1,2.9,4.9-3.8,7.6-6.6
				c5.2-6.7,17.7-8,14.3,4.1c-2.7,10-15.7,9.3-20.4,16.2c-6.3,8.2,3.2,19.7-10,23.2c-12.5,3.1-20.1-12-31.7-9.8
				c0,0,12.8,6,14.7,10.6c0,0,7.9,9,20.5,5.3L261.3,211.9z"/>
			<path opacity="0.5" fill="#642C1C" d="M281.7,179.5c0,0,3.7,9.8,12.1,11.2c8.4,1.5,12.1,5.3,6.2,9.3
				C294.1,204,271.6,197,281.7,179.5z"/>
			<path opacity="0.3" fill="#2E421E" d="M299.6,205.4c1.2-3.3,3.2-6.4,5.3-8.7c12.4-12.2,21.2-33.4-3.8-39.8
				c-6.6-1.7-14.6-1.6-18.4-7.5l0,0c0,0,5.9,20.5,3.4,41.1C285.1,198.7,291.2,203.8,299.6,205.4z"/>
			<path opacity="0.5" fill="#214497" d="M314.1,183.8c-4.2-0.3-6.9-0.7-8.5,3.8c-1,2.9-0.7,7.2,0.3,10.2
				c1.7,5.3,18.2,37.8,25.5,24.5c1.8-3.3-1.4-5.8-2.6-8.5c-1.5-3.7-1.7-11.5,1.5-14.5c-19.1-0.8-14.3-28-25.9-37.9
				c-1.2-1.1-11.5-8.1-12.7-6.4c-7.3,10.3,0,30.7,7.4,38.8c1.5,1.6,3.3,2.9,5.2,3.5c0.2-0.2,0.3-0.4,0.5-0.6
				c3.7-3.7,7.2-8.2,9.4-12.8L314.1,183.8z"/>
			<path fill="#BCD862" d="M313.7,163.7c1.6,2.9,5.4,11.8-2.2,21.9c-9.4,12.4-11.6,13.3-11.6,13.3s0.8,0.8,2.1,1.6
				c0.9-1.4,1.9-2.8,3-3.9C314.3,187.4,321.7,173,313.7,163.7z"/>
			<path opacity="0.3" fill="#2E421E" d="M258.5,157c0.7,4.3,2.1,8,3.9,10.7c0.5-1.1,1-2.3,1.8-3.1c4-5.1,12.2-7.1,14.3-2.4
				c2-3.8,2.3-8.3,4.2-12.8c-1-1.5-1.7-3.4-2-5.9c-0.6-4.4,0.6-7,2.7-8.7c-0.5-8.5-2.3-14.6-2.3-14.6c0.2,8.5-14.5,7.3-16.8,16.2
				c-0.9,4.5,2.9,9.4,1,13.6C264.2,153.6,261,154.4,258.5,157z"/>
			<path fill="#759C3F" d="M279,163.5c0.3,1.4,0.2,3.1-0.4,5.2c-2.7,10-15.7,9.3-20.4,16.2c-4.6,6-0.8,13.8-3.6,18.9
				c10.2,0.5,25.3-5.4,26.9-11.1c2.5-9.1-2.2-29.4-2.2-29.4S279.1,163.4,279,163.5z"/>
			<path opacity="0.5" fill="#642C1C" d="M281.4,192.8c0.5-1.8,0.7-4,0.7-6.4c-12.3-3-22.3,1.1-22.3,1.1c5,8.2,12.3,10.2,18.2,9.4
				C279.8,195.6,281,194.2,281.4,192.8z"/>
			<g>
				<path fill="#BAAE9B" d="M257.4,203.2c0.5,0.2,2.7-0.1,1.6-0.4C258.6,202.6,256.3,202.9,257.4,203.2L257.4,203.2z"/>
			</g>
		</g>
		<path fill="#BCD862" d="M258.1,184.9c-0.4,0.5-0.7,1-1,1.5c1.4,1.9,2.5,3.4,2.5,3.4s-2-6.8,10.8-11c12.8-4.2,8.5-15.3,8.5-15.3
			c0.3,1.4,0.2,3.1-0.4,5.2C275.8,178.7,262.8,178,258.1,184.9z"/>
		<g>
			<polygon fill="#759C3F" points="281.9,147.8 281.9,147.8 281.9,147.8 			"/>
		</g>
		<path fill="#759C3F" d="M266,147.2c0,0.9-0.1,1.8-0.6,2.7c-1.4,4.4-5.8,4.7-8.3,8.7c-1.4,2.5-5,9.8-0.5,12.5
			c5.1,2.9,4.9-3.8,7.6-6.6c1.3-1.7,3.1-3,4.9-3.9c-0.9-6.5-2.9-13.5-2.9-13.5C266.1,147.2,266.1,147.2,266,147.2z"/>
		<path fill="#759C3F" d="M298.4,126.4c7.9-9.5-5.3-16.8-12.2-12.4l-1.1-0.4l3.2,18.5C291.9,130.7,295.9,129.5,298.4,126.4z"/>
		<path fill="#BCD862" d="M275,98.8c-5.7,7.2-1.9,10.2,1.8,13.6c-3.7-5.9-3.4-9.7,2.4-14.5c5.3-4.4,10.3-0.7,11.1-0.1
			c-0.2-0.9-0.9-1.7-2.6-2.7C283.7,92.6,277.1,95.9,275,98.8z"/>
		<path fill="#BCD862" d="M264.5,136.3c-0.5,2.7,0.6,5.6,1.2,8.3c0-0.1,0.1-0.2,0-0.4c-0.4-2.6-3.1-10.2,7.8-14
			c7.4-2.6,8.3-6.3,8.1-8.4c-0.2-1.1-0.4-1.6-0.4-1.6C281.4,128.7,266.8,127.5,264.5,136.3z"/>
		<path fill="#BCD862" d="M265.4,149.9c-1.4,4.4-5.8,4.7-8.3,8.7c-1.4,2.5-5,9.8-0.5,12.5c-1.7-1.4-1.4-10.8,3.5-13.9
			C265.1,154.2,265.4,149.9,265.4,149.9z"/>
		<path fill="#BCD862" d="M262.4,109.7c0.1,0,0.2-0.1,0.2-0.2c2.1-2.3-0.6-9.1-6.1-16.5c-5.5-7.4-5.5-9.4-4.1-14.6
			c1.3-4.9,7.5-2.8,8.1-2.6c-4.2-3.5-8.3-3.5-10.9,5C246.9,88.9,264.6,101.9,262.4,109.7z"/>
		<path fill="#BCD862" d="M227.8,127c-1.1-1.7-2.4-4.6-1.2-8.2c1.9-5.7,26-3.7,26-3.7l-0.4-0.2c-9.5-0.3-31.3-5-26.8,8.6
			C225.9,125.2,226.8,126.3,227.8,127z"/>
		<path fill="#BCD862" d="M198.3,126.7c-6.1,1.3-7.6,3-6.8,4.8c0.1,0.1,0.1,0.2,0.1,0.2s6.8-4.7,14.5-2.8
			c7.6,1.9,16.6,17.3,16.6,17.3C217.7,137.3,211.5,123.2,198.3,126.7z"/>
		<path fill="#BCD862" d="M188.7,161.5c-0.5,2.4-0.1,5.1,0.9,7.7c0.2-3.2-1-10.1,10.4-14.6c9.3-3.7,7.1-9.6,7.1-9.6l0,0
			C207.5,152.7,190.6,153.9,188.7,161.5z"/>
		<path fill="#BCD862" d="M326.3,115.2c0.1-4.2-1.7-7.1-10.8-9c-8-1.4-15,1.7-16.4,9.7c0,0,4.8-9.3,13.4-8.5
			C320.5,108.2,325.6,114.3,326.3,115.2z"/>
		<path fill="#BCD862" d="M324.7,96.2c-7.9-6.7-1.6-16.8-16.7-17.7c-7.3-0.2-20.9,2.5-22.6,15.4c0.1,0.1,0.2,0.2,0.2,0.3
			c0,0,6.5-14.4,18.5-14c12,0.5,12.2,2,14.7,10.3c2.5,8.2,12.2,10.7,22.5,9C335.4,98.6,327.8,98.3,324.7,96.2z"/>
		<g>
			<path fill="#BCD862" d="M335,116.1L335,116.1L335,116.1C335,116.1,335,116.1,335,116.1z"/>
			<path fill="#BCD862" d="M350.8,118.1c-5,2.5-8.4,11.2-14.2,3.5c-1.2-1.8-1.7-3.2-1.7-4.5c-0.2,2.5-0.1,8.8,5.4,8.9
				c6.8,0.1,7.8-7.8,18.8-8.4C356.6,116.7,353.5,117,350.8,118.1z"/>
		</g>
		<path fill="#BCD862" d="M343.2,139.4c-6.3-1.7-12.8-1.8-16-5.7c-0.2,0-0.3-0.1-0.3-0.1s1.2,4.6,8.1,5.6c6.8,1,24.6,6.6,24.5,18
			c0,0.1,0,0.3,0,0.4C363.9,150.5,349.5,140.9,343.2,139.4z"/>
		<path fill="#BCD862" d="M389.5,212.7c0,0.1,0,0.1-0.1,0.1c2.9-3,2.2-6.1-3.9-12c-5.3-6-14.3-7.7-13.5-17.7c0.5-4.4,3.3-7,6.2-9.5
			c0-0.1-0.1-0.1-0.1-0.1s-13.8,8.8-6.8,17.1C378.2,198.8,392.1,206.2,389.5,212.7z"/>
		<g>
			<path fill="#BCD862" d="M415.6,241.3c-3.7-4-8.5-11.6-5.7-17.2c-1,1.9-5.3,12.2,8.7,22.2c15.5,11.1,35,22.1,20.8,41.2
				c-0.4,0.6-0.8,1.1-1.1,1.6c2.4-1.5,4.5-3.4,5.8-5.9C455,262.2,426.6,252.2,415.6,241.3z"/>
			<path fill="#BCD862" d="M410.1,223.8c0,0,0,0.1-0.1,0.1C410,223.9,410.1,223.8,410.1,223.8z"/>
		</g>
		<path fill="#BCD862" d="M398.7,166.5c-13.3,3.2-14.1,10.9-13.4,14.7c0.1,0.3,0.2,0.5,0.5,0.6c0.3-3,1.9-6.1,4-8.3
			c7.7-7.4,26.4-3.9,20.4-19.7C410.1,153.7,411.9,163.2,398.7,166.5z"/>
		<path fill="#BCD862" d="M437.2,222c15.3-2.3,19.5-21.3,5.4-28.6c0,0,9.8,7.2,5.1,18.5c-4.7,11.3-13.8,9-22.9,6.3
			c-9-2.6-12.5,2.8-12.5,2.8C418.1,215.8,429.6,222.9,437.2,222z"/>
	</g>
	<g>
		
			<linearGradient id="SVGID_1_" gradientUnits="userSpaceOnUse" x1="72.6332" y1="292.3055" x2="384.2769" y2="292.3055" gradientTransform="matrix(0.9898 0.1426 -0.1426 0.9898 45.3193 -26.1352)">
			<stop  offset="0" style="stop-color:#B04926"/>
			<stop  offset="0.3705" style="stop-color:#C35B34"/>
			<stop  offset="1" style="stop-color:#F18360"/>
		</linearGradient>
		<path fill="url(#SVGID_1_)" d="M388,276l-6.8-0.4c-14.3-27.8-57-43.6-111.2-60.7c-79.2-24.9-164.3-21.3-186.8,39.7
			c-0.7,1.9-1.3,3.8-1.9,5.6l-3.7-0.2l-1.8,26.2l0,0c-3.3,39.3,18.8,69.4,69.1,85.2c7.2,2.3,14.9,4.2,23.3,5.9
			c53.9,10.8,91,4.2,129.4-16.9c43.1-0.6,71.4-4.2,83.7-37.4c2.9-7.8,4.5-15,5-21.6l0,0L388,276z M144.8,371.5l0.3-0.9l0,0
			L144.8,371.5z"/>
		<g>
			<g>
				<path fill="#F7C5C4" d="M271.5,188.3C200.9,166,110,163,86.2,227.4c-20.9,56.5,0.2,96.5,60.9,115.6c7.1,2.2,14.9,4.2,23.1,5.8
					c50.9,10.2,88.1,5.3,128.5-16.7l0.3-0.2l0.3,0c42-0.6,70.4-3.5,82.8-36.8C404.2,235.2,350.2,213,271.5,188.3z"/>
				<g>
					<path fill="#CC582F" d="M146.8,343.9l0.6-1.8c7.1,2.2,14.8,4.2,22.9,5.8c50.5,10.1,87.5,5.3,127.6-16.6l0.5-0.3l0.7,0
						c41.5-0.6,69.6-3.4,81.7-36.3c10.2-27.7,4.9-48.5-16.8-65.6c-21.2-16.7-57.5-28.9-92.9-40.1c-41.2-13-81.5-17.3-113.3-12.3
						c-36,5.7-60.4,23.3-70.6,50.9c-10.1,27.3-10.3,51-0.5,70.2c10,19.8,30.4,34.6,60.6,44.1L146.8,343.9L146.8,343.9z M146.7,343.9
						c-63.1-19.9-82-62.1-61.7-116.9c22.5-61,107.6-64.6,186.8-39.7c79.2,24.9,133.8,47.1,111.3,108.1
						c-12.3,33.3-40.7,36.8-83.7,37.4c-38.5,21-75.5,27.6-129.4,16.9C161.7,348.2,153.9,346.2,146.7,343.9L146.7,343.9z"/>
				</g>
			</g>
			<path fill="#FFFFFF" d="M207.9,249.4c-7.6-9.2-21-13.2-29.7-9c-8.8,4.2-9.7,15.1-2,24.2c7.6,9.2,21,13.2,29.7,9
				C214.6,269.4,215.5,258.5,207.9,249.4z"/>
			<g>
				<g>
					<defs>
						<path id="SVGID_2_" d="M204,251.3c-5.8-6.9-15.8-9.9-22.4-6.8c-6.6,3.2-7.3,11.4-1.5,18.3c5.8,6.9,15.8,9.9,22.4,6.8
							C209,266.3,209.7,258.2,204,251.3z"/>
					</defs>
					<clipPath id="SVGID_3_">
						<use xlink:href="#SVGID_2_"  overflow="visible"/>
					</clipPath>
					<polygon clip-path="url(#SVGID_3_)" fill="#AA2C35" points="176.4,239.3 212.6,245.5 207.6,274.7 171.4,268.5 					"/>
					<path clip-path="url(#SVGID_3_)" fill="#AA2C35" d="M200.8,257.6c-1.7-13.1-10-24.6-18.5-25.6c-8.5-1-14.1,8.8-12.4,21.9
						c1.7,13.1,10,24.6,18.5,25.6C196.9,280.5,202.4,270.7,200.8,257.6z"/>
					<path clip-path="url(#SVGID_3_)" fill="#AB2E35" d="M200.3,257.6c-1.6-12.7-9.7-23.9-18-24.8c-8.3-1-13.7,8.5-12,21.2
						c1.6,12.7,9.7,23.9,18,24.9C196.6,279.8,202,270.3,200.3,257.6z"/>
					<path clip-path="url(#SVGID_3_)" fill="#AC2F35" d="M199.9,257.5c-1.6-12.3-9.4-23.1-17.4-24.1c-8-1-13.3,8.3-11.7,20.6
						c1.6,12.4,9.4,23.2,17.4,24.1C196.2,279.1,201.5,269.9,199.9,257.5z"/>
					<path clip-path="url(#SVGID_3_)" fill="#AD2F36" d="M199.4,257.5c-1.5-12-9.1-22.5-16.9-23.4c-7.8-0.9-12.9,8-11.3,20
						c1.5,12,9.1,22.5,16.9,23.4C195.9,278.4,201,269.4,199.4,257.5z"/>
					<path clip-path="url(#SVGID_3_)" fill="#AE3036" d="M199,257.4c-1.5-11.6-8.8-21.7-16.4-22.7c-7.6-0.9-12.5,7.8-11,19.4
						c1.5,11.6,8.8,21.8,16.4,22.7C195.6,277.7,200.5,269,199,257.4z"/>
					<path clip-path="url(#SVGID_3_)" fill="#AF3136" d="M198.6,257.3c-1.5-11.2-8.6-21-15.9-21.9c-7.3-0.9-12.1,7.5-10.6,18.7
						c1.5,11.3,8.5,21.1,15.9,21.9C195.2,277,200,268.6,198.6,257.3z"/>
					<path clip-path="url(#SVGID_3_)" fill="#B03136" d="M198.1,257.3c-1.4-10.8-8.3-20.3-15.3-21.2c-7.1-0.8-11.7,7.3-10.3,18.1
						c1.4,10.9,8.3,20.4,15.3,21.2C194.9,276.3,199.5,268.2,198.1,257.3z"/>
					<path clip-path="url(#SVGID_3_)" fill="#B13236" d="M197.7,257.2c-1.4-10.5-8-19.6-14.8-20.5c-6.8-0.8-11.3,7-9.9,17.5
						c1.3,10.5,8,19.6,14.8,20.5C194.6,275.6,199,267.7,197.7,257.2z"/>
					<path clip-path="url(#SVGID_3_)" fill="#B23336" d="M197.2,257.2c-1.3-10.1-7.7-18.9-14.3-19.7c-6.6-0.8-10.9,6.8-9.6,16.9
						c1.3,10.1,7.7,18.9,14.3,19.7C194.2,274.9,198.5,267.3,197.2,257.2z"/>
					<path clip-path="url(#SVGID_3_)" fill="#B33437" d="M196.8,257.1c-1.2-9.7-7.4-18.2-13.7-19c-6.3-0.8-10.5,6.5-9.2,16.2
						c1.3,9.7,7.4,18.3,13.7,19C193.9,274.2,198,266.9,196.8,257.1z"/>
					<path clip-path="url(#SVGID_3_)" fill="#B43537" d="M196.3,257.1c-1.2-9.4-7.1-17.5-13.2-18.3c-6.1-0.7-10.1,6.3-8.9,15.6
						c1.2,9.4,7.1,17.5,13.2,18.3C193.6,273.4,197.5,266.4,196.3,257.1z"/>
					<path clip-path="url(#SVGID_3_)" fill="#B53537" d="M195.9,257c-1.2-9-6.8-16.8-12.7-17.5c-5.9-0.7-9.7,6-8.5,15
						c1.2,9,6.8,16.8,12.7,17.6C193.2,272.7,197.1,266,195.9,257z"/>
					<path clip-path="url(#SVGID_3_)" fill="#B73637" d="M195.5,257c-1.1-8.6-6.5-16.1-12.1-16.8c-5.6-0.7-9.3,5.8-8.1,14.4
						c1.1,8.6,6.5,16.1,12.1,16.8C192.9,272,196.6,265.6,195.5,257z"/>
					<path clip-path="url(#SVGID_3_)" fill="#B73736" d="M195,256.9c-1.1-8.2-6.3-15.4-11.6-16.1c-5.4-0.6-8.9,5.5-7.8,13.7
						c1.1,8.2,6.3,15.4,11.6,16.1C192.6,271.3,196.1,265.2,195,256.9z"/>
					<path clip-path="url(#SVGID_3_)" fill="#B83837" d="M194.6,256.9c-1-7.9-6-14.7-11.1-15.3c-5.1-0.6-8.4,5.3-7.4,13.1
						c1,7.9,6,14.7,11.1,15.4C192.3,270.6,195.6,264.7,194.6,256.9z"/>
					<path clip-path="url(#SVGID_3_)" fill="#BA3937" d="M194.1,256.8c-1-7.5-5.7-14-10.6-14.6c-4.9-0.6-8,5-7.1,12.5
						c1,7.5,5.7,14,10.6,14.6C191.9,269.9,195.1,264.3,194.1,256.8z"/>
					<path clip-path="url(#SVGID_3_)" fill="#BB3938" d="M193.7,256.8c-0.9-7.1-5.4-13.3-10-13.9c-4.6-0.6-7.6,4.8-6.7,11.9
						c0.9,7.1,5.4,13.3,10,13.9C191.6,269.2,194.6,263.9,193.7,256.8z"/>
					<path clip-path="url(#SVGID_3_)" fill="#BC3B38" d="M193.2,256.7c-0.9-6.7-5.1-12.6-9.5-13.2c-4.4-0.5-7.2,4.5-6.4,11.3
						c0.9,6.8,5.1,12.6,9.5,13.2C191.3,268.5,194.1,263.5,193.2,256.7z"/>
					<path clip-path="url(#SVGID_3_)" fill="#BD3B38" d="M192.8,256.7c-0.8-6.4-4.8-11.9-9-12.4c-4.1-0.5-6.8,4.3-6,10.6
						c0.8,6.4,4.8,11.9,9,12.4C190.9,267.8,193.6,263,192.8,256.7z"/>
					<path clip-path="url(#SVGID_3_)" fill="#BE3C38" d="M192.4,256.6c-0.8-6-4.6-11.2-8.5-11.7c-3.9-0.5-6.4,4-5.7,10
						c0.8,6,4.6,11.2,8.5,11.7C190.6,267.1,193.1,262.6,192.4,256.6z"/>
					<path clip-path="url(#SVGID_3_)" fill="#BF3C39" d="M191.9,256.6c-0.7-5.6-4.3-10.5-7.9-11c-3.7-0.4-6,3.8-5.3,9.4
						c0.7,5.6,4.3,10.5,7.9,11C190.3,266.4,192.7,262.2,191.9,256.6z"/>
					<path clip-path="url(#SVGID_3_)" fill="#BF3D39" d="M191.5,256.5c-0.7-5.2-4-9.8-7.4-10.2c-3.4-0.4-5.6,3.5-4.9,8.7
						c0.7,5.2,4,9.8,7.4,10.2C189.9,265.7,192.2,261.7,191.5,256.5z"/>
					<path clip-path="url(#SVGID_3_)" fill="#C13E39" d="M191,256.4c-0.6-4.9-3.7-9.1-6.9-9.5c-3.2-0.4-5.2,3.3-4.6,8.1
						c0.6,4.9,3.7,9.1,6.9,9.5C189.6,265,191.7,261.3,191,256.4z"/>
					<path clip-path="url(#SVGID_3_)" fill="#C23F39" d="M190.6,256.4c-0.6-4.5-3.4-8.4-6.3-8.8c-2.9-0.3-4.8,3-4.3,7.5
						c0.6,4.5,3.4,8.4,6.3,8.8C189.3,264.2,191.2,260.9,190.6,256.4z"/>
					<path clip-path="url(#SVGID_3_)" fill="#C23F38" d="M190.2,256.3c-0.5-4.1-3.1-7.7-5.8-8c-2.7-0.3-4.4,2.8-3.9,6.9
						c0.5,4.1,3.1,7.7,5.8,8C189,263.5,190.7,260.5,190.2,256.3z"/>
					<path clip-path="url(#SVGID_3_)" fill="#C34038" d="M189.7,256.3c-0.5-3.7-2.9-7-5.3-7.3c-2.4-0.3-4,2.5-3.5,6.2
						c0.5,3.8,2.8,7,5.3,7.3C188.6,262.8,190.2,260,189.7,256.3z"/>
					<path clip-path="url(#SVGID_3_)" fill="#C54139" d="M189.3,256.2c-0.4-3.4-2.6-6.3-4.8-6.6c-2.2-0.3-3.6,2.3-3.2,5.6
						c0.4,3.4,2.6,6.3,4.8,6.6C188.3,262.1,189.7,259.6,189.3,256.2z"/>
					<path clip-path="url(#SVGID_3_)" fill="#C64339" d="M188.8,256.2c-0.4-3-2.3-5.6-4.2-5.8c-2-0.2-3.2,2-2.8,5
						c0.4,3,2.3,5.6,4.2,5.9C188,261.4,189.2,259.2,188.8,256.2z"/>
					<path clip-path="url(#SVGID_3_)" fill="#C64339" d="M188.4,256.1c-0.3-2.6-2-4.9-3.7-5.1c-1.7-0.2-2.8,1.8-2.5,4.4
						c0.3,2.6,2,4.9,3.7,5.1C187.6,260.7,188.7,258.8,188.4,256.1z"/>
					<path clip-path="url(#SVGID_3_)" fill="#C74339" d="M188,256.1c-0.3-2.2-1.7-4.2-3.2-4.4c-1.5-0.2-2.4,1.5-2.1,3.7
						c0.3,2.3,1.7,4.2,3.2,4.4C187.3,260,188.2,258.3,188,256.1z"/>
					<path clip-path="url(#SVGID_3_)" fill="#C94439" d="M187.5,256c-0.2-1.9-1.4-3.5-2.6-3.7c-1.2-0.2-2,1.3-1.8,3.1
						c0.2,1.9,1.4,3.5,2.6,3.7C187,259.3,187.8,257.9,187.5,256z"/>
					<path clip-path="url(#SVGID_3_)" fill="#C94539" d="M187.1,256c-0.2-1.5-1.2-2.8-2.1-2.9c-1-0.1-1.6,1-1.4,2.5
						c0.2,1.5,1.1,2.8,2.1,2.9C186.6,258.6,187.3,257.5,187.1,256z"/>
					<path clip-path="url(#SVGID_3_)" fill="#CA453A" d="M186.6,255.9c-0.2-1.1-0.9-2.1-1.6-2.2c-0.7-0.1-1.2,0.8-1.1,1.9
						c0.1,1.1,0.8,2.1,1.6,2.2C186.3,257.9,186.8,257.1,186.6,255.9z"/>
					<path clip-path="url(#SVGID_3_)" fill="#CB463B" d="M186.2,255.9c-0.1-0.7-0.6-1.4-1.1-1.5c-0.5,0-0.8,0.5-0.7,1.3
						c0.1,0.8,0.6,1.4,1.1,1.5C186,257.2,186.3,256.6,186.2,255.9z"/>
					<path clip-path="url(#SVGID_3_)" fill="#CC473A" d="M185.7,255.8c-0.1-0.4-0.3-0.7-0.5-0.7c-0.2,0-0.4,0.3-0.3,0.6
						c0,0.4,0.3,0.7,0.5,0.7C185.6,256.5,185.8,256.2,185.7,255.8z"/>
				</g>
			</g>
			<g>
				
					<linearGradient id="SVGID_4_" gradientUnits="userSpaceOnUse" x1="185.8138" y1="349.5018" x2="260.2482" y2="268.7595" gradientTransform="matrix(0.9898 0.1426 -0.1426 0.9898 45.3193 -26.1352)">
					<stop  offset="0" style="stop-color:#F2696A"/>
					<stop  offset="0.4465" style="stop-color:#F4817C"/>
					<stop  offset="1" style="stop-color:#F7A299"/>
				</linearGradient>
				<path fill="url(#SVGID_4_)" d="M173.5,301.9c-0.3-0.6-0.5-1.1-0.6-1.7c-0.1-0.6-0.2-1.2-0.2-1.8c-0.2-0.4-0.4-0.8-0.5-1.2
					c-0.2-0.4-0.3-0.8-0.4-1.1c-3.1-5.6-4.4-15.9,5.5-17.6c0.4-0.4,0.7-0.7,1.1-1c0.4-0.3,0.8-0.5,1.2-0.7c1-0.4,3,0.6,4,0.9
					c2,0.5,4.1,0.9,6.1,1.1c2.8,0.3,5.6,0.2,8.3,0.6c3.1,0.4,6.2,1,9.3,1.6c0.7,0.2,1.4,0.3,2.1,0.5c0.7,0.2,1.4,0.3,2.1,0.5
					c0.8,0.6,1.6,1.1,2.4,1.4c7.1,3.9,13,1.8,20.8,4.3c0.7,0.1,1.5,0.1,2.3,0.2c4.7-0.7,10.7-1.3,16.7,0.1c0.9,0.2,1.7,0.4,2.6,0.7
					c7,2.1,12.3,1.8,19.1,5.7c0.5,0.5,1,1.1,1.4,1.9c0.7,0.5,1.4,0.9,2.1,1.4c2,1.4,3.9,2.9,5.6,4.2c0.5,0.5,0.9,1,1.4,1.5
					c0.4,0.5,0.9,1,1.3,1.5c1.8,2.2,3.5,4.5,4.3,6.9c0.8,2.4,0.5,4.5,0.1,6.8c-0.4,2-0.4,4.2,0.9,6.2c0.7,1.1,0.4,1-1.1,1
					c-1.5,0-3.1,0.7-4.3,1.3c-3.6,1.9-8,3.2-12.1,4.6c-0.5,0.2-1.1,0.4-1.6,0.6c-5,7.3-10.9,9.3-19.6,8.4c-0.8,0.1-1.7,0.1-2.6,0.1
					c-20.4,10.5-46.9,6.1-69.9,1.7c-0.8-0.1-1.6-0.3-2.5-0.4c-2.5-0.5-4.9-0.9-7.4-1.5c-1.2-0.3,0.4-5.4,0.5-5.9
					c0.4-2.3,0.6-4.5,0.7-6.8c0-0.6,0.1-1.1,0.1-1.7c-0.5-2.2-0.5-4.2-0.2-6c0.1-0.6,0.2-1.2,0.3-1.8c-2-5.6,2.2-10.1,0.6-14.4
					C173.3,303.5,173.4,302.8,173.5,301.9z M266.7,294.1c2.1,2.3,6.7,3.7,8.2,5.8c0.6,0.5,1.2,1.1,1.7,1.7c0.3,0.6,0.7,1.2,0.9,1.8
					c0.2,0.4,0.4,0.8,0.5,1.2c0.2,0.4,0.3,0.8,0.4,1.3c-2.2,4.7,6.3,9.3,2.8,14.6c-0.1,0.7-0.2,1.4-0.2,2c0.1,1.1,2,0.8,2.4,0.1
					c0.5-0.8,0.7-1.8,0.7-2.9c0-0.6-0.1-1.1-0.2-1.7c1.4-4.6-4.8-8.5-3.9-11.9c-0.1-0.4-0.3-0.9-0.4-1.3c-0.5-1.3-1-2.7-1.7-3.9
					c-0.4-0.6-0.7-1.2-1.2-1.8c-0.4-0.8-0.8-1.5-1.3-2.1C274,296,271.4,289.3,266.7,294.1C268.1,294.6,265.7,293.8,266.7,294.1z"/>
				
					<linearGradient id="SVGID_5_" gradientUnits="userSpaceOnUse" x1="227.5415" y1="461.2004" x2="275.8202" y2="408.8304" gradientTransform="matrix(0.9449 0.3271 0.3271 -0.9449 -123.557 595.5229)">
					<stop  offset="0" style="stop-color:#F2696A"/>
					<stop  offset="0.4465" style="stop-color:#F4817C"/>
					<stop  offset="1" style="stop-color:#F7A299"/>
				</linearGradient>
				<path fill="url(#SVGID_5_)" d="M296.4,268.9c1.9,1.7,1,4.1,0.1,5.7c-1.4,2.6-3.2,4.8-4.2,7.6c-0.8,2.3-1.2,4.8-2.4,6.9
					c-1,1.8-3.4,4.4-6.4,3.5c-1.3-0.4-2.6-1.6-3.8-2.1c-1.6-0.8-3.3-1.4-5.1-1.9c-3.8-1.1-7.7-1.8-11.6-2.3
					c-0.8-0.1-1.5-0.2-2.3-0.3c-6.9-4.3-13.5-0.4-19.2-2c-0.7,0-1.3-0.1-2-0.1c-3.3-0.2-6.4-0.5-8.5-0.8c-0.7,0.1-1.4,0.1-2.1,0.1
					c-0.8-0.1-1.6-0.1-2.3-0.3c-5.4-0.8-10.2-3.3-11.4-9.3c-0.2-0.5-0.4-1.1-0.5-1.6c-0.4-2.2,0.3-4.7,2.2-7.1
					c0.2-0.8,0.4-1.6,1.1-2c0.6-0.4,1.4-0.8,2.1-1.1c0.4-0.3,0.8-0.6,1.2-0.8c0.4-0.3,0.9-0.5,1.3-0.7c6-0.3,10.2-4.9,14.7-6.2
					c0.5-0.4,0.9-0.8,1.4-1.2c0.5-0.4,1-0.9,1.5-1.3c0.7-0.3,1.3-0.6,1.8-0.9c0.6-0.4,1-0.8,1.5-1.2c4.4-7-2.2-17,8.2-19.6
					c0.3-0.6,0.6-1.1,1-1.5c1.2-1.3,2.8-2,4.6-2.3c0.6-0.1,1.3-0.2,1.9-0.2c8-1,16.5,3.6,23.8,6.3c0.7,0.4,1.3,0.8,1.9,1.3
					c0.6,0.2,2.1,0.4,2.5,0.9c0.7,0.8-0.1,2.5-0.4,3.2c-0.5,1.5-0.9,3-1.3,4.6c-0.1,0.5-0.2,1-0.3,1.5c-0.5,1.8-0.4,3.5,0,5.3
					c0.1,0.6,0.3,1.1,0.5,1.7c3.2,4.7,3.5,10.7,8.4,16c0.3,0.4,0.7,0.7,1,1.1C295.7,268.2,296,268.5,296.4,268.9
					C298.4,270.7,295.2,267.7,296.4,268.9z"/>
				
					<linearGradient id="SVGID_6_" gradientUnits="userSpaceOnUse" x1="96.8621" y1="393.9338" x2="133.5033" y2="354.1875" gradientTransform="matrix(0.9449 0.3271 0.3271 -0.9449 -123.557 595.5229)">
					<stop  offset="0" style="stop-color:#F2696A"/>
					<stop  offset="0.4465" style="stop-color:#F4817C"/>
					<stop  offset="1" style="stop-color:#F7A299"/>
				</linearGradient>
				<path fill="url(#SVGID_6_)" d="M104.2,251.8c7.4-1,10.1,5.8,14.6,8.8c0.4,0.5,0.7,1.1,0.9,1.7c0.3,0.6,0.5,1.2,0.7,1.8
					c0.3,0.5,0.6,1.1,0.8,1.6c0.7,1.7,1.1,3.6,1.2,5.9c0,0.6,0,1.2-0.2,1.8c-0.2,0.6-0.4,1.3-0.8,1.9c-0.1,0.4-0.1,0.8-0.2,1.2
					c-0.5,1.9-1.3,3.8-2.4,5.5c-0.2,0.6-0.4,1.2-0.7,1.8c-0.3,0.6-0.6,1.2-1,1.8c-0.4,0.6-0.7,1.2-1.1,1.8c-1.4,3.7-6.6,4-6.6,8.5
					c-0.4,0.6-0.8,1.2-1.2,1.7c-2.2,3.5-3.4,7.3-1.7,11.9c-0.1-0.2-0.7-0.6-0.9-0.8c-1-1-1.9-1.9-2.8-3c-2.6-2.9-4.9-6-6.8-9.2
					c-3.8-6.3-6.7-13.1-7.5-19.8c-0.2-1.9,1.1-3.8,1.7-5.5c1.2-3.2,2-6.4,3-9.7c0.1-0.5,0.3-1,0.5-1.5c0.2-0.6,0.5-1.1,0.7-1.7
					c1.1,1.2,1.8-0.6,2.2-3.4c0.4-0.5,0.9-1,1.4-1.4c0.5-0.4,1.1-0.8,1.7-1.1c1.4-1,1.4-1,2.7-0.8
					C102.3,251.6,102.7,251.7,104.2,251.8z"/>
				
					<linearGradient id="SVGID_7_" gradientUnits="userSpaceOnUse" x1="308.4634" y1="447.7071" x2="346.3119" y2="406.6512" gradientTransform="matrix(0.9449 0.3271 0.3271 -0.9449 -123.557 595.5229)">
					<stop  offset="0" style="stop-color:#F2696A"/>
					<stop  offset="0.4465" style="stop-color:#F4817C"/>
					<stop  offset="1" style="stop-color:#F7A299"/>
				</linearGradient>
				<path fill="url(#SVGID_7_)" d="M301.7,324c-2.3-1.1-3-3.5-2.6-5.3c0.7-2.6,0.6-5.1-0.3-7.9c-0.8-2.4-2.2-4.6-3.8-6.8
					c-1.6-2-5-4.7-5.2-7.1c-0.1-0.9,1.3-1.2,2-1.6c1.2-0.8,2.3-1.8,3-2.9c1.8-2.5,2.4-5.5,3.4-8.4c1.7-4.6,4.4-8.9,11-9
					c14.9-0.2,24.5,11,36.7,16.9c2.6,1.3,5.3,2.4,8.2,3.4c0.6,0.2,1.1,0.4,1.7,0.6c2.3,0.9,4.6,1.6,6.4,4.8c0.4,0.8,0.7,1.5,0.8,2.2
					c1.4,5.5-3.6,7.8-9.8,12.5c-0.2,0.6-0.6,1.2-1,1.6c-3.7,4.1-13.9,1.3-20.1,5.7c-0.3,0.3-0.6,0.6-0.9,0.9
					c-5.8,5.5-13.3,5.7-23.9,1.3c-0.6,0.1-1.2,0.1-1.9,0.1C304.4,324.9,303.2,324.7,301.7,324C300.4,323.3,302.5,324.4,301.7,324z"
					/>
				
					<linearGradient id="SVGID_8_" gradientUnits="userSpaceOnUse" x1="299.5924" y1="493.5494" x2="354.6822" y2="433.791" gradientTransform="matrix(0.9449 0.3271 0.3271 -0.9449 -123.557 595.5229)">
					<stop  offset="0" style="stop-color:#F2696A"/>
					<stop  offset="0.4465" style="stop-color:#F4817C"/>
					<stop  offset="1" style="stop-color:#F7A299"/>
				</linearGradient>
				<path fill="url(#SVGID_8_)" d="M342.2,284.6c-5.5-3.6-10.6-7.8-16.6-10.8c-3-1.5-6.3-2.8-9.7-3.5c-2.9-0.6-6.1-0.3-8.9-1.2
					c-2.3-0.7-4.6-3-6.1-4.5c-0.4-0.3-0.7-0.6-1-1c-0.3-0.3-0.7-0.7-1-1c-0.7-0.4-1.3-0.8-1.9-1.3c-4-2.7-5-7-6-9.8
					c-0.1-0.6-0.1-1.2-0.1-1.9c0.1-2.5,0.9-5,2.4-7.4c0.1-0.3,0.4-0.8,0.7-1.4c0.6-7.4,11.8-9.8,20.6-5.7c0.8,0,1.7-0.1,2.5-0.1
					c1.7-0.1,3.4-0.1,5.1,0c0.6,0,1.1,0.1,1.7,0.1c13.6,0,5.4-12.4,12.7-16.2c0.6-0.4,1.3-0.8,2.2-1.1c2.9-1,4.9,7.5,12.6,9.9
					c0.7,0.4,1.4,0.9,2.1,1.3c3.5,2.2,6.7,4.6,9.5,7.3c7.7,7.4,11.1,17.3,11.6,26.3c0,0.6,0.1,1.2,0,1.9c0,0.6,0,1.3-0.1,1.9
					c0.7,6.1,1.7,11.5,0.2,15.7c-0.2,0.6-0.5,1.2-0.8,1.7c-4.4,2.9,0.6,10.4-7.6,11.7c-5.2,0.3-11.5-3.6-15.2-6.1
					c-0.8-0.3-1.6-0.7-2.3-1.1C346.5,287.2,344.3,286,342.2,284.6C334.7,279.6,347.7,288.3,342.2,284.6z"/>
				
					<linearGradient id="SVGID_9_" gradientUnits="userSpaceOnUse" x1="193.346" y1="258.0679" x2="277.8429" y2="166.4104" gradientTransform="matrix(0.9898 0.1426 -0.1426 0.9898 45.3193 -26.1352)">
					<stop  offset="0" style="stop-color:#F2696A"/>
					<stop  offset="0.4465" style="stop-color:#F4817C"/>
					<stop  offset="1" style="stop-color:#F7A299"/>
				</linearGradient>
				<path fill="url(#SVGID_9_)" d="M312.5,230.1c-8.8,6.4-15.3-3.6-22.1-2.8c-0.6-0.2-1.3-0.4-1.9-0.7c-1.9-0.7-3.8-1.4-5.7-2.2
					c-0.8-0.3-1.5-0.6-2.3-0.9c-0.6-0.2-1.1-0.5-1.7-0.7c-0.6-0.3-1.1-0.5-1.7-0.8c-1.2-0.3-5.8-1.7-9.1-2.4c-0.7,0-1.4,0.1-2.2,0.3
					c-0.7,0-1.3,0-2,0c-2,0-4,0.2-5.9,0.6c-0.7,0.2-1.5,0.4-2.2,0.6c-4.8-1.3-2.1,5.4-5.7,3c-0.5,0.4-1,0.8-1.5,1.3
					c-0.5,0.4-0.9,0.9-1.3,1.3c-0.4,0.5-0.8,0.9-1.2,1.4c-4.8,4.4-6.8,9.6-8.6,15.5c0,0.7-0.1,1.4-0.3,2c-0.7,2.6-2.3,4.8-4,6.6
					c-0.4,0.5-0.9,0.9-1.4,1.3c-2,2.9-3-1.3-5.4,0.6c-0.7-0.2-1.4-0.4-2.1-0.7c-3.5-1.4-6.9-4-9.7-6.6c-0.5-0.5-1-0.9-1.4-1.4
					c-0.5-0.5-0.9-0.9-1.3-1.4c-0.6-0.6-1.1-1.2-1.6-1.7c-0.5-0.6-1.1-1.2-1.6-1.7c-1.7-0.3-3.1-0.7-4.5-1.2c-0.7-0.3-1.3-0.5-2-0.8
					c-7.8,2.7-13.7-9-24-5.2c-1,0.2-1.8-0.4-2.4-1.3c-0.6-0.9-1-1.9-1.3-2.5c-1.1-2.5-1.5-5.2-1.6-7.7c-0.2-2.9,0-5.7,0.8-8.5
					c0.9-2.8,3.1-5,5.8-6.8c0.5-0.4,1-0.7,1.5-1.1c0.2-0.8,0.3-1.5,0.5-2.2c0.2-0.7,0.4-1.3,0.6-1.9c0.2-0.6,0.5-1.2,0.7-1.7
					c0.3-0.5,0.5-1,0.8-1.5c1.2-1.9,2.8-3.4,5.1-4.8c0.6-0.4,1.2-0.7,1.8-1c8.4-4.7,10-16,23.8-10.8c0.8,0.1,1.5,0.2,2.3,0.3
					c6.9,0.9,13.7,2.1,20.5,3.2c7.8,1.3,15.4,2.6,22.9,5.1c4.4,1.5,8.8,3.1,13.1,4.8c4.5,1.7,9.1,3.1,13.7,4.6
					c0.8,0.3,1.6,0.5,2.4,0.8c6.5,2.2,11.1,3.6,18.9,6.2c0.8,0.3,1.6,0.5,2.4,0.8c1.6,0.5,3.1,1,4.7,1.6c1.9,0.6,3.7,1.2,5.5,1.9
					c0.6,0.2,1.2,0.5,1.8,0.7c1.8,1.1,3.6,3.3,4.8,5.7c0.3,0.6,0.5,1.2,0.7,1.8c0.4,5.5-0.9,9.1-6.1,10.4c-0.6,0-1.2,0.1-1.8,0.1
					c-1.2,0-2.5,0.1-3.8,0.1c-0.6,0-1.3,0.1-3.4,0.3C313.6,229.9,313.6,229.9,312.5,230.1z M309.7,214.8c-6.4,1.8-13.9,1.4-21.2,0.8
					c-0.7-0.2-1.4-0.5-2-0.7c-3.4,1.2-6.7-3.8-10.3-1c4.6,1.4,6.9,2.2,10.6,3.2c0.7,0.3,1.5,0.5,2.3,0.7c8.5,0.8,15.3,3,20.8-1.5
					C310.7,215.8,310.9,215.2,309.7,214.8z"/>
				
					<linearGradient id="SVGID_10_" gradientUnits="userSpaceOnUse" x1="104.7136" y1="436.3163" x2="193.2315" y2="340.2969" gradientTransform="matrix(0.9449 0.3271 0.3271 -0.9449 -123.557 595.5229)">
					<stop  offset="0" style="stop-color:#F2696A"/>
					<stop  offset="0.4465" style="stop-color:#F4817C"/>
					<stop  offset="1" style="stop-color:#F7A299"/>
				</linearGradient>
				<path fill="url(#SVGID_10_)" d="M120.9,225.4c4.5-1.7,8-5,13.1-5.8c6.1-0.9,9.2,2.8,12.5,6.5c3.3,3.8,8.6,6.5,14.2,6.1
					c1.4-0.1,2.7-0.4,3.8-1c1.1-0.5,2-1.6,3.2-2c2.3-0.7,4.5,4.4,5.6,5.5c1.1,1.1-0.9,1.9-1.8,2.7c-0.8,0.6-1.5,1.3-2.3,2
					c-0.4,0.3-0.7,0.7-1.1,1c-2.5,2-3,4.6-3.2,7.2c0,0.5-0.1,1.1-0.1,1.6c1.8,5-0.2,10.3,4.6,14.3c0.5,0.5,1,1,1.5,1.6
					c2.5,2.7,3.7,5.4,1.9,9.8c-0.3,0.6-0.6,1.3-1,2c-5.1,5-7.1,10.2-4.4,17.9c0.1,0.5,0.2,1,0.3,1.5c0.1,0.5,0.2,1,0.2,1.4
					c0.1,0.6,0.1,1.3,0.1,1.9c0,6.3,5.6,12,0.8,18.5c0,0.6,0,1.1-0.1,1.6c-0.2,1.6-1,3.1-2.7,4.5c0.1,0.6,0.1,1.2,0.2,1.8
					c0.4,3,0.6,6.1,0.4,9c-0.1,1.2,0.1,4.6-2.5,3.6c-2-0.8-3.9-1.6-5.9-2.3c-6.7-2.5-13.7-4.1-20.5-6.4c-7-2.5-13.6-6.3-19.4-10.4
					c-5.1-3.5-8-8.1-8-13.1c0-1.6,0.4-3.1,1-4.4c0.2-0.5,0.5-0.9,0.7-1.3c5.7-4.7,7.7-10,12.4-13.5c0.4-0.5,0.8-0.9,1.3-1.4
					c0.4-0.5,0.9-1,1.3-1.5c0.3-0.5,0.6-0.9,0.8-1.4c0.3-0.5,0.5-1,0.7-1.6c0-0.5,0-1.1-0.2-1.6c0.1-0.6,0.3-1.2,0.4-1.8
					c0.2-0.7,0.4-1.3,0.6-1.9c0.2-0.6,0.5-1.1,0.9-1.7c-0.7-1.2-1.4-2.4-2.1-3.6c-0.3-0.6-0.6-1.2-0.9-1.8c-0.2-0.9-0.5-1.9-1-3
					c-0.2-0.5-0.5-1.1-0.8-1.7c-0.2-0.7-0.5-1.4-0.8-2.1c-0.3-0.7-0.7-1.3-1.1-2c-6.5-3.9-9.2-10.7-17.9-13c-0.7,0-1.3,0.1-2,0.1
					c-2,0.2-4,0.5-6.7,0.7c-9.8-1.1-5.9-11.7-4.7-15.1c0-0.6,0.1-1.2,0.1-1.8c0.2-2,1.4-4.1,2.2-6c0.4-0.9,1-1.9,2.2-2.2
					c1.4-0.4,2.7,1.1,3.8,1.7c5.8,3.2,13.1,2.8,18.8,1C120,225.7,120.4,225.5,120.9,225.4C126.3,223.3,114.9,227.6,120.9,225.4z"/>
				
					<linearGradient id="SVGID_11_" gradientUnits="userSpaceOnUse" x1="115.2803" y1="470.5555" x2="143.8191" y2="439.5981" gradientTransform="matrix(0.9449 0.3271 0.3271 -0.9449 -123.557 595.5229)">
					<stop  offset="0" style="stop-color:#F2696A"/>
					<stop  offset="0.4465" style="stop-color:#F4817C"/>
					<stop  offset="1" style="stop-color:#F7A299"/>
				</linearGradient>
				<path fill="url(#SVGID_11_)" d="M179.9,193.9c-0.6,5.3-7.1,9.2-10.9,13.2c-0.3,0.5-0.6,1-0.8,1.5c-1.2,2.5-1.1,5.3-1.5,8
					c-0.1,1-1,1.6-1.7,2.4c-1,1.2-1.9,2.5-2.7,3.8c-1.1,1.7-2.3,3.3-5.2,2.8c-3.2-0.5-5.3-3-7.2-5c-3.9-4.2-9.2-6.7-15.5-6.2
					c-6.5,0.6-10.5,4.1-15.7,6.6c-5.3,2.5-13.1,3.4-18.3-1.2c-1.3-1.2-1.4-1.5-0.7-2.7c0.9-1.8,2-3.5,3.2-5.2c3.5-4.8,8-9,13.1-12.7
					c1.8-1.3,3.8-2.6,5.8-3.8c1.2-0.7,2.5-1.8,4-2.1c2.7-0.5,5.6-0.5,8.4-0.8c10.3-1,19.8-3.4,28.8-7c3.3-1.3,6.4-2.8,9.6-4.2
					c0.5-0.2,1-0.4,1.5-0.6c3,0.2,7.4-1.9,11.1-1.6c1.2,0.1,2.4,0.5,3.4,1.3c-0.7,1.8-0.7,1.8-0.5,3.1c-0.3,0.5-0.6,1-1,1.6
					c-1.3,1.7-3.2,3.5-5,5.5c-0.4,0.5-0.9,1-1.3,1.5c-0.4,0.5-0.8,1-1.1,1.5C180.2,192.9,180.5,192.1,179.9,193.9z"/>
			</g>
		</g>
	</g>
</g>
</svg>
