<?xml version="1.0" encoding="utf-8"?>
<!-- Generator: Adobe Illustrator 18.0.0, SVG Export Plug-In . SVG Version: 6.00 Build 0)  -->
<!DOCTYPE svg PUBLIC "-//W3C//DTD SVG 1.1//EN" "http://www.w3.org/Graphics/SVG/1.1/DTD/svg11.dtd">
<svg version="1.1" id="Layer_1" xmlns="http://www.w3.org/2000/svg" xmlns:xlink="http://www.w3.org/1999/xlink" x="0px" y="0px"
	 viewBox="0 0 500 500" enable-background="new 0 0 500 500" xml:space="preserve">
<g>
	<g>
		<g>
			<g>
				
					<linearGradient id="SVGID_1_" gradientUnits="userSpaceOnUse" x1="336.1992" y1="4900.1611" x2="336.1992" y2="4887.5933" gradientTransform="matrix(1 0 0 -1 0 5353.4023)">
					<stop  offset="0.3901" style="stop-color:#FFFFFF"/>
					<stop  offset="1" style="stop-color:#F3F3F3"/>
				</linearGradient>
				<path fill="url(#SVGID_1_)" d="M380.7,460.8c0-4.2-19.9-7.6-44.5-7.6c-24.6,0-44.5,3.4-44.5,7.6c0,4.2,19.9,7.6,44.5,7.6
					C360.8,468.4,380.7,465,380.7,460.8z"/>
			</g>
			<g>
				<linearGradient id="SVGID_2_" gradientUnits="userSpaceOnUse" x1="409.7123" y1="460.4471" x2="259.6431" y2="460.4471">
					<stop  offset="3.846150e-02" style="stop-color:#7B7B7B"/>
					<stop  offset="0.2527" style="stop-color:#7B7B7B"/>
					<stop  offset="0.9615" style="stop-color:#C4C4C4"/>
				</linearGradient>
				<path fill="url(#SVGID_2_)" d="M404.5,455.1h-4c-9.4-6.1-34.3-10.4-63.5-10.4c-42.8,0-58.6,6.4-64.4,10.4h-3.1l0,5.5
					c0.5,8.6,30.5,15.5,67.5,15.5c37.3,0,67.5-7,67.5-15.7c0-0.1,0-0.1,0-0.2h0V455.1z"/>
				<linearGradient id="SVGID_3_" gradientUnits="userSpaceOnUse" x1="230.0085" y1="455.0687" x2="391.8668" y2="455.0687">
					<stop  offset="0" style="stop-color:#FFFFFF"/>
					<stop  offset="0.2363" style="stop-color:#E2E2E2"/>
					<stop  offset="0.8736" style="stop-color:#BCBCBC"/>
				</linearGradient>
				<path fill="url(#SVGID_3_)" d="M404.5,455.1c0,8.7-30.2,15.7-67.4,15.7c-37.3,0-67.5-7-67.5-15.7c0-8.7,30.2-15.7,67.5-15.7
					C374.3,439.4,404.5,446.4,404.5,455.1z"/>
				<linearGradient id="SVGID_4_" gradientUnits="userSpaceOnUse" x1="336.1992" y1="468.8674" x2="336.1992" y2="456.2993">
					<stop  offset="0.3901" style="stop-color:#FFFFFF"/>
					<stop  offset="1" style="stop-color:#E8E8E8"/>
				</linearGradient>
				<path fill="url(#SVGID_4_)" d="M380.7,461.3c0,4.2-19.9,7.6-44.5,7.6c-24.6,0-44.5-3.4-44.5-7.6c0-4.2,19.9-7.6,44.5-7.6
					C360.8,453.7,380.7,457.1,380.7,461.3z"/>
				<g>
					<linearGradient id="SVGID_5_" gradientUnits="userSpaceOnUse" x1="230.0181" y1="439.277" x2="391.8699" y2="439.277">
						<stop  offset="0" style="stop-color:#FFFFFF"/>
						<stop  offset="0.2363" style="stop-color:#E2E2E2"/>
						<stop  offset="0.8736" style="stop-color:#BCBCBC"/>
					</linearGradient>
					<path fill="url(#SVGID_5_)" d="M388.7,449c0,0,0,0-0.1-0.1c-0.1-0.2-0.2-0.4-0.4-0.6c-1-1.4-4.4-4.4-14.1-8.7
						c-13.7-6-17.8-10.3-17.8-10.3l-19.2,0.2l-18.4-1.2c0,0-3.4,4.6-18.6,11.4c-9.5,4.3-13,7.2-14.1,8.6c-0.3,0.2-0.4,0.5-0.5,0.7
						c0,0,0,0.1,0,0.1h0c0,0,0,0,0,0.1c0,3.3,23.1-1,51.6-1C365.5,448.1,388.6,452.4,388.7,449C388.6,449,388.6,449,388.7,449
						L388.7,449z"/>
				</g>
				<g>
					<linearGradient id="SVGID_6_" gradientUnits="userSpaceOnUse" x1="401.336" y1="335.8142" x2="316.2549" y2="335.8142">
						<stop  offset="3.846150e-02" style="stop-color:#7B7B7B"/>
						<stop  offset="0.2527" style="stop-color:#7B7B7B"/>
						<stop  offset="0.9615" style="stop-color:#C4C4C4"/>
					</linearGradient>
					<path fill="url(#SVGID_6_)" d="M322.8,439.2l32.3-1.3c1.9-1.2,1.9-3.1,2-4.7c0.3-9.1-11.3-14.8-12-75.9v-19.1
						c0-19.4,0.3-48.7,1.9-60.6c1.6-12,5.4-22.2,8.8-29.6c3.9-9,9.8-15.4,9.8-15.4l-55.4,0.3c0,0,4.4,3.8,8.7,13
						c3.3,7.1,7.5,18.2,8.8,31.7c1.1,12,1.9,41.2,1.9,60.6v19.1c-0.7,61.1-12.7,66.1-12,77c0.1,1.3,1.2,2.6,2.9,3.7L322.8,439.2z"/>
				</g>
				<g>
					<linearGradient id="SVGID_7_" gradientUnits="userSpaceOnUse" x1="338.6315" y1="245.7661" x2="338.5904" y2="441.9402">
						<stop  offset="0.3901" style="stop-color:#FFFFFF"/>
						<stop  offset="1" style="stop-color:#E8E8E8"/>
					</linearGradient>
					<path fill="url(#SVGID_7_)" d="M343.1,302.7c0-12.3,0.4-23.9,1.2-31.5c1.4-12.9,8.5-25.4,8.5-25.4l-14.6,1l-14.6-1
						c0,0,7.1,12.5,8.5,25.4c0.8,7.6,1.2,19.2,1.2,31.5v64.6c0,55-16.9,65.7-11.5,71.2c1.7,1.7,6.8,3.6,16.3,3.5
						c8.3-0.1,19.6-3.3,18.2-6.8c-5.5-14-12.8-29.2-13.3-67.9V302.7z"/>
				</g>
				<path fill="#FFFFFF" d="M333.3,298v-2.1c0-12.3-0.4-23.9-1.2-31.5c-0.7-6.8-3.1-13.6-5.1-18.4l-1-0.1c2.2,4.8,5.2,12.6,6.1,20.5
					C332.9,274,333.3,285.7,333.3,298z M354.8,431.2c-3.8-2.2-10.7-1.3-16.6,0.9c-13.2,4.9-16.4-0.5-16.4-0.6
					c-0.2,0.5-0.3,1-0.5,1.5c0.2,0.3,0.3,0.5,0.6,0.7c1.7,1.7,6.8,3.6,16.3,3.5c6.4-0.1,14.5-1.9,17.3-4.4
					C355.2,432.3,355,431.7,354.8,431.2z M350.4,245.9l-0.9,0.1c-2,4.8-4.4,11.5-5.1,18.4c-0.8,7.6-1.2,19.2-1.2,31.5v2.1
					c0-12.3,0.4-23.9,1.2-31.5C345.2,258.5,348.2,250.8,350.4,245.9z"/>
				<g>
					<linearGradient id="SVGID_8_" gradientUnits="userSpaceOnUse" x1="364.2677" y1="339.2058" x2="318.0873" y2="339.2058">
						<stop  offset="0.1099" style="stop-color:#E4E4E4"/>
						<stop  offset="0.8846" style="stop-color:#E4E4E4"/>
						<stop  offset="1" style="stop-color:#F3F3F3"/>
					</linearGradient>
					<path fill="url(#SVGID_8_)" d="M356.5,435.2c-5.5-14-12.8-29.2-13.3-67.9v-64.6c0-12.3,0.4-23.9,1.2-31.5
						c1.4-12.9,14.5-33.2,14.5-33.2l-20.6,8.8l-20.5-5.8c0,0,8.2,10.8,12.2,21.5c0.9,2.4,2.8,2.5,5.1,2.2c4.4,2.7,3.5,11.1,3.7,26.5
						c0.4,19.8,0.7,103.7,1.1,122c0.2,11,5.2,21,9.1,27.2C353.8,439.1,357.2,437.2,356.5,435.2z"/>
				</g>
				<g>
					<path fill="#FFFFFF" d="M329.7,251.7c-0.9-0.2-1.5-0.3-0.9,1.3c0.6,1.6,2,5.6,3.6,6.4c1.6,0.8,2.1-2.6,2.1-4.4
						C334.4,253.1,333.7,252.5,329.7,251.7z"/>
				</g>
				<g>
					<path fill="#FFFFFF" d="M330.1,420.6c-0.7,1-0.9,2.6,1.2,2.7c2.1,0.1,5.5,0.4,8.8-1c1.8-0.8,1.7-2.4-2.2-4.8
						C335.4,415.9,332.9,416.1,330.1,420.6z"/>
				</g>
				<g>
					<linearGradient id="SVGID_9_" gradientUnits="userSpaceOnUse" x1="398.4481" y1="419.6692" x2="316.0658" y2="419.6692">
						<stop  offset="3.846150e-02" style="stop-color:#7B7B7B"/>
						<stop  offset="0.2527" style="stop-color:#7B7B7B"/>
						<stop  offset="0.9615" style="stop-color:#C4C4C4"/>
					</linearGradient>
					<path fill="url(#SVGID_9_)" d="M348.3,409.3c0,0,0.8,11.4-6.5,14.2c-6.4,2.5-10.7,1.4-12.9,0.7c-1.1-0.3-1.8,1,0,1.5
						c6.1,1.7,9.5,0.6,16.5,0.4c7.1-0.2,9.1,4,9.1,4L348.3,409.3z"/>
				</g>
				<g>
					<linearGradient id="SVGID_10_" gradientUnits="userSpaceOnUse" x1="402.7255" y1="262.64" x2="314.2101" y2="262.64">
						<stop  offset="3.846150e-02" style="stop-color:#7B7B7B"/>
						<stop  offset="0.2527" style="stop-color:#7B7B7B"/>
						<stop  offset="0.9615" style="stop-color:#C4C4C4"/>
					</linearGradient>
					<path fill="url(#SVGID_10_)" d="M344.6,270.3c0.6-2.7,4.2-13,5.1-15.3c-0.7,1.6-2.8,4.4-5.1,5.6c-2.4,1.3-4.6,1.8-8.9,1.1
						c-2.4-0.4-6-1.6-8.6-5.6c0.7,3.6,4.3,11.2,4.8,13.8c0.1-2.6,3.2-5.3,6.9-5C343,265.1,344.4,267.4,344.6,270.3z"/>
				</g>
				<g>
					<linearGradient id="SVGID_11_" gradientUnits="userSpaceOnUse" x1="424.2782" y1="140.0702" x2="249.6629" y2="140.0702">
						<stop  offset="0" style="stop-color:#E4E4E4"/>
						<stop  offset="1" style="stop-color:#F2F2F2"/>
					</linearGradient>
					<path fill="url(#SVGID_11_)" d="M415.4,83.8c-8.4-32.1-14.2-56.4-14.2-56.4H272.9c0,0-5.9,24.3-14.2,56.4
						c-8.7,33.2-11.9,72.4-2.2,96.7c18.4,46.1,47,41.1,62.5,62.1c2.9,3.9,9.4,10.1,18,10.1c8.6,0,15.1-6.1,18-10.1
						c15.6-21,44.1-16,62.5-62.1C427.3,156.2,424.1,117,415.4,83.8z"/>
				</g>
				<g>
					<radialGradient id="SVGID_12_" cx="337.0725" cy="232.1338" r="134.6378" gradientUnits="userSpaceOnUse">
						<stop  offset="0.2473" style="stop-color:#DF1F26"/>
						<stop  offset="0.4505" style="stop-color:#B92025"/>
						<stop  offset="0.612" style="stop-color:#961B1E"/>
						<stop  offset="0.7363" style="stop-color:#7A1315"/>
					</radialGradient>
					<path fill="url(#SVGID_12_)" d="M254.5,109.8c-3.6,25.6-2.9,51.6,4.2,69.4c18.2,45.5,60,52.9,78.4,52.9
						c18.7,0,60.1-7.4,78.3-52.9c7.1-17.8,7.8-43.8,4.3-69.4H254.5z"/>
				</g>
				<g>
					<linearGradient id="SVGID_13_" gradientUnits="userSpaceOnUse" x1="175.3021" y1="109.7373" x2="431.3798" y2="109.7373">
						<stop  offset="0" style="stop-color:#821518"/>
						<stop  offset="1" style="stop-color:#DF1F26"/>
					</linearGradient>
					<path fill="url(#SVGID_13_)" d="M419.7,109.7c0,4.7-34.9,8.6-82.6,8.6c-47.7,0-82.6-3.8-82.6-8.6c0-4.7,34.9-8.6,82.6-8.6
						C384.7,101.2,419.7,105,419.7,109.7z"/>
				</g>
				<g>
					
						<radialGradient id="SVGID_14_" cx="386.2066" cy="306.0097" r="91.7038" gradientTransform="matrix(1 0 0 1.0635 0 -49.9891)" gradientUnits="userSpaceOnUse">
						<stop  offset="0.2967" style="stop-color:#841526"/>
						<stop  offset="0.6429" style="stop-color:#6F6F6F"/>
						<stop  offset="0.9615" style="stop-color:#C4C4C4"/>
					</radialGradient>
					<path fill="url(#SVGID_14_)" d="M337.1,236.7c-8.5,0-16.7-1.1-24.5-3.3c2.7,1.8,5.2,3.9,7.4,6.5c2.8,3.2,9,8.3,17.1,8.3
						c8.1,0,14.3-5.1,17.1-8.3c2.2-2.6,4.7-4.7,7.4-6.5C353.7,235.6,345.5,236.7,337.1,236.7z"/>
				</g>
				<linearGradient id="SVGID_15_" gradientUnits="userSpaceOnUse" x1="269.6077" y1="449.222" x2="395.131" y2="449.222">
					<stop  offset="0.3901" style="stop-color:#FFFFFF"/>
					<stop  offset="1" style="stop-color:#E8E8E8"/>
				</linearGradient>
				<path fill="url(#SVGID_15_)" d="M404.4,454.1c-1.1-4.3-9.4-8.1-22.3-10.8c2.7,1.2,9.2,4.3,13.8,9.3c3.4,0.1,7.4,1.6,8.6,2.4
					C404.5,454.8,404.4,454.4,404.4,454.1z"/>
				<linearGradient id="SVGID_16_" gradientUnits="userSpaceOnUse" x1="316.7674" y1="449.222" x2="239.5724" y2="449.222">
					<stop  offset="0.3901" style="stop-color:#FFFFFF"/>
					<stop  offset="1" style="stop-color:#E8E8E8"/>
				</linearGradient>
				<path fill="url(#SVGID_16_)" d="M269.7,454.1c1.1-4.3,9.4-8.1,22.3-10.8c-2.7,1.2-9.2,4.3-13.8,9.3c-3.4,0.1-7.4,1.6-8.6,2.4
					C269.6,454.8,269.7,454.4,269.7,454.1z"/>
				<g>
					<g>
						
							<linearGradient id="SVGID_17_" gradientUnits="userSpaceOnUse" x1="-65.8302" y1="642.5012" x2="-64.4303" y2="642.5012" gradientTransform="matrix(-124.7886 0 0 124.7886 -7790.4985 -80047.2891)">
							<stop  offset="0" style="stop-color:#B6B7B7"/>
							<stop  offset="1" style="stop-color:#C2C1C1"/>
						</linearGradient>
						<path opacity="0.44" fill="url(#SVGID_17_)" d="M401.2,27.5h-18.8c0,0,5.9,24.3,14.2,56.4c1.7,6.6,3.2,13.5,4.5,20.4
							c11.7,1.5,18.6,3.4,18.6,5.5v0l0,0c3.6,25.6,2.9,51.6-4.3,69.4c-15.5,38.9-48.1,50-68.9,52.4c1.1,0,2.7,0.1,4.6,0.1
							c6.4,0,16.5-0.6,26.1-5.9c1.5-0.8,3-1.7,4.6-2.6c11.8-6.9,25-16.7,35-40.6c0,0,0-0.1,0-0.1c0.1-0.2,0.7-1.7,0.8-1.9
							c4.2-10.5,6-23.7,6-38c0-19-3.2-39.8-8.1-58.8C407.1,51.7,401.2,27.5,401.2,27.5L401.2,27.5z"/>
						<g>
							
								<radialGradient id="SVGID_18_" cx="-43.5083" cy="650.1554" r="1.3998" gradientTransform="matrix(96.2173 0 0 -96.2173 4523.3081 62788.4414)" gradientUnits="userSpaceOnUse">
								<stop  offset="0" style="stop-color:#B11F24"/>
								<stop  offset="0.2473" style="stop-color:#B11F24"/>
								<stop  offset="0.3882" style="stop-color:#931A1D"/>
								<stop  offset="0.4505" style="stop-color:#851619"/>
								<stop  offset="0.6696" style="stop-color:#5A1617"/>
								<stop  offset="0.7363" style="stop-color:#4E1316"/>
								<stop  offset="1" style="stop-color:#4E1316"/>
							</radialGradient>
							<path fill="url(#SVGID_18_)" d="M419.7,109.8L419.7,109.8c0,2-6.2,3.8-16.9,5.3c3.3,24.3,2.8,48.5-4,65.5
								c-14.8,37.1-42.2,48.6-52.3,51c0,0,0,0,0.1,0c20.8-2.4,53.3-13.5,68.9-52.4C422.6,161.4,423.2,135.4,419.7,109.8L419.7,109.8
								z"/>
						</g>
						<g>
							
								<linearGradient id="SVGID_19_" gradientUnits="userSpaceOnUse" x1="-68.2977" y1="641.6528" x2="-66.8994" y2="641.6528" gradientTransform="matrix(-99.907 0 0 99.907 -6389.4658 -63995.9727)">
								<stop  offset="0" style="stop-color:#991B24"/>
								<stop  offset="0.6429" style="stop-color:#681528"/>
								<stop  offset="1" style="stop-color:#681528"/>
							</linearGradient>
							<path fill="url(#SVGID_19_)" d="M401.1,104.3c0.6,3.6,1.2,7.2,1.7,10.8c10.7-1.4,16.8-3.3,16.9-5.3v0
								C419.7,107.7,412.8,105.7,401.1,104.3L401.1,104.3z"/>
						</g>
					</g>
					<g>
						<g>
							
								<linearGradient id="SVGID_20_" gradientUnits="userSpaceOnUse" x1="-65.8299" y1="642.4749" x2="-64.4309" y2="642.4749" gradientTransform="matrix(-124.7886 0 0 124.7886 -7790.4985 -80047.2891)">
								<stop  offset="0" style="stop-color:#CFCFCE"/>
								<stop  offset="1" style="stop-color:#D9D9D8"/>
							</linearGradient>
							<path fill="url(#SVGID_20_)" d="M279.1,27.5H273c0,0-5.9,24.3-14.3,56.4c-4.9,18.9-8.1,39.8-8.1,58.8c0,14.3,1.8,27.5,6,38
								l0,0c7.8,19.5,17.4,29.9,27.1,36.9c0,0,0.1,0.1,0.1,0.1c3.8,2.6,11.2,5.6,19,7.5c-16.6-7-34-20.6-44.1-45.9
								c-7.1-17.8-7.8-43.7-4.3-69.3c0,0,0-0.1,0-0.1c0-1.1,1.9-2.2,5.5-3.1c1.3-7.7,3-15.4,4.9-22.8
								C273.2,51.7,279.1,27.5,279.1,27.5L279.1,27.5z"/>
							<g>
								
									<radialGradient id="SVGID_21_" cx="-43.5083" cy="650.1575" r="1.3968" gradientTransform="matrix(96.2173 0 0 -96.2173 4523.3081 62788.4414)" gradientUnits="userSpaceOnUse">
									<stop  offset="0" style="stop-color:#CB2027"/>
									<stop  offset="0.2473" style="stop-color:#CB2027"/>
									<stop  offset="0.4505" style="stop-color:#A21D21"/>
									<stop  offset="0.7363" style="stop-color:#650C13"/>
									<stop  offset="1" style="stop-color:#650C13"/>
								</radialGradient>
								<path fill="url(#SVGID_21_)" d="M254.5,109.9c-3.6,25.6-2.8,51.5,4.3,69.3c10.1,25.3,27.5,38.8,44.1,45.9c0,0,0,0,0,0
									c-13.6-7.6-28.9-16.3-40.2-44.5c-7-17.6-7.3-42.8-3.7-67.9C256.2,111.8,254.6,110.8,254.5,109.9L254.5,109.9z"/>
							</g>
							<g>
								<linearGradient id="SVGID_22_" gradientUnits="userSpaceOnUse" x1="219.6201" y1="109.602" x2="445.8153" y2="109.602">
									<stop  offset="0" style="stop-color:#9A1C1F"/>
									<stop  offset="0.6429" style="stop-color:#4B1318"/>
									<stop  offset="1" style="stop-color:#4B1318"/>
								</linearGradient>
								<path fill="url(#SVGID_22_)" d="M259.9,106.6c-3.6,1-5.5,2-5.5,3.1c0,0,0,0.1,0,0.1c0.1,1,1.7,1.9,4.5,2.7
									C259.3,110.6,259.6,108.6,259.9,106.6L259.9,106.6z"/>
							</g>
						</g>
						<g>
							
								<linearGradient id="SVGID_23_" gradientUnits="userSpaceOnUse" x1="-65.8292" y1="642.001" x2="-64.4308" y2="642.001" gradientTransform="matrix(-124.7886 0 0 124.7886 -7790.4985 -80047.2891)">
								<stop  offset="0" style="stop-color:#F4F4F4"/>
								<stop  offset="1" style="stop-color:#F9F9FA"/>
							</linearGradient>
							<path fill="url(#SVGID_23_)" d="M289.3,29.6c-1.9,7.3-7.2,27.8-14.1,53.3c-1.9,7-3.6,14.3-4.9,21.7c8.1-1.2,19-2.1,32-2.7
								c1.2-6.2,2.5-12.2,4.1-18.1c6.6-25.2,11.6-45.5,13.5-53.1C307.6,30.5,297.2,30.1,289.3,29.6L289.3,29.6z"/>
							
								<radialGradient id="SVGID_24_" cx="-43.5089" cy="650.1544" r="1.4012" gradientTransform="matrix(96.2173 0 0 -96.2173 4523.3081 62788.4414)" gradientUnits="userSpaceOnUse">
								<stop  offset="0" style="stop-color:#ED9DA5"/>
								<stop  offset="0.2473" style="stop-color:#ED9DA5"/>
								<stop  offset="0.4505" style="stop-color:#DF9EA6"/>
								<stop  offset="0.7363" style="stop-color:#CEA0A8"/>
								<stop  offset="1" style="stop-color:#CEA0A8"/>
							</radialGradient>
							<path fill="url(#SVGID_24_)" d="M268.6,114.6c-3.2,22.2-3.2,44.2,1.9,60.8c7.7-11.4,17.1-21.5,27.7-29.9
								c-0.2-9,0.4-18.5,1.6-28.1C287,116.8,276.4,115.8,268.6,114.6L268.6,114.6z"/>
							
								<linearGradient id="SVGID_25_" gradientUnits="userSpaceOnUse" x1="-68.2996" y1="641.6533" x2="-66.899" y2="641.6533" gradientTransform="matrix(-99.907 0 0 99.907 -6389.4658 -63995.9727)">
								<stop  offset="0" style="stop-color:#CF9EA3"/>
								<stop  offset="0.6429" style="stop-color:#BCA0A5"/>
								<stop  offset="1" style="stop-color:#BCA0A5"/>
							</linearGradient>
							<path fill="url(#SVGID_25_)" d="M302.2,101.9c-12.9,0.6-23.9,1.5-32,2.7c-0.6,3.3-1.2,6.7-1.6,10c7.8,1.2,18.4,2.2,31.2,2.8
								C300.4,112.3,301.3,107.1,302.2,101.9L302.2,101.9z"/>
						</g>
					</g>
				</g>
				<linearGradient id="SVGID_26_" gradientUnits="userSpaceOnUse" x1="272.9566" y1="27.6955" x2="423.6387" y2="27.6955">
					<stop  offset="4.395600e-02" style="stop-color:#CCCCCC"/>
					<stop  offset="1" style="stop-color:#E4E4E4"/>
				</linearGradient>
				<path fill="url(#SVGID_26_)" d="M401.2,27.4c0,1.6-26.9,3.4-64.1,3.4c-37.2,0-64.1-1.8-64.1-3.4c0-1.6,26.9-2.9,64.1-2.9
					C374.3,24.6,401.2,25.9,401.2,27.4z"/>
				<linearGradient id="SVGID_27_" gradientUnits="userSpaceOnUse" x1="282.4031" y1="27.4391" x2="393.1373" y2="27.4391">
					<stop  offset="0" style="stop-color:#E4E4E4"/>
					<stop  offset="0.6209" style="stop-color:#FFFFFF"/>
				</linearGradient>
				<path fill="url(#SVGID_27_)" d="M393.1,27.4c0,1.2-23,2.2-55.4,2.2c-32.4,0-55.4-1-55.4-2.2c0-1.2,23-2.2,55.4-2.2
					C370.1,25.2,393.1,26.2,393.1,27.4z"/>
			</g>
		</g>
		
			<radialGradient id="SVGID_28_" cx="376.4901" cy="130.2749" r="50.8227" gradientTransform="matrix(1 0 0 0.7582 0 73.5187)" gradientUnits="userSpaceOnUse">
			<stop  offset="0.2077" style="stop-color:#FFFFFF"/>
			<stop  offset="1" style="stop-color:#CEA0A8"/>
		</radialGradient>
		<path opacity="0.56" fill="url(#SVGID_28_)" d="M399.5,120.9c0,0,4.8,33-6.3,57.3c-18.5,40.6-40.8,45.4-40.8,45.4
			S403.4,186,399.5,120.9z"/>
	</g>
	<g>
		<linearGradient id="SVGID_29_" gradientUnits="userSpaceOnUse" x1="76.3945" y1="411.6819" x2="370.4218" y2="411.6819">
			<stop  offset="0" style="stop-color:#F0F3F2"/>
			<stop  offset="0.5813" style="stop-color:#EEF1F1"/>
			<stop  offset="0.7906" style="stop-color:#E7ECEC"/>
			<stop  offset="0.9393" style="stop-color:#DCE4E4"/>
			<stop  offset="1" style="stop-color:#D5DFDF"/>
		</linearGradient>
		<path fill="url(#SVGID_29_)" d="M363.1,360.7c-0.1,0-0.1-0.1-0.1-0.2c-3.8-6.4-22.5,4-27.8,5.3c-12.7,3.1-25.7,4.2-38.6,6.6
			c-22.5,4.1-44.8,7-67.7,6.9c-22.5-0.1-45.3-1.9-67-8c-10.4-2.9-20.6-6.4-31.2-8.5c-5.2-1-10.4-2.2-15.6-3.3
			c-5.2-1.2-7.3-2-11.8-4.2c-7.2-3.6-15.3-5.5-21.8,0.4c-1.2,1.1-2.1,2.4-2.7,3.7c-1.5,0.6-2.7,2.4-2.5,4.1c0.4,2.6,0.4,5.3,1.2,7.9
			c0.8,2.5,1.4,5,2.2,7.5c1.6,5.6,3.5,11,6.1,16.1c4.6,9.2,11.1,17.6,17.7,25.4c13.2,15.4,30.8,26.8,49,35.6
			c43.2,20.9,87.3,19.7,132.2,3.2C342.1,437.9,389,356.5,363.1,360.7z"/>
		<path opacity="0.1" fill="#755522" d="M355.8,369.2c-9.6,16.1-16.6,33.5-29.3,47.6c-12.9,14.2-29.6,24.7-47,32.6
			c-16.8,7.6-34.9,13.2-53.1,16.2c-9.5,1.6-19.2,2.5-28.9,2.5c-7.4-0.1-14.4-1.3-21.4-3c35.7,10.8,71.9,7.6,108.7-6
			c43.5-16.1,81-66.8,85.2-88.5C368.2,365.2,359.3,363.3,355.8,369.2z"/>
		<path opacity="0.3" fill="#BEBEB9" d="M284.8,459c57.3-21.1,104.2-102.5,78.3-98.3c-0.1,0-0.1-0.1-0.1-0.2c-1.2-2-4-2.4-7.4-1.8
			c-2,2-4,4.2-6.2,6.2c-4.7,4.3-10,7.7-15.8,10.4c-5.9,2.8-12.3,4.7-18.5,6.5c-0.9,0.3-1.8,0.6-2.7,0.9c-4-3.1-11.3-2.2-12.7,3.8
			c0,0,0,0,0,0c-0.1,0-0.1,0.1-0.2,0.1c-2.3,1.5-4.2,3.6-5.6,5.9c2-6.4-4.8-13.7-11.8-9.6c-4.8,2.8-6.3,7.7-6,13
			c0.3,4.9-0.4,9.7-1.4,14.5c-1.8,8.4-5.9,17-10.9,23.2c-10.2,12.7-24.4,20.7-39.6,25.4c-16.7,5.1-32.5,4.4-50.1,3.4
			c-2.5-0.2-5-0.3-7.5-0.5C205.5,476.3,244.8,473.8,284.8,459z"/>
		<path opacity="0.4" fill="#BEBEB9" d="M354.7,383.8c-2.8,3.8-5.5,7.6-9.4,10.4c-4.2,2.9-10.2,3.7-14.9,5.8
			c-1.5,0.7-2.9,1.4-4.2,2.3c-1-1.3-2.9-2.1-4.5-1c-4.9,3.2-10.4,4.7-15.8,6.8c-7.3,2.8-14.9,4.3-22.3,6.5
			c-7.3,2.1-14.6,4.5-22.2,5.4c-7.1,0.8-14.4-1.3-21.3,0.8c-0.5,0.1-0.8,0.5-1,0.9c-5.3-0.4-10.7-0.9-16-1.4
			c-11.7-1.1-23.3-2.6-35-3.9c-11.4-1.3-22.8-2.2-34.2-3.9c-14.4-2.2-28-6.1-40.8-13.1c-5.6-3-10.7-6.7-16.1-10.1
			c-2-1.2-4-2.4-6-3.8c-2-1.3-4.9-2.8-5.8-5.2c-0.7-1.9-3.7-1.7-3.7,0.5c0,6.9,8,11,13,14.2c8.8,5.7,17.2,11.5,27,15.5
			c50.4,21,107.2,20,160.3,12.1c26.3-3.9,69.3-16.6,77.9-36C361.1,383.3,356.8,380.9,354.7,383.8z"/>
		<linearGradient id="SVGID_30_" gradientUnits="userSpaceOnUse" x1="76.9378" y1="366.2289" x2="369.4587" y2="366.2289">
			<stop  offset="0" style="stop-color:#F0F3F2"/>
			<stop  offset="0.5813" style="stop-color:#EEF1F1"/>
			<stop  offset="0.7906" style="stop-color:#E7ECEC"/>
			<stop  offset="0.9393" style="stop-color:#DCE4E4"/>
			<stop  offset="1" style="stop-color:#D5DFDF"/>
		</linearGradient>
		<ellipse fill="url(#SVGID_30_)" cx="223.2" cy="366.2" rx="146.3" ry="55.7"/>
		<path opacity="0.2" fill="#D5D6D0" d="M271,313.6c-3.2,6.1-6,12.5-9,18.7c-4.7,9.4-10.1,18.3-15.2,27.4
			c-5.5,9.8-10.4,20-13.9,30.7c-0.3,0.7-0.5,1.5-0.6,2.3c-0.5,0.6-0.8,1.4-0.4,2.3c3.2,6.9,18.3,17.6,30.2,24.9
			c61.9-6.5,107.3-28.1,107.3-53.7C369.5,341.9,328.3,321.1,271,313.6z"/>
		<ellipse fill="#B5BCA7" cx="224.4" cy="362.4" rx="126.3" ry="42.4"/>
		<path opacity="0.3" fill="#F89640" d="M350.8,362.3c0-10.2-10.9-19.6-29-27c-2,0.3-3.6,1.4-4.4,3.8c-1.1,3.3,2.3,5.9,5.3,5.3
			c-0.9,0.2-1.5,0.2-1.9,0.1c0.2,0.1,0.3,0.2,0.6,0.4c0.9,0.6,2,1.5,3,2.2c1.8,1.3,3.4,2.7,5.2,4c2,1.4,4.4,3.5,5.4,4.9
			c0.3,0.5,0.4,0.8,0.4,0.8c0.2,0.6,0.5,1.7,0.4,1.2c0.1,1.4,0,2.8-0.2,4.2c0,0-0.1,0.2-0.2,0.9c-0.2,0.7-0.4,1.4-0.6,2.1
			c0,0.1-0.2,0.3-0.4,0.8c-0.4,0.8-0.9,1.6-1.4,2.4c-0.1,0.2-0.2,0.3-0.3,0.4c-0.6,0.7-1.2,1.3-1.8,1.9c-1.1,1.2-2.2,2.3-3.4,3.3
			c-0.4,0.3-0.7,0.6-1.1,0.9c0.5-0.4-1.4,1-1.5,1c-1.3,0.9-2.7,1.7-4.1,2.5c-2.6,1.5-5.4,2.8-7.9,4.4c-3.3,2.2-5.4,6-4.5,10
			c0,0.2,0.1,0.5,0.1,0.8c0,0.1,0.1,0.2,0.1,0.3C334.6,386.1,350.8,374.9,350.8,362.3z"/>
		<path opacity="0.3" fill="#F89640" d="M150.1,328.1c-31.5,7.7-51.9,20.2-51.9,34.3c0,9.9,10,18.9,26.8,26.1
			c1.7-3.1,1.4-7.1-1.5-10.8c-2.7-3.4-3.2-5.6-2.8-10.2c-0.2,1.7,0.5-1.6,0.6-2c0.1-0.5,0.3-0.9,0.5-1.4c0.1-0.1,0.2-0.3,0.3-0.6
			c1.1-2.3,2.5-4.4,3.9-6.4c0.6-0.9,0.6-0.8,1.6-2c0.9-1,1.8-2,2.7-2.9c1.8-1.9,3.8-3.7,5.7-5.5c3.6-3.2,7.4-5.9,10.9-9.2
			c1.7-1.6,1.9-4.2,1.1-6.3C149.1,330.4,149.7,329.3,150.1,328.1z"/>
		<path fill="#D76C27" d="M203.2,396.9c0.1-1,0-2.1-0.3-3.1c-0.5-2.2-2-3.8-3.8-4.8c-1-0.8-2.4-1.2-3.8-1.3c-3.6-0.2-7,2.7-9,5.4
			c-2.1,2.9-2.4,6.8-0.4,9.7c4.8,0.5,9.7,0.9,14.7,1.2c1-0.4,2.1-0.9,2.9-1.5C205.5,401,205.1,397.7,203.2,396.9z"/>
		<path fill="#C66D29" d="M333.7,380.7c-2.6-0.5-4.9-0.2-7.5,0.4c-3.5,0.9-7.1,0.6-10.6,1.1c-6.8,1-13.7,1.7-20.5,3
			c-6.5,1.2-13,3.3-19.2,5.8c-5,2-10.2,4.3-13.8,8.4c-0.8,0.9-1.2,2.1-1,3.3c32.4-3.4,59.2-11.1,74.5-21.1
			C335.1,381.2,334.5,380.8,333.7,380.7z"/>
		<path fill="#DDD1B6" d="M230.2,295.3c-3.1-4.9-7.1-8.9-11.6-12c-0.3-0.4-0.6-0.8-0.9-1.1c-4.8-5.7-10.1-8.1-17.1-9.9
			c-14.8-3.8-29.4-2.3-42.5,6.1c-15.4,9.9-25.2,27.3-28.4,45.1c-1.6,8.8-1.6,17.3,1.1,25.9c5.1,16.3,19.6,33.7,35.1,41.3
			c22.8,11.1,44.4,6.5,59.1-14.3c8.4-11.9,12.3-27.1,13.4-41.3C239.6,321.5,237.5,306.7,230.2,295.3z"/>
		<path opacity="0.7" fill="#DDD1B6" d="M197,334c2.4-7.1,4.2-14.3,6.7-21.4c2.6-7.3,5.6-14.6,5.4-22.5c-0.4-12.5-13.4-0.5-16.8,2.5
			c-5.4,4.8-9.5,12.1-12.1,18.8c-4.7,11.9-4.6,30.3-20.2,34.6c-4.4,1.2-10.3-1.6-14.7-2.3c-5.2-0.9-10.6-1.4-15.8-0.4
			c0.3,2,0.8,4,1.5,6c0.3,1,0.7,2,1.1,3c3.3,0.4,6.6,1,10,1.7c6.1,1.3,11.9,3.9,18.1,4.5c2.3,0.2,4.6,0,6.8-0.5
			c-3.5,6.7-1,14.8,5.8,18.5c8.7,4.7,16.5-8.2,8.7-13.3c1.7-2.9,4.1-5.5,5.9-8.3C191.3,348.4,194.5,341.3,197,334z"/>
		<path fill="#F69321" d="M177.6,360c-6.7-6-15.6-9.3-24.3-11.1c-9-1.9-17.6-1.6-26.6,0.2c-3.2,0.7-6,1.8-8.5,3.4
			c-0.5,0.1-0.9,0.3-1.4,0.5c-6.5,2.4-12.3,8-11.8,15.4c0.3,4.8,2.7,9,5.8,12.5c15.7,10.8,44.6,19,79.7,22.3
			c0.9-2.1,1.3-4.6,1.6-6.9c0.5-4.7-0.9-9.7-2.2-14.2C187.4,373.9,184.1,365.9,177.6,360z"/>
		<path fill="#F7DAB6" d="M154.5,384.8c-7.9,7.3-10.5,9.4-10.5,9.4s4.4-13.8,1.1-9.3c-3.4,4.6-4.8,6.7-4.8,6.7s1.8-19.5-0.6-10.9
			c-2.4,8.7-2.4,8.7-2.4,8.7s-10.2-26.5-4.1,2.7c4.3,1.5,8.8,2.8,13.7,4.1C151.7,390.1,160.3,379.4,154.5,384.8z"/>
		<path fill="#FCCB97" d="M190.6,403.3c0.9-2.2,1.4-4.7,1.6-7c0.5-4.7-0.9-9.7-2.2-14.2c-2.6-8.3-5.8-16.3-12.4-22.1
			c-6.7-6-15.6-9.3-24.3-11.1c-9-1.9-17.6-1.6-26.6,0.2c-3.2,0.7-6,1.8-8.5,3.4c-0.5,0.1-0.9,0.3-1.4,0.5c-6.4,2.3-12,7.7-11.8,14.9
			c0.2-0.1,0.3-0.2,0.5-0.4c5.1-3.7,10.6-6.5,16.6-8.6c7.2-2.5,14.3-3.2,21.8-2.5c5.5,0.5,11.6,2.7,15.8,5.2
			c10.5,6.2,17.1,17.1,17.4,29.1c0.1,3.7-0.3,7.4-1,10.9C180.8,402.3,185.6,402.9,190.6,403.3z"/>
		<path fill="#F9B373" d="M106.4,361.9c-0.5,1-0.9,2.1-1.1,3.2c6.7-4.5,22.3-13.2,39.8-10.2c22.8,3.8,40.1,18.7,33,47
			c3.4,0.4,7,0.8,10.5,1.2c1.9-6.5,2.5-18.6-6.4-34.3C170.2,347.7,126.1,341.8,106.4,361.9z"/>
		<path fill="#F89841" d="M182.1,373.8c-0.7-1.4-1.3-3-2.9-3.5c-1.1-0.3-1.9,0.7-1.7,1.7c0.2,1.2,0.6,2.3,1.1,3.4
			c0.8,2,1.1,5,2.8,6.4c0.9,0.8,2.2,0.4,2.6-0.7C184.8,379,183.1,375.9,182.1,373.8z"/>
		<g>
			
				<linearGradient id="SVGID_31_" gradientUnits="userSpaceOnUse" x1="399.0904" y1="238.1196" x2="442.674" y2="253.9682" gradientTransform="matrix(0.6811 -0.7322 0.7322 0.6811 -211.6468 421.629)">
				<stop  offset="0" style="stop-color:#254622"/>
				<stop  offset="1" style="stop-color:#4B7B39"/>
			</linearGradient>
			<path fill="url(#SVGID_31_)" d="M289.9,226.6c-6.2,0.7-14.7,3.4-22.6,10.6c-0.1-1-0.3-6.3,0.8-7c-4.7,2.9-11.1,7-13.6,12.2
				c-0.5-1.3-0.2-2.8-0.1-4.3c-1.3,1.5-2.6,2.9-3.8,4.4c-4.7,5.5-7.7,11.3-9.8,17.9c-0.7-0.7-1.4-5.8-0.8-6.9
				c-0.8,1.5-1.9,2.9-2.8,4.4c-2.4,3.7-4.1,7.6-5.4,11.6c-0.5,1.5-2.9,7-1.9,8.3c-0.7-1-1.5-2.7-2.5-3.4c-1.3,3.7-2.2,7.5-2.7,11.3
				c-0.5,3.5-0.2,6.9-0.7,10.4c-1,0.2-1.9-0.2-2.8-0.5c-0.8,2.5-1.3,5.3-1.4,8.2c-0.3,6.9,1,14.2,2.6,19.3c-0.6,0-1.4,0.6-2,0.6
				c0.8,0,1.6,8,1.5,9c-0.1,1.4-0.4,3.1-1.1,4.3c-0.4,0.8-1.4,1.7,0,2.2c0.6,0.2,1.2,0.5,1.7,0.9c0.3,0.4,0.8,1.4,1.4,1.2
				c0.8-0.2,1.3-2.7,1.6-3.3c0.6-1.4,1.3-2.8,2.2-3.9c0.5-0.7,1.2-1.3,1.8-1.9c2.3-2,5.1-3.5,7.3-5.7c-0.5-0.2-0.9-0.4-1.4-0.4
				c-0.4,0-0.9,0.2-1.3,0.1c0.5-0.6,1.5-0.9,2.2-1.3c0.8-0.4,1.6-0.7,2.3-1.1c1.7-0.8,3.5-1.5,5.2-2.2c3.5-1.5,7-3.1,10.1-5.3
				c1.6-1.2,3.2-2.5,4.4-4.1c-1.1-0.3-2.3-0.1-3.3-0.5c0.6-1.6,4.1-2.9,5.7-4c2.2-1.6,4.2-3.4,6-5.3c3.8-4,6.9-8.6,9.8-13.2
				c-1.7,0-3.4,0.2-5,0.3c7.4-7.2,11.3-13.4,14.4-22.8c-2.5,1.4-5.9,3.3-8.5,3.8c2.4-0.5,6.3-9.8,7.3-11.9c2.1-4.4,3.2-9.1,3.1-13.6
				c-2.1,1.1-5.4,2.7-7.6,2.8C279.8,242.1,285.1,230.8,289.9,226.6z"/>
			<g>
				<path fill="#5A823A" d="M285.4,231.9c-6.3,5.2-12,11.2-17.5,17.3c-0.4-0.8-0.8-1.8-1-2.7c-0.3-1.1-0.4-2.2-0.5-3.4
					c-0.2-2.3-0.1-4.6,0.4-6.9c-0.6,2.2-0.8,4.6-0.8,6.9c0,1.2,0.1,2.3,0.3,3.5c0.2,1.1,0.5,2.3,1,3.3c-0.9,1.1-1.9,2.1-2.8,3.2
					c-2.5,2.8-4.8,5.8-7.1,8.8c-0.1-0.2-0.2-0.3-0.3-0.5c-0.2-0.4-0.4-0.8-0.5-1.2c-0.3-0.8-0.6-1.6-0.8-2.5
					c-0.5-1.7-0.7-3.5-0.9-5.2c-0.2-1.8-0.2-3.6-0.2-5.4c0-1.8,0.1-3.6,0.2-5.4c-0.3,1.8-0.5,3.6-0.7,5.4c-0.1,1.8-0.2,3.6-0.1,5.4
					c0.1,1.8,0.3,3.6,0.7,5.4c0.2,0.9,0.5,1.8,0.8,2.6c0.2,0.4,0.3,0.9,0.5,1.3c0.1,0.2,0.2,0.4,0.3,0.6c0.1,0.1,0.2,0.3,0.4,0.3
					c-3.5,4.7-6.7,9.5-9.7,14.5c-2.6,4.3-5,8.7-7.1,13.2c-0.3,0.6-0.6,1.2-0.9,1.8c-0.5-0.1-1-0.2-1.5-0.4l-0.3,1.4
					c0.4,0.1,0.8,0.2,1.2,0.3c-1.6,3.5-3.2,7-4.6,10.6c-3.7,9.3-6.7,18.9-8.7,28.7l2.5,0.5c1.8-9.7,4.5-19.3,8-28.5
					c1.4-3.7,2.9-7.4,4.5-11c4.9,0.8,9.9,1.1,14.8,0.5c5.9-0.7,11.6-2.6,16.7-5.5c-5.2,2.6-10.9,4.3-16.7,4.8c-4.7,0.4-9.5,0-14.2-1
					c0.2-0.5,0.5-1,0.7-1.5c2.1-4.5,4.3-8.9,6.8-13.2c1.4-2.5,2.9-4.9,4.4-7.3l-0.1,0.3c2.1,0.9,4.4,1.5,6.6,1.8
					c2.3,0.3,4.6,0.3,6.8,0.1c4.5-0.4,8.9-1.7,13-3.5c-4.2,1.6-8.6,2.6-13.1,2.9c-4.4,0.2-8.9-0.4-12.8-2.3
					c3.6-5.6,7.6-11.1,11.9-16.3l0,0c1.3,0.3,2.7,0.2,4,0c1.3-0.2,2.6-0.6,3.8-1.1c2.4-1,4.7-2.3,6.8-3.8c-2.2,1.4-4.5,2.6-7,3.4
					c-1.2,0.4-2.5,0.7-3.8,0.8c-1.1,0.1-2.3,0.1-3.4-0.1C271.6,245.6,278,238.3,285.4,231.9z"/>
				<path fill="#5A823A" d="M228.6,306.4c-1.8-0.4-3.7-0.8-5.4-1.4c-0.9-0.3-1.8-0.6-2.6-1c-0.8-0.4-1.6-0.8-2.2-1.3l-1.3,1.7
					c0.9,0.6,1.9,1,2.8,1.3c0.9,0.3,1.9,0.6,2.8,0.8c1.9,0.4,3.8,0.7,5.7,0.9c1.9,0.2,3.8,0.3,5.7,0.3c1.9-0.1,3.9-0.2,5.6-1
					c-1.8,0.6-3.7,0.5-5.6,0.4C232.3,307.1,230.5,306.8,228.6,306.4z"/>
			</g>
			<path opacity="0.6" fill="#384E23" d="M245,259.8c0.9-4.9,2.6-9.7,3.5-14.5c-3.4,4.7-5.8,9.6-7.5,15.1c-0.7-0.7-1.4-5.8-0.8-6.9
				c-0.8,1.5-1.9,2.9-2.8,4.4c-2.4,3.7-4.1,7.6-5.4,11.6c-0.5,1.5-2.9,7-1.9,8.3c-0.7-1-1.5-2.7-2.5-3.4c-1.3,3.7-2.2,7.5-2.7,11.3
				c-0.5,3.5-0.2,6.9-0.7,10.4c-1,0.2-1.9-0.2-2.8-0.5c-0.8,2.5-1.3,5.3-1.4,8.2c-0.2,3.5,0.1,7.2,0.6,10.6c0.1,0,0.3-0.1,0.4-0.1
				c1.1-1.3,2.1-2.6,3.2-3.8c1.4-1.6,2.9-3.1,4.3-4.7c2.9-3.1,5.7-6.3,8.1-9.7c0.7-1,1.3-2,1.9-3c0.3-0.5,0.6-1,0.9-1.6
				c0.1-0.2,0.6-1.6,0.8-1.6c-2.3,0.5-4.6,0.9-6.9,0.9c5.4-4.4,9.2-12,11.6-17.8C245.4,271.1,251.1,256.4,245,259.8z"/>
			
				<linearGradient id="SVGID_32_" gradientUnits="userSpaceOnUse" x1="293.7177" y1="182.4689" x2="369.2195" y2="182.4689" gradientTransform="matrix(0.9547 -0.2977 0.2977 0.9547 -159.8566 191.3718)">
				<stop  offset="0" style="stop-color:#306A34"/>
				<stop  offset="1" style="stop-color:#75AF43"/>
			</linearGradient>
			<path fill="url(#SVGID_32_)" d="M236.6,222.4c-0.1-0.4-0.2-0.6-0.2-0.6l-5.6,3.6c0-21.8-7.8-26.1-7.8-26.1
				c-0.3,0.2-0.6,0.3-0.9,0.5l0-0.1c-7.2,4.3-14.7,11.8-17.3,19.1c-0.6,1.6-0.7,3.2-0.6,4.8c-0.2-1.1-0.3-2.3-0.2-3.4
				c0.2-1.6,0.4-3.3,0.6-4.9l0,0c-1.5,0.9-2.9,3-4,4.3c-1.1,1.3-2.1,2.7-2.9,4.1c-1.9,3-3.5,6.1-4.4,9.5c-0.4,1.7-0.7,3.4-0.5,5.2
				c0,0.3,0.1,0.6,0.2,0.8c-1.1-2.2-2-4.6-2.5-6.9c-1.7,2.9-3.3,7.6-3.7,9.1c-1,3.5-1.7,6.9-1.9,10.3c-0.2,4.4,1.2,7.8,4.2,10.8
				c0.3,0.3,0.7,0.6,1,0.9c-1.4-1.1-2.7-2.4-3.7-3.7c-1.1-1.4-2.2-2.8-3.1-4.4c-0.5-0.8-1-1.6-1.5-2.3c-1.3,1.3-2.4,9.7-2.2,12.6
				c0.4,4.1,0.2,8.4,2.4,11.8c0.1,0.2,0.3,0.4,0.4,0.6c-1.1-1.1-3.1-0.6-4.7-1.2c0.1,1.2,0.4,2.3,0.6,3.4c0.4,2.4,1.3,4.9,2.1,7.2
				c1.5,4.4,4.2,8.1,7.2,11.5c-0.2-0.1-0.5-0.1-0.9-0.3c-2-0.8-4.5-3.3-5.5-4.4c-0.6,0.8-0.2,2.1-0.1,2.9c0.3,3,3.1,11.2,8.8,17.1
				c4.2,4.3,9.1,7.1,15.2,9l0.7,0.2c0.1,1.3,0.2,2.7,0.2,4c0,0.9-0.7,5,1.2,4.4c1.1-0.3,6.6-10.5,7.7-14.2c-1.1,0.1-2.8,0.6-3.2,1.2
				c6.1-7.2,18.4-14.8,21.2-23.7c-1.7,0.3-3.8,1.3-5.4,2.2c1.3-2.8,3.4-5.4,5.4-8.1c-0.8,1-1.7,2-2.8,3c0.1-0.1,0.2-0.2,0.3-0.3
				c6.2-6.6,11.5-16.2,11.9-24.3c0.1-1.4,0-2.8-0.5-4c-0.7,0.4-1.4,0.8-2.1,1.3c0.1-0.6,0.3-1.1,0.4-1.7c0.3-1.2,0.8-2.4,1.2-3.5
				c1.5-4.5,3.3-9.2,2.5-14c-0.1-0.7-0.3-1.4-0.5-2.1c-0.2-0.7-0.6-1.4-0.7-2.1c-1.6,1.8-3.5,3.3-5.4,4.8c0,0,0,0,0,0
				c-1.1,0.9-1.9,1.5-1.9,1.5C240.7,235.9,237.5,225,236.6,222.4z"/>
			<g>
				<path opacity="0.4" fill="#75AF43" d="M179,280.9C179,280.9,178.9,280.9,179,280.9L179,280.9z"/>
			</g>
			<path fill="#82B251" d="M232.9,227.9c-0.9,1.2-1.9,2.3-2.9,3.4c-2.1,2.1-4.4,4.1-6.7,5.9c-2.4,1.8-4.8,3.5-7.4,5
				c-1.3,0.7-2.6,1.5-3.9,2.1c-0.7,0.3-1.3,0.6-2,0.9c-0.3,0.1-0.6,0.2-0.9,0.3c0.5-2.6,1.1-5.3,1.7-7.8c1.4-5.5,2.9-11,4.5-16.5
				c1.6-5.5,3.2-11,4.7-16.5c-1.9,5.4-3.6,10.8-5.3,16.3c-1.3,4.4-2.6,8.7-3.8,13.2c-0.1,0-0.1-0.1-0.2-0.1
				c-0.2-0.2-0.5-0.4-0.7-0.6c-0.4-0.4-0.9-0.8-1.2-1.3c-0.8-0.9-1.5-1.9-2.1-2.9c-0.6-1.1-1.2-2.2-1.6-3.3c-0.5-1.1-0.8-2.3-1-3.6
				c0,1.3,0.2,2.5,0.5,3.7c0.3,1.2,0.7,2.4,1.3,3.6c0.5,1.2,1.2,2.3,2,3.3c0.4,0.5,0.8,1,1.3,1.5c0.2,0.2,0.5,0.4,0.7,0.7
				c0.1,0.1,0.3,0.2,0.4,0.3c0.1,0,0.2,0.1,0.3,0.1c-0.2,0.7-0.4,1.3-0.6,2c-1.1,4.1-2,8.2-2.8,12.4c-3.1-0.8-6-2.2-8.5-4.2
				c-1.3-1-2.6-2.2-3.7-3.6c-1.1-1.3-2-2.8-2.6-4.5c0.5,1.7,1.3,3.2,2.3,4.7c1,1.4,2.2,2.8,3.5,3.9c1.3,1.2,2.8,2.2,4.3,3.1
				c1.4,0.8,2.9,1.4,4.4,1.9c-1.1,6.1-1.9,12.3-2.6,18.5c-1.7-0.4-3.4-0.9-5.1-1.5c-1.9-0.7-3.8-1.6-5.6-2.7
				c-3.5-2.1-6.7-4.9-9.2-8.3c2.2,3.5,5.3,6.6,8.8,9c1.7,1.2,3.6,2.3,5.5,3.2c1.7,0.8,3.6,1.5,5.4,2c-0.3,2.8-0.5,5.6-0.7,8.3
				c-0.2,2.8-0.4,5.7-0.5,8.6c0,0.9,0,1.8-0.1,2.7c-1.9-0.1-3.8-0.6-5.6-1.3c-2-0.8-3.9-1.8-5.7-3c-1.8-1.2-3.5-2.6-5.1-4.1
				c-1.6-1.5-3-3.1-4.3-4.9c1.2,1.8,2.5,3.6,4,5.2c1.5,1.6,3.1,3.1,4.9,4.5c1.8,1.3,3.7,2.5,5.7,3.5c1.9,0.9,3.9,1.5,6,1.7
				c-0.1,4.3,0,8.6,0.2,12.9c0.1,1.2,0.1,2.4,0.2,3.6c-1.4-0.3-2.8-0.8-4.2-1.3c-1.6-0.7-3.2-1.6-4.7-2.6c-2.9-2.1-5.5-4.7-7.9-7.5
				c2.2,2.9,4.5,5.8,7.4,8.2c1.4,1.2,3,2.3,4.6,3.2c1.6,0.8,3.2,1.5,4.9,2c0.3,3.9,0.7,7.8,1.3,11.8l0.3,2.1l0.3,2.1
				c0.2,1.4,0.4,2.8,0.5,4.2c0.1,1.4,0.1,2.7-0.1,4c-0.2,1.3-0.5,2.7-0.9,4l2.5,0.7c0.4-1.4,0.7-2.9,0.9-4.4c0.2-1.5,0.2-3.1,0-4.5
				c-0.1-1.5-0.4-2.9-0.6-4.3l-0.4-2.1l-0.3-2.1c-0.8-5.3-1.4-10.5-1.8-15.8c2-0.1,4-0.5,5.9-1.2c2.4-0.8,4.6-1.9,6.6-3.2
				c4.2-2.6,7.8-5.9,11.6-9c-3.9,2.9-7.6,6.1-11.8,8.5c-2.1,1.2-4.3,2.3-6.6,2.9c-1.9,0.6-3.8,0.9-5.7,0.9c0,0,0-0.1,0-0.1
				c-0.4-5.7-0.5-11.4-0.4-17c0-0.1,0-0.1,0-0.2c3.2-0.7,6.2-2,9.1-3.4c3.2-1.7,6.2-3.7,9.1-5.8c2.9-2.1,5.7-4.4,8.4-6.8
				c2.8-2.3,5.1-5.1,7.6-7.7c-2.5,2.6-5,5.2-7.8,7.4c-2.8,2.3-5.6,4.5-8.6,6.5c-2.9,2-6,3.9-9.2,5.5c-2.7,1.3-5.6,2.4-8.6,3
				c0.1-2.3,0.2-4.7,0.3-7c0.2-2.8,0.4-5.7,0.6-8.5c0.1-1.4,0.2-2.9,0.4-4.3c1.3-0.1,2.6-0.4,3.9-0.8c1.4-0.5,2.8-1.1,4.2-1.7
				c2.7-1.3,5.3-2.9,7.8-4.5c2.5-1.7,4.9-3.5,7.2-5.4c2.3-1.9,4.6-3.9,6.6-6.1c-2.1,2.1-4.4,4-6.8,5.8c-2.4,1.8-4.8,3.5-7.3,5.1
				c-2.5,1.6-5.1,3-7.8,4.2c-1.4,0.6-2.7,1.1-4.1,1.5c-1.1,0.3-2.3,0.6-3.5,0.6c0.6-6.3,1.5-12.5,2.6-18.7c0.7-0.1,1.2-0.4,1.8-0.6
				c0.7-0.3,1.4-0.6,2.1-1c1.3-0.7,2.6-1.5,3.9-2.3c2.5-1.7,4.9-3.4,7.2-5.4c2.3-1.9,4.5-4,6.5-6.2c1-1.1,1.9-2.3,2.8-3.6
				c0.8-1.2,1.5-2.6,1.9-4C234.6,225.4,233.8,226.7,232.9,227.9z"/>
		</g>
		<g opacity="0.3">
			<path fill="#384E23" d="M231.8,290.7c0.3-0.5,0.7-0.9,1-1.4c-0.4,0.5-0.8,0.9-1.3,1.4C231.6,290.7,231.7,290.7,231.8,290.7z"/>
		</g>
		<path fill="#ECE1C7" d="M201.4,404.1c7.1,0.4,14.4,0.6,21.8,0.6c7.1,0,14-0.2,20.7-0.6c3.4-1.5,6.7-3.3,9.9-5.3
			c9.1-5.7,19.1-9.7,28.6-14.7c8.3-4.4,21.1-9,29.8-12.4c19.7-7.9,17.4-29.5,9.8-47.6c-8.8-21-22.9-34.6-45.6-40.4
			c-11.8-3-28.5-3.6-40.3-0.1c-17.3,5.1-37.1,15.6-47,31.1C172.2,341.5,174.9,379.8,201.4,404.1z"/>
		<path opacity="0.4" fill="#DDD1B6" d="M322.1,324.1c-8.8-21-22.9-34.6-45.6-40.4c-4.5-1.1-9.2-1.9-13.8-2.2
			c14.3,6.3,21.6,23.8,9.4,35.3c-3.2,3-6.5,6-9.8,9c-10,9-17.8,19.7-25.4,31c-6.1,9-10.1,19.3-17.2,27.7
			c-9.5,11.2-18.4,10.6-30.8,4.6c3.3,5.4,7.5,10.5,12.5,15.1c7.1,0.4,14.4,0.6,21.8,0.6c6.5,0,12.8-0.2,19-0.5
			c1.9-2.3,3.4-4.9,4.7-7.7c3-6.9,4.4-14.2,6.8-21.2c0.9-2.8,2.2-5.3,4.4-8.5c2.2-3.2,5.6-5.7,8.8-7.8c7.4-4.9,15.7-8.3,23.1-13.3
			c3.4-2.3,6.5-5.1,9-8.4c-0.8,1.4-1.7,2.8-2.8,4c-2.7,3.1-3.5,7.2-1.4,10.8c1.8,3.1,6.4,5.6,10.1,4.1c3.8-1.6,6.6-4,8.7-6.9
			c0.3,1.1,0.7,2.3,1.1,3.4c1.2,2.9,2.8,5.2,6.1,6.1c1.1,0.3,2.3,0.4,3.5,0.2c0,1.5-0.4,2,0.6,0.7c-1,1.3-1.6,2.7-1.9,4
			C330.5,353.5,327.8,337.8,322.1,324.1z"/>
		<path opacity="0.7" fill="#DDD1B6" d="M322.2,324.5c-7.3-2.3-15.2-2.8-22.5-1.1c-13.1,3-25,9.9-35.1,18.7
			c-10,8.7-17.9,19.7-24.1,31.3c-4.8,8.9-8.9,22.1-3.5,31.2c1.7-0.1,3.5-0.1,5.2-0.2c1.5-1.8,2.7-3.8,3.8-5.9c-0.7-2.4-1-5-0.5-7.8
			c0.9-5.3,3.5-10.1,6.1-14.7c5.4-9.5,12-18,20.2-25.3c8-7.1,17.5-12.2,27.8-15.1c5.5-1.5,10.7-1.9,16.2-0.4c4.5,1.2,8,3.4,11.4,6.1
			C326.2,335.6,324.5,329.9,322.2,324.5z"/>
		<path fill="#F4EEE0" d="M169.6,313.7c-2.9-14.7-0.4-39.5-17.1-22.7c-7.8,7.8-21.3,29.9-11.6,40.3
			C154.7,346.3,173.1,331.8,169.6,313.7z"/>
		<path fill="#F4EEE0" d="M239.9,301.5c-1.5-1.7-3.4-3-5.7-3.7c-10-2.8-20.3,4.3-27.5,10.2c-16.3,13.3-21,42.9-14.7,62.1
			c1.4,4.1,3.7,8.1,7.3,10.6c6,4.2,10.9,0,13.5-5.3c3.8-7.6,8.2-14.7,12.5-22.1C233.6,339.3,254.3,317.9,239.9,301.5z"/>
		<path fill="#F89841" d="M177,365.5c-0.7-2.2-3-3.6-4.9-4.8c-1.5-0.9-3.3-2.4-5.1-2.5c-0.7-0.1-1.3,0.5-1.4,1.1
			c0,0.1-0.1,0.2-0.1,0.3c-0.1,1.3,2.2,2.8,3.2,3.4c1,0.6,2,1.3,2.9,1.9c1,0.8,1.9,1.8,3.1,2.4C175.8,367.8,177.5,367,177,365.5z"/>
		<path fill="#F89841" d="M182.1,386.7c-0.5,1.7-0.3,3.6-0.4,5.3c-0.1,2.5-0.4,4.9-0.9,7.3c-0.2,0.8-0.3,1.9-0.2,2.9
			c1.8,0.2,3.5,0.4,5.3,0.6c0.6-1.3,0.8-2.9,1-3.8c0.7-4.2,0.7-9.6-1.3-13.4C184.7,383.8,181.9,384.9,182.1,386.7z"/>
		<path fill="#F89841" d="M162.6,355.4c-1.6-1.4-3.7-1.9-5.8-2.3c-1.3-0.2-3.6-1.1-4.6,0.1c-0.1,0.2-0.2,0.4-0.1,0.6
			c0.7,1.2,2.7,1.6,4,2c1.9,0.5,3.7,1.4,5.7,1.6C162.8,357.4,163.3,356,162.6,355.4z"/>
		<path fill="#F89841" d="M146.7,351.5c-1.7-0.5-3.5-0.7-5.3-0.8c-1.7-0.1-3.8-0.3-5.3,0.7c-0.2,0.1-0.2,0.4,0,0.6
			c1.3,0.8,3,0.8,4.5,0.9c1.9,0.1,3.8,0.5,5.8,0.7C147.6,353.7,147.8,351.8,146.7,351.5z"/>
		<path fill="#F89841" d="M130.8,351.8c-1.6,0-3.3,0.3-4.8,0.6c-1.5,0.3-2.8,0.6-4,1.6c-0.2,0.2,0,0.5,0.3,0.5
			c1.7-0.3,3.4-0.7,5.1-0.9c1.3-0.1,2.6-0.2,3.8-0.7C131.6,352.6,131.3,351.9,130.8,351.8z"/>
		<path fill="#F89841" d="M115.1,357.2c-1.9,0.9-4.1,1.7-5.6,3.2c-0.3,0.3,0.1,0.7,0.4,0.6c1.9-0.9,4-1.6,5.7-2.7
			C116.3,357.7,115.8,356.9,115.1,357.2z"/>
		<g>
			<path fill="#FDCA97" d="M314.1,333.8c-22.2-3.4-57.5,8-75.2,58.1c0,0-2.3,6.8,4.6,11.4c0.4,0.3,0.9,0.6,1.3,0.8
				c7.6-0.4,14.9-1.1,22-2c0.4-0.2,0.8-0.4,1.2-0.5c12.3-5.5,42.5-14.4,61.6-16.4c5.3-2.8,9.6-5.8,12.9-8.9c0-0.3,0.1-0.6,0.1-0.9
				C343.5,366,336.3,337.2,314.1,333.8z"/>
			<path fill="#F9B373" d="M342.7,373c0-0.3,0-0.6,0-0.8c0,0,0,0,0,0c0-0.3,0-0.6-0.1-0.9c0,0,0,0,0,0c-0.1-1-0.2-2-0.4-3.1
				l-1.8-7.4c-2.5-7.9-7.1-16.7-14.6-22.1c-4.8-0.8-11.2-2.6-24.3-0.7c-36.2,5.3-59.6,48.5-54.8,56.8c4.8,8.3,19.6,1.5,19.6,1.5
				c44.9-19.8,67.3-19.9,75-19c0.4-0.4,0.8-0.7,1.2-1.1c0-0.3,0.1-0.6,0.1-0.9c0-0.2,0-0.4,0-0.6c0,0,0-0.1,0-0.2c0-0.2,0-0.5,0-0.7
				c0,0,0,0,0,0c0-0.2,0-0.5,0-0.7C342.7,373.1,342.7,373.1,342.7,373z"/>
			<path fill="#F89640" d="M334.3,352.7c0,0-4.6-14-17.3-13.4c-11.4,0.5-22.6,2.7-32.3,7.3c-1.1,0.5-3.5,1.6-2.9,4.3
				c0.6,2.6,1.7,6.6,4.4,8.6C290.6,362.6,297.2,351.6,334.3,352.7z"/>
			<g>
				<path fill="#F89640" d="M338.7,373c0,0,1.4-9.1-3.7-16.4c0,0-10.2-0.8-23.8,1.1c-1.1,0.2-3.1,1.8-2.6,3.7
					c0.6,2.8,1.6,6.9,2.3,10.5c0.2,1.2,2.2,2.9,4.8,2.3C320.9,373,330.2,371.4,338.7,373z"/>
				<g>
					<path fill="#F89841" d="M339.8,373.3c0.4-2.4,0.3-4.8,0-7.2c-0.3-2.3-1.7-9.8-4.4-10.6c-1.6-0.4-3.7-0.2-5.4-0.2
						c-5.3,0-10.6,0.3-15.9,0.9c-2.4,0.3-6.8,0.8-6.7,4.3c0.1,2.3,0.8,4.5,1.3,6.8c0.5,2,0.5,4.6,1.8,6.3c2,2.7,5.5,1.7,8.2,1.1
						c6.4-1.3,13.1-1.7,19.6-0.6c1.4,0.2,2-2,0.6-2.2c-7-1.1-13.9-0.6-20.8,0.6c-1.8,0.3-5.1,1.7-6.2-0.9c-0.7-1.9-0.9-4.2-1.3-6.2
						c-0.2-0.8-0.3-1.5-0.5-2.3c-0.8-3.4,1.2-4.3,3.9-4.7c2.2-0.3,4.4-0.5,6.6-0.6c4.7-0.3,9.5-0.5,14.2-0.2c-0.5,0,1.4,3.5,1.3,3.5
						c0.8,1.9,1.2,3.9,1.4,5.9c0.2,1.8,0.2,4.1,0,5.6C337.4,374.1,339.6,374.7,339.8,373.3z"/>
				</g>
			</g>
			<path fill="#F89640" d="M306.8,371.1l-2.4-8.5c-0.5-1.9-2.5-3.1-4.5-2.7c0,0-13.8,3.3-26.3,15.8c-0.6,0.6-1.7,2-0.9,3.5
				c0.8,1.4,1.7,3.7,2.8,5.3c0.6,0.9,1.8,2.2,3.3,1.2c3.6-2.4,15-7.2,25.2-9.4C308.7,375.2,306.8,371.1,306.8,371.1z"/>
			<path fill="#F89640" d="M280.1,354c1.3,3.7,4.8,8.6,0.8,10.7c-3,1.6-18,11.8-23.6,20.3c-3.1,4.9-8.8,9.4-4.7-2.7
				c3.6-10.9,12.4-21.7,23.1-29.9C277.1,351.3,278.7,349.9,280.1,354z"/>
			<path fill="#F89640" d="M269.8,381.9l1.9,3.5c0,0,1.3,2.2-1.2,3.7c-4.5,2.5-13.3,7.8-14.9,4.2c-1.1-2.4,7-9.1,11-12.1
				C269.2,379.2,269.8,381.9,269.8,381.9z"/>
		</g>
		<g>
			<path opacity="0.4" fill="#BEBEB9" d="M320.7,344.5C319.9,344.1,319.9,344.4,320.7,344.5L320.7,344.5z"/>
			<path opacity="0.4" fill="#BEBEB9" d="M309.7,396c-0.1-0.1-0.1-0.2-0.2-0.3C310.9,398.2,310.4,397.3,309.7,396z"/>
		</g>
		<path opacity="0.5" fill="#FFFFFF" d="M254.8,431.9c-6.4-1.9-13.6-0.9-20.1-0.2c-30.8,3.7-60.6,0.2-90.7-8.1
			c-31.9-8.8-36.6-16.9-39.2-16.5c-2.2,0.3-4.2,2.3-2.3,4.5c13.8,15.6,31.5,27.7,50.4,36.2c10.4,4.7,21.1,7.7,32.1,10.6
			c11.1,2.9,22.2,5.4,33.6,5.7c14.3,0.4,35.1-3.7,42.4-17.6C264.6,439.9,261.6,433.9,254.8,431.9z"/>
		<path opacity="0.3" fill="#C66D29" d="M342.5,376.3c0-0.3,0.1-0.6,0.1-0.9c0.9-9.4-6.3-38.2-28.5-41.6c-5.3-0.8-11.3-0.8-17.6,0.4
			c5.3,1.9,10.4,4.5,14.9,8.4c5.3,4.4,10.2,10.6,8.9,18c-1.1,6.3-4.3,12.1-9.4,16c-5.5,4.2-12.3,6.2-18.5,9.2
			c-6.6,3.1-13,6.5-19.7,9.4c-6,2.6-12.6,4.8-19.3,4.9c-5.8,0.1-10.3-2.2-15-4.9c0.1,2.4,1,5.7,4.9,8.3c0.4,0.3,0.9,0.6,1.3,0.8
			c7.6-0.4,14.9-1.1,22-2c0.4-0.2,0.8-0.4,1.2-0.5c12.3-5.5,42.5-14.4,61.6-16.4C334.9,382.4,339.2,379.4,342.5,376.3z"/>
		<path opacity="0.3" fill="#384E23" d="M176.8,398.8c-11.8-0.5-24.4-2.6-35.2-7.6c-10.6-4.9-21.5-14.3-25.5-25.5
			c-2-5.3-0.3-9.3,2.7-13.4c-0.2,0.1-0.4,0.2-0.6,0.3c-0.5,0.1-0.9,0.3-1.4,0.5c-6.5,2.4-12.3,8-11.8,15.4c0.3,4.8,2.7,8.9,5.8,12.4
			c15.7,10.8,44.6,19,79.7,22.3c0.9-2.1,1.3-4.6,1.6-6.9c0.1-0.9,0.1-1.9,0.1-2.8c-0.5,0.4-1,0.9-1.6,1.2
			C186.3,397.9,182.4,399,176.8,398.8z"/>
	</g>
</g>
</svg>
