<?xml version="1.0" encoding="utf-8"?>
<!-- Generator: Adobe Illustrator 18.0.0, SVG Export Plug-In . SVG Version: 6.00 Build 0)  -->
<!DOCTYPE svg PUBLIC "-//W3C//DTD SVG 1.1//EN" "http://www.w3.org/Graphics/SVG/1.1/DTD/svg11.dtd">
<svg version="1.1" id="Layer_1" xmlns="http://www.w3.org/2000/svg" xmlns:xlink="http://www.w3.org/1999/xlink" x="0px" y="0px"
	 viewBox="0 0 500 500" enable-background="new 0 0 500 500" xml:space="preserve">
<g>
	<g>
		<g>
			
				<linearGradient id="SVGID_1_" gradientUnits="userSpaceOnUse" x1="354.1744" y1="326.1109" x2="484.1785" y2="329.903" gradientTransform="matrix(0.9533 0.3021 -0.3021 0.9533 87.4805 -87.3876)">
				<stop  offset="0.1685" style="stop-color:#EF9031"/>
				<stop  offset="0.5281" style="stop-color:#FCCF27"/>
				<stop  offset="1" style="stop-color:#F2A02F"/>
			</linearGradient>
			<path fill="url(#SVGID_1_)" d="M351.8,247.8l63.8,199.4c0,0,0.9,4.6-5.7,3.8l-67.4-199.7"/>
			<polygon opacity="0.63" fill="#A2562B" points="384.3,369.4 411.5,450.7 412.9,450.3 385.6,366.9 			"/>
			<polygon opacity="0.63" fill="#FFFFFF" points="387.3,368.2 413.7,449.5 414.7,448.7 389,366.3 			"/>
			<path opacity="0.21" fill="#231F20" d="M382.7,370.2l5.3,16.3c0,0,2.6-4.5,7.2-3.1l-5.3-16.6L382.7,370.2z"/>
		</g>
		
			<linearGradient id="SVGID_2_" gradientUnits="userSpaceOnUse" x1="372.1372" y1="343.3573" x2="465.6546" y2="273.4299" gradientTransform="matrix(0.9533 0.3021 -0.3021 0.9533 87.4805 -87.3876)">
			<stop  offset="0" style="stop-color:#E83230"/>
			<stop  offset="0.17" style="stop-color:#E83C34"/>
			<stop  offset="0.4338" style="stop-color:#EB5141"/>
			<stop  offset="0.7566" style="stop-color:#EF6F5A"/>
			<stop  offset="0.9832" style="stop-color:#F3856F"/>
		</linearGradient>
		<path fill="url(#SVGID_2_)" d="M431.6,321.7c4.8,17.1-12.1,38.7-45.6,48c-33.5,9.3-56.5,0-61.2-17c-4.8-17,10.5-35.4,44-44.7
			C402.3,298.6,426.9,304.7,431.6,321.7z"/>
		<path opacity="0.26" fill="#231F20" d="M331.9,328.5c0,0,26,9.7,47.7,8.9c0,0,3.8-0.5,5.2-2.7c0,0,18.6-18.4,20.3-30.8
			C405.1,303.9,334.2,324.2,331.9,328.5z"/>
		
			<linearGradient id="SVGID_3_" gradientUnits="userSpaceOnUse" x1="380.4549" y1="355.3771" x2="473.9386" y2="285.475" gradientTransform="matrix(0.9533 0.3021 -0.3021 0.9533 87.4805 -87.3876)">
			<stop  offset="0" style="stop-color:#9A3226"/>
			<stop  offset="0.1627" style="stop-color:#9F382A"/>
			<stop  offset="0.4153" style="stop-color:#B04837"/>
			<stop  offset="0.7244" style="stop-color:#CE6551"/>
			<stop  offset="0.9832" style="stop-color:#F3856F"/>
		</linearGradient>
		<path opacity="0.45" fill="url(#SVGID_3_)" d="M431.3,322.4c4.8,17.1-12.1,38.7-45.6,48c-33.5,9.4-56.5,0-61.2-17
			c0,0,62.4,11.1,105-30.7L431.3,322.4z"/>
		
			<linearGradient id="SVGID_4_" gradientUnits="userSpaceOnUse" x1="388.4628" y1="336.467" x2="463.8206" y2="280.1184" gradientTransform="matrix(0.9533 0.3021 -0.3021 0.9533 87.4805 -87.3876)">
			<stop  offset="0" style="stop-color:#FFFFFF"/>
			<stop  offset="1" style="stop-color:#E83230"/>
		</linearGradient>
		<path opacity="0.6" fill="url(#SVGID_4_)" d="M344.2,348.7c0,0,43.3,0.7,84.7-29.2C428.9,319.4,394.1,359.1,344.2,348.7z"/>
		
			<linearGradient id="SVGID_5_" gradientUnits="userSpaceOnUse" x1="358.2042" y1="316.341" x2="384.448" y2="239.4843" gradientTransform="matrix(0.9533 0.3021 -0.3021 0.9533 87.4805 -87.3876)">
			<stop  offset="0" style="stop-color:#F5E8C0"/>
			<stop  offset="0.1931" style="stop-color:#F6E6BA"/>
			<stop  offset="0.4661" style="stop-color:#F6E0AA"/>
			<stop  offset="0.785" style="stop-color:#F7D691"/>
			<stop  offset="1" style="stop-color:#F8CE7E"/>
		</linearGradient>
		<path fill="url(#SVGID_5_)" d="M292,300.8c0,0,1.4,11,7.1,16c0,0,53.5,20.2,80.7,15.9c0,0,37.6-34.2,39.1-59.6
			c0,0,1.1-11-8.3-14.8c0,0-37.3-15-58.1-5.5c0,0-9.5,1.9-16.5,8.5C336.1,261.3,296.2,287.5,292,300.8z"/>
		
			<linearGradient id="SVGID_6_" gradientUnits="userSpaceOnUse" x1="323.2264" y1="276.7169" x2="432.2363" y2="279.8966" gradientTransform="matrix(0.9533 0.3021 -0.3021 0.9533 87.4805 -87.3876)">
			<stop  offset="2.234600e-02" style="stop-color:#D88330"/>
			<stop  offset="1" style="stop-color:#D9783E"/>
		</linearGradient>
		<path opacity="0.76" fill="url(#SVGID_6_)" d="M293.1,300.2c0,0,67.1,18.9,77.4,16.6c0,0,5.8,1.2,9.9-5.1c0,0,32.9-33,34.3-50.5
			c0,0,7.6,8.1,2.3,25c0,0-27.8,43.9-37.7,47.2c0,0-51.5,0.9-81.4-17.6C297.9,315.9,290.1,307.5,293.1,300.2z"/>
		<path opacity="0.26" fill="#A2562B" d="M328.4,308.1c0,0,26.2,7.2,40.5,7.4c0,0,6.8,0.4,10.3-4.2c0,0,19.2-22.4,25.8-33.2
			C405,278,380,322.2,328.4,308.1z"/>
		<g>
			<path fill="#714220" d="M329.5,350.3c0,0-1.7-3.6,0.8-9.5c0,0-1,8.6,1.9,9.8c0,0,2.6-5.6,5.7-6.5c0,0-3.9,6.2-3.9,7.9
				c0,0,4.1,4.6,8.3,4.3c0,0-4.8,1.3-9.4-1.9c0,0-1.5,2.9,0.8,6.3c0,0-4.1-2.7-3.5-6.4c0,0-2,0.2-3.5-1.1
				C326.6,353.3,329.3,351.7,329.5,350.3z"/>
			
				<linearGradient id="SVGID_7_" gradientUnits="userSpaceOnUse" x1="365.5134" y1="348.3347" x2="369.191" y2="337.5646" gradientTransform="matrix(0.9533 0.3021 -0.3021 0.9533 87.4805 -87.3876)">
				<stop  offset="0" style="stop-color:#F5E8C0"/>
				<stop  offset="0.1931" style="stop-color:#F6E6BA"/>
				<stop  offset="0.4661" style="stop-color:#F6E0AA"/>
				<stop  offset="0.785" style="stop-color:#F7D691"/>
				<stop  offset="1" style="stop-color:#F8CE7E"/>
			</linearGradient>
			<path fill="url(#SVGID_7_)" d="M329.3,349.5c0,0-1.6-3.6,0.8-9.5c0,0-1,8.6,1.9,9.8c0,0,2.6-5.6,5.7-6.5c0,0-3.9,6.2-3.9,7.9
				c0,0,4.1,4.6,8.3,4.3c0,0-4.8,1.2-9.4-1.9c0,0-1.5,2.9,0.8,6.3c0,0-4.1-2.7-3.5-6.4c0,0-2,0.2-3.5-1.1
				C326.5,352.4,329.2,350.8,329.3,349.5z"/>
		</g>
		<linearGradient id="SVGID_8_" gradientUnits="userSpaceOnUse" x1="325.5803" y1="369.3332" x2="325.5803" y2="369.3332">
			<stop  offset="0" style="stop-color:#FFFFFF"/>
			<stop  offset="0.1218" style="stop-color:#FFF6F2"/>
			<stop  offset="0.311" style="stop-color:#FDE3D9"/>
			<stop  offset="0.5438" style="stop-color:#FAC7B6"/>
			<stop  offset="0.8088" style="stop-color:#F6A08A"/>
			<stop  offset="0.9832" style="stop-color:#F3856F"/>
		</linearGradient>
		<path fill="url(#SVGID_8_)" d="M325.6,369.3"/>
		<g>
			<path opacity="0.26" fill="#231F20" d="M295.6,294.7c0,0,2.9,2.1,5.3,1.7c0,0,24,18.2,39.1,3.8c0,0,24.6,17.6,37.1-7
				c0,0,13.6-21.9,15-42.2c0,0-93.9,36.8-95.8,42.8"/>
			
				<linearGradient id="SVGID_9_" gradientUnits="userSpaceOnUse" x1="286.0512" y1="238.6432" x2="393.7906" y2="238.6432" gradientTransform="matrix(0.9533 0.3021 -0.3021 0.9533 87.4805 -87.3876)">
				<stop  offset="0" style="stop-color:#0EA94E"/>
				<stop  offset="1" style="stop-color:#049D4C"/>
			</linearGradient>
			<path fill="url(#SVGID_9_)" d="M276.2,284.9c0,0,7.9,14.2,24.8,8.6c0,0,24.6,18.1,38.5,2.5c0,0,16.2,16.2,34-3
				c0,0,32.6-44.1,21.7-90.2c0,0-10.2-26.6-39.4-10.4c0,0-19.2-19.8-40.1-1.7C315.7,190.7,265,259.3,276.2,284.9z"/>
			
				<linearGradient id="SVGID_10_" gradientUnits="userSpaceOnUse" x1="301.4123" y1="235.6602" x2="379.8946" y2="235.6602" gradientTransform="matrix(0.9533 0.3021 -0.3021 0.9533 87.4805 -87.3876)">
				<stop  offset="0" style="stop-color:#067A3F"/>
				<stop  offset="1" style="stop-color:#049D4C"/>
			</linearGradient>
			<path fill="url(#SVGID_10_)" d="M319.4,200.1c0,0,24.3-11.6,33.7,2.4c0,0,20-10.9,32,3.3c0,0,3.4,6.6-1.5,26.4
				c0,0-11.3,61.8-35.4,48.7c0,0-22.9,7.2-37-4.9c0,0-13.4,7.5-17.9-2.2c0,0-7.4-7.2,22.6-69.3L319.4,200.1z"/>
			
				<linearGradient id="SVGID_11_" gradientUnits="userSpaceOnUse" x1="324.3026" y1="206.8373" x2="352.7001" y2="298.5797" gradientTransform="matrix(0.9533 0.3021 -0.3021 0.9533 87.4805 -87.3876)">
				<stop  offset="0" style="stop-color:#203D1F"/>
				<stop  offset="1" style="stop-color:#049D4C"/>
			</linearGradient>
			<path fill="url(#SVGID_11_)" d="M312.9,276c0,0,9,8.7,34.1,4.5c0,0,12.4-60,6-76.2l-2.5-2.5C350.5,201.8,324.3,269,312.9,276z"/>
			
				<linearGradient id="SVGID_12_" gradientUnits="userSpaceOnUse" x1="321.8092" y1="196.3202" x2="313.0376" y2="318.3912" gradientTransform="matrix(0.9533 0.3021 -0.3021 0.9533 87.4805 -87.3876)">
				<stop  offset="0" style="stop-color:#203D1F"/>
				<stop  offset="1" style="stop-color:#049D4C"/>
			</linearGradient>
			<path fill="url(#SVGID_12_)" d="M347.5,202.5c0,0-27.5,67.5-37.1,72.5c0,0-18.6,5.2-16-7.4c0,0,18-64.4,33.4-71.3
				c0,0,10.8-4.3,19.8,5.8"/>
			
				<linearGradient id="SVGID_13_" gradientUnits="userSpaceOnUse" x1="332.0848" y1="217.3762" x2="325.7974" y2="304.8757" gradientTransform="matrix(0.9533 0.3021 -0.3021 0.9533 87.4805 -87.3876)">
				<stop  offset="0" style="stop-color:#203D1F"/>
				<stop  offset="1" style="stop-color:#C8DA33"/>
			</linearGradient>
			<path fill="url(#SVGID_13_)" d="M339.3,221.8c0,0-12.1,33-28.2,54.2c0,0,18.3-12.5,31.4-55.9L339.3,221.8z"/>
			
				<linearGradient id="SVGID_14_" gradientUnits="userSpaceOnUse" x1="347.1294" y1="196.4901" x2="337.8065" y2="326.2344" gradientTransform="matrix(0.9533 0.3021 -0.3021 0.9533 87.4805 -87.3876)">
				<stop  offset="0" style="stop-color:#039649"/>
				<stop  offset="1" style="stop-color:#C8DA33"/>
			</linearGradient>
			<path fill="url(#SVGID_14_)" d="M292.2,274c0,0,4.3,10.6,18.8,4c0,0,13.6,12.2,37.5,4.2c0,0,26.8,19.9,37.8-69.2
				c0,0-14.3,82.1-37.3,66.8c0,0-13.9,10.2-37.4-3C311.7,276.9,301.3,282.6,292.2,274z"/>
			
				<linearGradient id="SVGID_15_" gradientUnits="userSpaceOnUse" x1="343.2615" y1="230.1659" x2="377.4521" y2="230.1659" gradientTransform="matrix(0.9533 0.3021 -0.3021 0.9533 87.4805 -87.3876)">
				<stop  offset="0" style="stop-color:#203D1F"/>
				<stop  offset="1" style="stop-color:#028B46"/>
			</linearGradient>
			<path fill="url(#SVGID_15_)" d="M355.5,203.2c0,0,5.1,50.6-6.4,76.7c0,0,12.1,3.4,18.5-8c0,0,18.4-36.5,15.8-64.8
				C383.4,207.1,372.3,196.2,355.5,203.2z"/>
			
				<linearGradient id="SVGID_16_" gradientUnits="userSpaceOnUse" x1="356.0581" y1="209.6661" x2="349.6208" y2="299.2523" gradientTransform="matrix(0.9533 0.3021 -0.3021 0.9533 87.4805 -87.3876)">
				<stop  offset="0" style="stop-color:#203D1F"/>
				<stop  offset="1" style="stop-color:#C8DA33"/>
			</linearGradient>
			<path fill="url(#SVGID_16_)" d="M355,219.3c0,0-0.4,42.8-9.5,61.8c0,0,12.3-3.6,14-64.4L355,219.3z"/>
		</g>
		<g>
			
				<linearGradient id="SVGID_17_" gradientUnits="userSpaceOnUse" x1="264.3368" y1="180.9977" x2="360.0937" y2="183.7908" gradientTransform="matrix(0.9533 0.3021 -0.3021 0.9533 87.4805 -87.3876)">
				<stop  offset="0.1685" style="stop-color:#EF9031"/>
				<stop  offset="0.5281" style="stop-color:#FCCF27"/>
				<stop  offset="1" style="stop-color:#F2A02F"/>
			</linearGradient>
			<path fill="url(#SVGID_17_)" d="M342.6,251.3l-47.4-140.6l11.4-4.2l45.3,141.4C351.8,247.8,349.6,252.8,342.6,251.3z"/>
			<path opacity="0.63" fill="#A2562B" d="M344.6,251l-11.5-30.1l3-1.6l10.6,31.5C346.7,250.9,345.5,252.1,344.6,251z"/>
			<polygon opacity="0.63" fill="#FFFFFF" points="338.5,220.5 348.7,250.3 350.5,249.1 340.5,218.6 			"/>
		</g>
		<path opacity="0.45" fill="#231F20" d="M291.5,229.3c0,0,6,7.2,45.2,7.4c0,0,5.1-5.7,10.9-3.2c0,0,40.4-22.2,39.1-41.1
			C386.8,192.4,294.2,221.9,291.5,229.3z"/>
		<g>
			
				<linearGradient id="SVGID_18_" gradientUnits="userSpaceOnUse" x1="282.3584" y1="223.6371" x2="384.896" y2="146.9649" gradientTransform="matrix(0.9672 0.2539 -0.2539 0.9672 72.6305 -77.6557)">
				<stop  offset="0" style="stop-color:#E83230"/>
				<stop  offset="0.17" style="stop-color:#E83C34"/>
				<stop  offset="0.4338" style="stop-color:#EB5141"/>
				<stop  offset="0.7566" style="stop-color:#EF6F5A"/>
				<stop  offset="0.9832" style="stop-color:#F3856F"/>
			</linearGradient>
			<path fill="url(#SVGID_18_)" d="M389.2,171.7c6.1,18.4-11.2,43-47.3,55.1c-36.2,12-61.8,3.1-68-15.3
				c-6.1-18.4,9.6-39.4,45.8-51.4C355.9,148,383.1,153.2,389.2,171.7z"/>
			
				<linearGradient id="SVGID_19_" gradientUnits="userSpaceOnUse" x1="291.4816" y1="236.8168" x2="393.9747" y2="160.1779" gradientTransform="matrix(0.9672 0.2539 -0.2539 0.9672 72.6305 -77.6557)">
				<stop  offset="0" style="stop-color:#9A3226"/>
				<stop  offset="0.1627" style="stop-color:#9F382A"/>
				<stop  offset="0.4153" style="stop-color:#B04837"/>
				<stop  offset="0.7244" style="stop-color:#CE6551"/>
				<stop  offset="0.9832" style="stop-color:#F3856F"/>
			</linearGradient>
			<path opacity="0.45" fill="url(#SVGID_19_)" d="M388.9,172.5c6.1,18.4-11.2,43-47.3,55.1c-36.2,12-61.8,3.1-68-15.3
				c0,0,68.9,8.8,113.3-39.4L388.9,172.5z"/>
			<g>
				<path fill="#714220" d="M279,208.6c0,0-2-3.8,0.3-10.4c0,0-0.7,9.4,2.6,10.6c0,0,2.5-6.2,5.9-7.5c0,0-4,7.1-3.8,8.9
					c0,0,4.7,4.9,9.4,4.3c0,0-5.2,1.6-10.4-1.5c0,0-1.4,3.2,1.2,6.9c0,0-4.7-2.7-4.2-6.8c0,0-2.2,0.3-3.9-1
					C276,212,278.9,210.1,279,208.6z"/>
				
					<linearGradient id="SVGID_20_" gradientUnits="userSpaceOnUse" x1="275.0973" y1="229.0933" x2="279.1312" y2="217.2799" gradientTransform="matrix(0.9672 0.2539 -0.2539 0.9672 72.6305 -77.6557)">
					<stop  offset="0" style="stop-color:#F5E8C0"/>
					<stop  offset="0.1931" style="stop-color:#F6E6BA"/>
					<stop  offset="0.4661" style="stop-color:#F6E0AA"/>
					<stop  offset="0.785" style="stop-color:#F7D691"/>
					<stop  offset="1" style="stop-color:#F8CE7E"/>
				</linearGradient>
				<path fill="url(#SVGID_20_)" d="M278.8,207.7c0,0-2-3.8,0.3-10.4c0,0-0.7,9.4,2.6,10.6c0,0,2.5-6.2,5.9-7.4c0,0-4,7.1-3.8,8.9
					c0,0,4.7,4.8,9.4,4.3c0,0-5.2,1.6-10.4-1.5c0,0-1.4,3.2,1.2,6.9c0,0-4.7-2.7-4.2-6.8c0,0-2.2,0.3-3.9-1
					C275.8,211.1,278.7,209.1,278.8,207.7z"/>
			</g>
			
				<linearGradient id="SVGID_21_" gradientUnits="userSpaceOnUse" x1="300.257" y1="216.0922" x2="382.8866" y2="154.3062" gradientTransform="matrix(0.9672 0.2539 -0.2539 0.9672 72.6305 -77.6557)">
				<stop  offset="0" style="stop-color:#FFFFFF"/>
				<stop  offset="1" style="stop-color:#E83230"/>
			</linearGradient>
			<path opacity="0.6" fill="url(#SVGID_21_)" d="M295,206c0,0,47.5-1.7,91.1-36.7C386.1,169.3,350.2,214.7,295,206z"/>
		</g>
		<path opacity="0.26" fill="#231F20" d="M277.6,187.2c0,0,23.8,15,59.7,3.3c0,0,30.4-11.9,30.4-35.4L277.6,187.2z"/>
		<g>
			<path opacity="0.21" fill="none" stroke="#322C14" stroke-width="0.7434" stroke-linecap="round" d="M309,117
				c-1.8-14.8,16.6-33.5,33-28.6c23.3,6.9,1.8,37.2-1.2,49.2"/>
			<path fill="none" stroke="#F8E3AD" stroke-width="0.7434" d="M307.2,112.1c-1.8-14.8,16.6-33.4,33-28.6
				c23.3,6.9,1.8,37.2-1.2,49.2"/>
			
				<linearGradient id="SVGID_22_" gradientUnits="userSpaceOnUse" x1="353.7506" y1="274.9934" x2="356.4242" y2="267.1638" gradientTransform="matrix(1.1161 -0.3871 0.3823 1.1024 -202.5435 -42.8296)">
				<stop  offset="0" style="stop-color:#D28F31"/>
				<stop  offset="0.1762" style="stop-color:#D59336"/>
				<stop  offset="0.4251" style="stop-color:#DC9E43"/>
				<stop  offset="0.7158" style="stop-color:#E8B35D"/>
				<stop  offset="1" style="stop-color:#F8CE7E"/>
			</linearGradient>
			<path fill="url(#SVGID_22_)" d="M286.2,125.4c0,0,15.4-12.7,22.4-13.2l-10.2-0.5C298.4,111.7,289.8,118.9,286.2,125.4z"/>
			
				<linearGradient id="SVGID_23_" gradientUnits="userSpaceOnUse" x1="304.9546" y1="285.7102" x2="416.3888" y2="285.7102" gradientTransform="matrix(1.1161 -0.3871 0.3823 1.1024 -202.5435 -42.8296)">
				<stop  offset="0" style="stop-color:#572B16"/>
				<stop  offset="1" style="stop-color:#8B3D24"/>
			</linearGradient>
			<path fill="url(#SVGID_23_)" d="M372.2,113.3c11.5,33.3-12.3,62.1-46.2,73.8c-33.9,11.8-67.3,0.7-78.8-32.6
				c-11.5-33.3,9.2-64.1,43.2-75.9C324.3,66.9,360.7,80,372.2,113.3z"/>
			
				<linearGradient id="SVGID_24_" gradientUnits="userSpaceOnUse" x1="341.1561" y1="316.7889" x2="377.2996" y2="223.2386" gradientTransform="matrix(1.1161 -0.3871 0.3823 1.1024 -202.5435 -42.8296)">
				<stop  offset="0" style="stop-color:#FFFFFF"/>
				<stop  offset="1" style="stop-color:#743920"/>
			</linearGradient>
			<path opacity="0.43" fill="url(#SVGID_24_)" d="M349.3,109.7c10,28.9-0.1,41.9-29.1,52c-29,10.1-58.6,19.8-68.6-9.1
				c-10-28.9,7.6-55.6,36.6-65.6C317.2,76.9,339.3,80.8,349.3,109.7z"/>
			<path opacity="0.34" fill="#FFFFFF" d="M278.9,137c2,5.8-3.1,7.1-8.5,9c-5.4,1.9-9,3.6-11-2.2c-2-5.8,0.7-12,6.1-13.9
				C270.9,128.1,276.9,131.2,278.9,137z"/>
			
				<linearGradient id="SVGID_25_" gradientUnits="userSpaceOnUse" x1="361.6485" y1="298.0963" x2="377.4541" y2="251.8084" gradientTransform="matrix(1.1161 -0.3871 0.3823 1.1024 -202.5435 -42.8296)">
				<stop  offset="0" style="stop-color:#F5E8C0"/>
				<stop  offset="0.1931" style="stop-color:#F6E6BA"/>
				<stop  offset="0.4661" style="stop-color:#F6E0AA"/>
				<stop  offset="0.785" style="stop-color:#F7D691"/>
				<stop  offset="1" style="stop-color:#F8CE7E"/>
			</linearGradient>
			<path fill="url(#SVGID_25_)" d="M331,114.6c13.3,1.8,26.7,4.4,38.6,8.4c0,0-12.8-13.2-34.1-20.4c4.4-3.1,9-6.5,13.5-10.3
				c0,0-9.6-1.7-22.9,2.6c-2.2-6-5.7-12.1-10.9-18c0,0-4.9,3.9-7.6,15.4c-6.7-4-14.4-6.9-23.2-7.7c0,0,4.1,5.6,12.7,14.2
				c-11.3,1.5-23.6,5.4-36.7,12.8c0,0,16-0.8,37.6,0.1c-4.1,3.8-8.2,8.4-12.3,13.8c0,0,8.4-1.8,20.7-7c0.9,10.3,3.4,22.9,8.1,38.4
				c0,0,10.4-13.4,13.8-31.7c4.3,3.1,8.9,6.2,13.8,9.3C342.2,134.6,338.6,125.2,331,114.6z"/>
			
				<linearGradient id="SVGID_26_" gradientUnits="userSpaceOnUse" x1="356.6846" y1="301.2074" x2="364.9644" y2="276.9596" gradientTransform="matrix(1.1161 -0.3871 0.3823 1.1024 -202.5435 -42.8296)">
				<stop  offset="0" style="stop-color:#D28F31"/>
				<stop  offset="0.1762" style="stop-color:#D59336"/>
				<stop  offset="0.4251" style="stop-color:#DC9E43"/>
				<stop  offset="0.7158" style="stop-color:#E8B35D"/>
				<stop  offset="1" style="stop-color:#F8CE7E"/>
			</linearGradient>
			<path fill="url(#SVGID_26_)" d="M306.8,118.4c0.1-0.4,8-3.4,8-3.4c-1.1,31.7-1.1,31.6-0.2,41.9
				C314.5,157,305.3,127.9,306.8,118.4z"/>
			
				<linearGradient id="SVGID_27_" gradientUnits="userSpaceOnUse" x1="370.3314" y1="263.2947" x2="376.6132" y2="244.898" gradientTransform="matrix(1.1161 -0.3871 0.3823 1.1024 -202.5435 -42.8296)">
				<stop  offset="0" style="stop-color:#D28F31"/>
				<stop  offset="0.1762" style="stop-color:#D59336"/>
				<stop  offset="0.4251" style="stop-color:#DC9E43"/>
				<stop  offset="0.7158" style="stop-color:#E8B35D"/>
				<stop  offset="1" style="stop-color:#F8CE7E"/>
			</linearGradient>
			<path fill="url(#SVGID_27_)" d="M315.2,76.9l-0.4,31.6l-7.1-16.2c0,0,1.2-8.5,7.4-15.6"/>
			
				<linearGradient id="SVGID_28_" gradientUnits="userSpaceOnUse" x1="349.4968" y1="261.0919" x2="351.9696" y2="253.8501" gradientTransform="matrix(1.1161 -0.3871 0.3823 1.1024 -202.5435 -42.8296)">
				<stop  offset="0" style="stop-color:#D28F31"/>
				<stop  offset="0.1762" style="stop-color:#D59336"/>
				<stop  offset="0.4251" style="stop-color:#DC9E43"/>
				<stop  offset="0.7158" style="stop-color:#E8B35D"/>
				<stop  offset="1" style="stop-color:#F8CE7E"/>
			</linearGradient>
			<path fill="url(#SVGID_28_)" d="M260.8,111.7c0,0,33.2-8.7,53.1-2.5l-16.8-10.3C297.1,98.8,277,101,260.8,111.7z"/>
			
				<linearGradient id="SVGID_29_" gradientUnits="userSpaceOnUse" x1="392.2759" y1="285.2929" x2="396.1992" y2="273.8034" gradientTransform="matrix(1.1161 -0.3871 0.3823 1.1024 -202.5435 -42.8296)">
				<stop  offset="0" style="stop-color:#D28F31"/>
				<stop  offset="0.1762" style="stop-color:#D59336"/>
				<stop  offset="0.4251" style="stop-color:#DC9E43"/>
				<stop  offset="0.7158" style="stop-color:#E8B35D"/>
				<stop  offset="1" style="stop-color:#F8CE7E"/>
			</linearGradient>
			<path fill="url(#SVGID_29_)" d="M319.5,109.1c0,0,19.3-1.8,49.6,13.3c0,0-17.7-15.3-34-19.6C335.2,102.8,323.5,104.8,319.5,109.1
				z"/>
			
				<linearGradient id="SVGID_30_" gradientUnits="userSpaceOnUse" x1="390.2635" y1="268.8876" x2="392.7002" y2="261.7516" gradientTransform="matrix(1.1161 -0.3871 0.3823 1.1024 -202.5435 -42.8296)">
				<stop  offset="0" style="stop-color:#D28F31"/>
				<stop  offset="0.1762" style="stop-color:#D59336"/>
				<stop  offset="0.4251" style="stop-color:#DC9E43"/>
				<stop  offset="0.7158" style="stop-color:#E8B35D"/>
				<stop  offset="1" style="stop-color:#F8CE7E"/>
			</linearGradient>
			<path fill="url(#SVGID_30_)" d="M349,92.3c0,0-20.3,6.5-26.3,12.1l3.4-9.5c0,0,8.2-3.8,22.8-2.9"/>
			
				<linearGradient id="SVGID_31_" gradientUnits="userSpaceOnUse" x1="378.9302" y1="291.479" x2="382.9412" y2="279.7327" gradientTransform="matrix(1.1161 -0.3871 0.3823 1.1024 -202.5435 -42.8296)">
				<stop  offset="0" style="stop-color:#D28F31"/>
				<stop  offset="0.1762" style="stop-color:#D59336"/>
				<stop  offset="0.4251" style="stop-color:#DC9E43"/>
				<stop  offset="0.7158" style="stop-color:#E8B35D"/>
				<stop  offset="1" style="stop-color:#F8CE7E"/>
			</linearGradient>
			<path fill="url(#SVGID_31_)" d="M342.2,134.6c0,0-0.1-0.1-0.2-0.3c-1.8-2.3-13.6-17.2-20.5-19.7l9.1-0.2
				C330.5,114.3,338.6,125.4,342.2,134.6z"/>
		</g>
		
			<linearGradient id="SVGID_32_" gradientUnits="userSpaceOnUse" x1="210.8475" y1="83.7173" x2="269.3545" y2="85.4239" gradientTransform="matrix(0.9533 0.3021 -0.3021 0.9533 87.4805 -87.3876)">
			<stop  offset="5.618000e-03" style="stop-color:#EF9031"/>
			<stop  offset="1" style="stop-color:#F2A02F"/>
		</linearGradient>
		<path fill="url(#SVGID_32_)" d="M305.1,103.8l-15.4-48.1c-4.8-20.6-18.4-38-18.4-38c-1.1,11.8,4.8,37.9,4.8,37.9l17.7,52.4
			C293.8,108,302.1,111.3,305.1,103.8"/>
		<path opacity="0.63" fill="#A2562B" d="M271.3,18.4c0,0,3.3,29.3,8.3,44.9l15.6,44.7c0,0,2.7,0.8,4,0.2l-16.6-46.1
			C282.5,62.2,272.4,24.1,271.3,18.4z"/>
		
			<linearGradient id="SVGID_33_" gradientUnits="userSpaceOnUse" x1="216.2733" y1="57.7104" x2="264.2858" y2="117.6262" gradientTransform="matrix(0.9533 0.3021 -0.3021 0.9533 87.4805 -87.3876)">
			<stop  offset="5.618000e-03" style="stop-color:#FFFFFF"/>
			<stop  offset="1" style="stop-color:#F2A02F"/>
		</linearGradient>
		<path fill="url(#SVGID_33_)" d="M272.7,21.2c0,0,9.7,24.3,14.5,39.6l14.9,46.2c0,0,1.6-0.7,2.1-2.2l-15.4-46
			C288.8,58.7,276,25.5,272.7,21.2z"/>
		<path opacity="0.15" fill="#231F20" d="M293.3,105.7l0.5,2.4c0,0,7.6,3.1,10.4-3.3l-0.2-3.1C304,101.6,297.7,107.9,293.3,105.7z"
			/>
		<path opacity="0.26" fill="#A2562B" d="M367.2,317.3c0,0,6.7,12.5,7.8,15.4c0,0,3,0.4,4.7-0.2c0,0,5.4-3.5,7.1-6.1l-5.8-14.2
			C380.9,312.1,377.2,318.4,367.2,317.3z"/>
	</g>
	<g>
		<linearGradient id="SVGID_34_" gradientUnits="userSpaceOnUse" x1="234.6312" y1="381.6413" x2="381.6943" y2="385.931">
			<stop  offset="0.1685" style="stop-color:#EF9031"/>
			<stop  offset="0.5281" style="stop-color:#FCCF27"/>
			<stop  offset="1" style="stop-color:#F2A02F"/>
		</linearGradient>
		<path fill="url(#SVGID_34_)" d="M233.5,283.9l137,193.2c0,0,2.6,4.6-4.8,6.1L224.8,290.8"/>
		<polygon opacity="0.63" fill="#A2562B" points="310.2,403.9 367.2,482.3 368.6,481.4 310.6,400.7 		"/>
		<polygon opacity="0.63" fill="#FFFFFF" points="313,401.6 369.2,480.2 370,479 314.1,399 		"/>
		<path opacity="0.21" fill="#231F20" d="M308.7,405.2L320,421c0,0,1.3-5.7,6.7-5.9l-11.4-16.1L308.7,405.2z"/>
	</g>
	<linearGradient id="SVGID_35_" gradientUnits="userSpaceOnUse" x1="254.9434" y1="401.154" x2="360.733" y2="322.05">
		<stop  offset="0" style="stop-color:#E83230"/>
		<stop  offset="0.17" style="stop-color:#E83C34"/>
		<stop  offset="0.4338" style="stop-color:#EB5141"/>
		<stop  offset="0.7566" style="stop-color:#EF6F5A"/>
		<stop  offset="0.9832" style="stop-color:#F3856F"/>
	</linearGradient>
	<path fill="url(#SVGID_35_)" d="M344.9,336.3c10.9,16.8,0.1,45.9-32.8,67.4c-32.9,21.5-60.9,19.3-71.8,2.6
		c-10.9-16.8-0.7-41.8,32.2-63.3C305.4,321.4,333.9,319.5,344.9,336.3z"/>
	<path opacity="0.26" fill="#231F20" d="M239.6,377.7c0,0,31.4,1.6,54.4-6.7c0,0,3.9-1.8,4.7-4.7c0,0,13.7-26.2,11.4-40.2
		C310.2,326.1,240.7,372.3,239.6,377.7z"/>
	<linearGradient id="SVGID_36_" gradientUnits="userSpaceOnUse" x1="264.354" y1="414.7549" x2="370.1074" y2="335.6781">
		<stop  offset="0" style="stop-color:#9A3226"/>
		<stop  offset="0.1627" style="stop-color:#9F382A"/>
		<stop  offset="0.4153" style="stop-color:#B04837"/>
		<stop  offset="0.7244" style="stop-color:#CE6551"/>
		<stop  offset="0.9832" style="stop-color:#F3856F"/>
	</linearGradient>
	<path opacity="0.45" fill="url(#SVGID_36_)" d="M344.8,337.2c10.9,16.8,0.1,45.9-32.8,67.4c-32.9,21.5-60.9,19.3-71.9,2.6
		c0,0,71.1-9.3,102.7-69L344.8,337.2z"/>
	<linearGradient id="SVGID_37_" gradientUnits="userSpaceOnUse" x1="273.4011" y1="393.3648" x2="358.6524" y2="329.6184">
		<stop  offset="0" style="stop-color:#FFFFFF"/>
		<stop  offset="1" style="stop-color:#E83230"/>
	</linearGradient>
	<path opacity="0.6" fill="url(#SVGID_37_)" d="M259.8,395.2c0,0,46.9-14.1,81.3-60.5C341.2,334.7,317.2,389.5,259.8,395.2z"/>
	<linearGradient id="SVGID_38_" gradientUnits="userSpaceOnUse" x1="239.1788" y1="370.5934" x2="268.8654" y2="283.6542">
		<stop  offset="0" style="stop-color:#F5E8C0"/>
		<stop  offset="0.1931" style="stop-color:#F6E6BA"/>
		<stop  offset="0.4661" style="stop-color:#F6E0AA"/>
		<stop  offset="0.785" style="stop-color:#F7D691"/>
		<stop  offset="1" style="stop-color:#F8CE7E"/>
	</linearGradient>
	<path fill="url(#SVGID_38_)" d="M187.2,361.4c0,0,5.2,11.3,13.1,14.8c0,0,64.6,3.5,92.5-10.5c0,0,28.8-49.7,21.8-77.7
		c0,0-2.6-12.2-14-13.1c0,0-45.4-3.5-64.6,14c0,0-9.6,5.3-14.8,14.8C221.2,303.8,187.2,345.7,187.2,361.4z"/>
	<linearGradient id="SVGID_39_" gradientUnits="userSpaceOnUse" x1="199.6156" y1="325.7587" x2="322.9348" y2="329.3558">
		<stop  offset="2.234600e-02" style="stop-color:#D88330"/>
		<stop  offset="1" style="stop-color:#D9783E"/>
	</linearGradient>
	<path opacity="0.76" fill="url(#SVGID_39_)" d="M188.2,360.4c0,0,78.8-2.6,89.2-8.5c0,0,6.7-0.8,8.9-8.9c0,0,24.2-46.9,19.7-66.2
		c0,0,11,6.1,11,26.2c0,0-15,56.9-24.5,63.8c0,0-55.2,18.5-93.8,8.9C198.6,375.7,187.4,369.4,188.2,360.4z"/>
	<path opacity="0.26" fill="#A2562B" d="M228.9,356.9c0,0,30.7-1.2,46.2-5.9c0,0,7.5-1.8,9.6-8.1c0,0,13-30.7,16.4-44.7
		C301.2,298.3,289.4,354.4,228.9,356.9z"/>
	<g>
		<path fill="#714220" d="M244.5,402.1c0,0-3-3.3-2.4-10.5c0,0,1.8,9.6,5.4,9.9c0,0,0.9-6.9,3.9-9c0,0-2.1,8.1-1.5,9.9
			c0,0,6,3.6,10.5,1.8c0,0-4.8,3-10.8,1.2c0,0-0.6,3.6,3,6.6c0,0-5.4-1.5-6-5.7c0,0-2.1,0.9-4.2,0
			C242.4,406.3,244.8,403.6,244.5,402.1z"/>
		<linearGradient id="SVGID_40_" gradientUnits="userSpaceOnUse" x1="247.4505" y1="406.7735" x2="251.6069" y2="394.6013">
			<stop  offset="0" style="stop-color:#F5E8C0"/>
			<stop  offset="0.1931" style="stop-color:#F6E6BA"/>
			<stop  offset="0.4661" style="stop-color:#F6E0AA"/>
			<stop  offset="0.785" style="stop-color:#F7D691"/>
			<stop  offset="1" style="stop-color:#F8CE7E"/>
		</linearGradient>
		<path fill="url(#SVGID_40_)" d="M244,401.2c0,0-3-3.3-2.4-10.5c0,0,1.8,9.6,5.4,9.9c0,0,0.9-6.9,3.9-9c0,0-2.1,8.1-1.5,9.9
			c0,0,6,3.6,10.5,1.8c0,0-4.8,3-10.8,1.2c0,0-0.6,3.6,3,6.6c0,0-5.4-1.5-6-5.7c0,0-2.1,0.9-4.2,0C242,405.3,244.4,402.7,244,401.2z
			"/>
	</g>
	<linearGradient id="SVGID_41_" gradientUnits="userSpaceOnUse" x1="246.8091" y1="423.8967" x2="246.8091" y2="423.8967">
		<stop  offset="0" style="stop-color:#FFFFFF"/>
		<stop  offset="0.1218" style="stop-color:#FFF6F2"/>
		<stop  offset="0.311" style="stop-color:#FDE3D9"/>
		<stop  offset="0.5438" style="stop-color:#FAC7B6"/>
		<stop  offset="0.8088" style="stop-color:#F6A08A"/>
		<stop  offset="0.9832" style="stop-color:#F3856F"/>
	</linearGradient>
	<path fill="url(#SVGID_41_)" d="M246.8,423.9"/>
	<g>
		<path opacity="0.26" fill="#231F20" d="M189,353.7c0,0,3.8,1.3,6.3,0c0,0,32.1,11.4,43.5-9.3c0,0,32.5,10.6,37.6-20.3
			c0,0,7.2-28.3,1.7-50.7c0,0-88.7,71.8-88.7,79"/>
		<linearGradient id="SVGID_42_" gradientUnits="userSpaceOnUse" x1="157.5558" y1="282.7041" x2="279.4266" y2="282.7041">
			<stop  offset="0" style="stop-color:#0EA94E"/>
			<stop  offset="1" style="stop-color:#049D4C"/>
		</linearGradient>
		<path fill="url(#SVGID_42_)" d="M164.7,349.7c0,0,13.4,12.6,29.7,0.7c0,0,32.7,11.1,42.3-10.4c0,0,23,11.9,35.6-14.9
			c0,0,20-58.7-7.4-104.7c0,0-20.1-25.2-46,2.2c0,0-27.5-14.8-43.8,11.9C175.1,234.6,143.9,325.9,164.7,349.7z"/>
		<linearGradient id="SVGID_43_" gradientUnits="userSpaceOnUse" x1="174.9278" y1="279.3234" x2="263.7159" y2="279.3234">
			<stop  offset="0" style="stop-color:#067A3F"/>
			<stop  offset="1" style="stop-color:#049D4C"/>
		</linearGradient>
		<path fill="url(#SVGID_43_)" d="M182.3,243.5c0,0,22.3-20.8,37.1-8.9c0,0,17.8-18.6,35.6-7.4c0,0,5.9,5.9,7.4,28.9
			c0,0,8.9,70.5-21.5,64.6c0,0-22.3,15.6-41.6,7.4c0,0-11.9,12.6-20.1,3.7c0,0-10.4-5.2,0.8-82.4L182.3,243.5z"/>
		<linearGradient id="SVGID_44_" gradientUnits="userSpaceOnUse" x1="200.8258" y1="246.7251" x2="232.9494" y2="350.5056">
			<stop  offset="0" style="stop-color:#203D1F"/>
			<stop  offset="1" style="stop-color:#049D4C"/>
		</linearGradient>
		<path fill="url(#SVGID_44_)" d="M201.2,327.5c0,0,12.7,6.3,38.3-6.9c0,0-7.1-69-19.5-84.2l-3.5-1.8
			C216.4,234.7,211.1,316.1,201.2,327.5z"/>
		<linearGradient id="SVGID_45_" gradientUnits="userSpaceOnUse" x1="198.0033" y1="234.8268" x2="188.0807" y2="372.9163">
			<stop  offset="0" style="stop-color:#203D1F"/>
			<stop  offset="1" style="stop-color:#049D4C"/>
		</linearGradient>
		<path fill="url(#SVGID_45_)" d="M213.4,236.5c0,0-6.6,82.1-15.2,90.8c0,0-18.3,11.9-19.8-2.5c0,0-2.5-75.6,11.7-88.2
			c0,0,10.1-8.4,23.3-0.5"/>
		<linearGradient id="SVGID_46_" gradientUnits="userSpaceOnUse" x1="209.6377" y1="258.6167" x2="202.5224" y2="357.6377">
			<stop  offset="0" style="stop-color:#203D1F"/>
			<stop  offset="1" style="stop-color:#C8DA33"/>
		</linearGradient>
		<path fill="url(#SVGID_46_)" d="M211.2,260c0,0-1.8,39.7-11.8,68.1c0,0,15.5-19.7,14.7-71L211.2,260z"/>
		<linearGradient id="SVGID_47_" gradientUnits="userSpaceOnUse" x1="226.6512" y1="235.0161" x2="216.1054" y2="381.7789">
			<stop  offset="0" style="stop-color:#039649"/>
			<stop  offset="1" style="stop-color:#C8DA33"/>
		</linearGradient>
		<path fill="url(#SVGID_47_)" d="M178.3,332.4c0,0,8.2,9.9,21.6-2.1c0,0,18.9,8.6,41.9-8.2c0,0,35.7,12.4,17.2-87.5
			c0,0,12.6,93.4-17.4,84.8c0,0-11.5,15.8-41.3,9.6C200.2,329,191,338.6,178.3,332.4z"/>
		<linearGradient id="SVGID_48_" gradientUnits="userSpaceOnUse" x1="222.2665" y1="273.1123" x2="260.9451" y2="273.1123">
			<stop  offset="0" style="stop-color:#203D1F"/>
			<stop  offset="1" style="stop-color:#028B46"/>
		</linearGradient>
		<path fill="url(#SVGID_48_)" d="M222.3,234.5c0,0,22.8,52.7,19.3,85c0,0,14.2-0.5,17.3-15c0,0,7.3-45.6-5.1-75.3
			C253.7,229.1,238,221.3,222.3,234.5z"/>
		<linearGradient id="SVGID_49_" gradientUnits="userSpaceOnUse" x1="236.7455" y1="249.9197" x2="229.4641" y2="351.2526">
			<stop  offset="0" style="stop-color:#203D1F"/>
			<stop  offset="1" style="stop-color:#C8DA33"/>
		</linearGradient>
		<path fill="url(#SVGID_49_)" d="M227.2,252c0,0,14.2,46.2,10.9,69.9c0,0,12-8-6.9-74.3L227.2,252z"/>
	</g>
	<g>
		<linearGradient id="SVGID_50_" gradientUnits="userSpaceOnUse" x1="132.9855" y1="217.4873" x2="241.3057" y2="220.6469">
			<stop  offset="0.1685" style="stop-color:#EF9031"/>
			<stop  offset="0.5281" style="stop-color:#FCCF27"/>
			<stop  offset="1" style="stop-color:#F2A02F"/>
		</linearGradient>
		<path fill="url(#SVGID_50_)" d="M224.8,290.8l-99.2-135.4l10.8-8.5l97.1,137C233.5,283.9,232.9,290.1,224.8,290.8z"/>
		<path opacity="0.63" fill="#A2562B" d="M226.8,289.8l-22.6-28.5l2.7-2.7l22.2,30.3C229.1,288.9,228.2,290.7,226.8,289.8z"/>
		<polygon opacity="0.63" fill="#FFFFFF" points="209.9,258.9 231.1,287.6 232.6,285.7 211.4,256.3 		"/>
	</g>
	<path opacity="0.45" fill="#231F20" d="M162.2,284.6c0,0,8.9,5.7,51.3-7.5c0,0,3.6-7.8,10.7-7.1c0,0,36-37.8,28.2-57.7
		C252.4,212.2,162.6,275.7,162.2,284.6z"/>
	<g>
		
			<linearGradient id="SVGID_51_" gradientUnits="userSpaceOnUse" x1="150.8318" y1="259.4243" x2="266.8177" y2="172.6961" gradientTransform="matrix(0.9987 -5.020000e-02 5.020000e-02 0.9987 -10.7028 13.4362)">
			<stop  offset="0" style="stop-color:#E83230"/>
			<stop  offset="0.17" style="stop-color:#E83C34"/>
			<stop  offset="0.4338" style="stop-color:#EB5141"/>
			<stop  offset="0.7566" style="stop-color:#EF6F5A"/>
			<stop  offset="0.9832" style="stop-color:#F3856F"/>
		</linearGradient>
		<path fill="url(#SVGID_51_)" d="M247.9,189c12.9,17.7,2.7,50.2-32.2,75.5c-34.9,25.4-65.6,24.5-78.5,6.8
			c-12.9-17.8-3.1-45.7,31.8-71.1C203.8,174.8,235,171.2,247.9,189z"/>
		
			<linearGradient id="SVGID_52_" gradientUnits="userSpaceOnUse" x1="161.1582" y1="274.3342" x2="277.0984" y2="187.6402" gradientTransform="matrix(0.9987 -5.020000e-02 5.020000e-02 0.9987 -10.7028 13.4362)">
			<stop  offset="0" style="stop-color:#9A3226"/>
			<stop  offset="0.1627" style="stop-color:#9F382A"/>
			<stop  offset="0.4153" style="stop-color:#B04837"/>
			<stop  offset="0.7244" style="stop-color:#CE6551"/>
			<stop  offset="0.9832" style="stop-color:#F3856F"/>
		</linearGradient>
		<path opacity="0.45" fill="url(#SVGID_52_)" d="M247.8,190c12.9,17.8,2.7,50.2-32.2,75.5c-34.9,25.4-65.6,24.5-78.5,6.8
			c0,0,77.3-14.1,108.7-81.2L247.8,190z"/>
		<g>
			<path fill="#714220" d="M141.6,266.5c0,0-3.5-3.4-3.2-11.3c0,0,2.5,10.4,6.5,10.5c0,0,0.6-7.6,3.8-10c0,0-1.9,9-1.1,10.9
				c0,0,6.8,3.6,11.6,1.4c0,0-5.1,3.5-11.7,1.9c0,0-0.4,4,3.6,7c0,0-6-1.3-6.9-5.9c0,0-2.2,1.1-4.6,0.2
				C139.5,271.2,142,268.1,141.6,266.5z"/>
			
				<linearGradient id="SVGID_53_" gradientUnits="userSpaceOnUse" x1="142.6277" y1="265.578" x2="147.1842" y2="252.2341" gradientTransform="matrix(0.9987 -5.020000e-02 5.020000e-02 0.9987 -10.7028 13.4362)">
				<stop  offset="0" style="stop-color:#F5E8C0"/>
				<stop  offset="0.1931" style="stop-color:#F6E6BA"/>
				<stop  offset="0.4661" style="stop-color:#F6E0AA"/>
				<stop  offset="0.785" style="stop-color:#F7D691"/>
				<stop  offset="1" style="stop-color:#F8CE7E"/>
			</linearGradient>
			<path fill="url(#SVGID_53_)" d="M141,265.5c0,0-3.5-3.4-3.2-11.3c0,0,2.5,10.4,6.4,10.5c0,0,0.6-7.6,3.8-10c0,0-1.8,9-1.1,10.9
				c0,0,6.8,3.6,11.6,1.4c0,0-5.1,3.5-11.7,1.9c0,0-0.5,4,3.6,7c0,0-6-1.3-6.9-5.9c0,0-2.2,1.1-4.6,0.2
				C139,270.2,141.5,267.2,141,265.5z"/>
		</g>
		
			<linearGradient id="SVGID_54_" gradientUnits="userSpaceOnUse" x1="171.0788" y1="250.8876" x2="264.5453" y2="180.9983" gradientTransform="matrix(0.9987 -5.020000e-02 5.020000e-02 0.9987 -10.7028 13.4362)">
			<stop  offset="0" style="stop-color:#FFFFFF"/>
			<stop  offset="1" style="stop-color:#E83230"/>
		</linearGradient>
		<path opacity="0.6" fill="url(#SVGID_54_)" d="M158,258.2c0,0,50.6-18,85.7-70.7C243.7,187.5,220.5,248.7,158,258.2z"/>
	</g>
	<path opacity="0.26" fill="#231F20" d="M132.9,243.9c0,0,30.8,8,65.4-16.9c0,0,28.7-23.2,20.7-48.6L132.9,243.9z"/>
	<g>
		<path opacity="0.21" fill="none" stroke="#322C14" stroke-width="0.841" stroke-linecap="round" d="M142.7,157.5
			c-7-15.4,6.4-41.7,25.8-42.1c27.5-0.5,14.7,39.5,15.5,53.5"/>
		<path fill="none" stroke="#F8E3AD" stroke-width="0.841" d="M139.1,152.7c-7-15.4,6.4-41.7,25.8-42.1
			c27.5-0.5,14.7,39.5,15.6,53.5"/>
		
			<linearGradient id="SVGID_55_" gradientUnits="userSpaceOnUse" x1="248.6955" y1="228.4532" x2="251.7188" y2="219.5994" gradientTransform="matrix(0.947 -0.7062 0.6975 0.9354 -262.4996 130.2295)">
			<stop  offset="0" style="stop-color:#D28F31"/>
			<stop  offset="0.1762" style="stop-color:#D59336"/>
			<stop  offset="0.4251" style="stop-color:#DC9E43"/>
			<stop  offset="0.7158" style="stop-color:#E8B35D"/>
			<stop  offset="1" style="stop-color:#F8CE7E"/>
		</linearGradient>
		<path fill="url(#SVGID_55_)" d="M120.9,174.3c0,0,12.3-18.9,19.7-21.9l-11.2,3C129.4,155.4,122.6,166.1,120.9,174.3z"/>
		
			<linearGradient id="SVGID_56_" gradientUnits="userSpaceOnUse" x1="193.499" y1="240.5776" x2="319.5678" y2="240.5776" gradientTransform="matrix(0.947 -0.7062 0.6975 0.9354 -262.4996 130.2295)">
			<stop  offset="0" style="stop-color:#572B16"/>
			<stop  offset="1" style="stop-color:#8B3D24"/>
		</linearGradient>
		<path fill="url(#SVGID_56_)" d="M209.6,131.8c23.8,31.9,8,71.1-24.6,95.4c-32.6,24.3-72.3,23.7-96.2-8.2
			c-23.8-31.9-12-72.3,20.6-96.6C142,98.1,185.8,99.9,209.6,131.8z"/>
		
			<linearGradient id="SVGID_57_" gradientUnits="userSpaceOnUse" x1="234.4552" y1="275.7311" x2="275.3392" y2="169.9107" gradientTransform="matrix(0.947 -0.7062 0.6975 0.9354 -262.4996 130.2295)">
			<stop  offset="0" style="stop-color:#FFFFFF"/>
			<stop  offset="1" style="stop-color:#743920"/>
		</linearGradient>
		<path opacity="0.43" fill="url(#SVGID_57_)" d="M183.7,135.8c20.7,27.8,14.2,45.2-13.6,66c-27.8,20.8-56.4,41.4-77.1,13.7
			c-20.7-27.8-10.8-62.5,17-83.3C137.9,111.4,163,108,183.7,135.8z"/>
		<path opacity="0.34" fill="#FFFFFF" d="M117.1,189.3c4.1,5.5-0.9,8.7-6.1,12.6c-5.1,3.8-8.5,6.9-12.6,1.4
			c-4.1-5.6-3.3-13.2,1.8-17C105.4,182.4,113,183.8,117.1,189.3z"/>
		
			<linearGradient id="SVGID_58_" gradientUnits="userSpaceOnUse" x1="257.6364" y1="254.5905" x2="275.5196" y2="202.2182" gradientTransform="matrix(0.947 -0.7062 0.6975 0.9354 -262.4996 130.2295)">
			<stop  offset="0" style="stop-color:#F5E8C0"/>
			<stop  offset="0.1931" style="stop-color:#F6E6BA"/>
			<stop  offset="0.4661" style="stop-color:#F6E0AA"/>
			<stop  offset="0.785" style="stop-color:#F7D691"/>
			<stop  offset="1" style="stop-color:#F8CE7E"/>
		</linearGradient>
		<path fill="url(#SVGID_58_)" d="M165.6,147.4c14.9-2.7,30.4-4.4,44.5-4.1c0,0-18.3-9.9-43.8-10.4c3.8-4.8,7.4-10.1,11-15.8
			c0,0-10.9,1.5-23.8,10.7c-4.5-5.7-10.3-11-17.9-15.7c0,0-4,5.9-2.9,19.2c-8.6-2-17.9-2.5-27.6-0.3c0,0,6.4,4.7,18.5,11
			c-11.7,5.5-23.7,13.9-35.2,26.4c0,0,17-6.4,40.5-12.7c-3.1,5.5-6,11.8-8.6,19c0,0,8.5-4.8,20-14.6c4.5,10.8,11.5,23.6,21.9,38.6
			c0,0,6.7-18,4.1-39c5.7,1.8,11.7,3.6,18.1,5.3C184.5,165,177.4,156.2,165.6,147.4z"/>
		
			<linearGradient id="SVGID_59_" gradientUnits="userSpaceOnUse" x1="252.0165" y1="258.1099" x2="261.3838" y2="230.6772" gradientTransform="matrix(0.947 -0.7062 0.6975 0.9354 -262.4996 130.2295)">
			<stop  offset="0" style="stop-color:#D28F31"/>
			<stop  offset="0.1762" style="stop-color:#D59336"/>
			<stop  offset="0.4251" style="stop-color:#DC9E43"/>
			<stop  offset="0.7158" style="stop-color:#E8B35D"/>
			<stop  offset="1" style="stop-color:#F8CE7E"/>
		</linearGradient>
		<path fill="url(#SVGID_59_)" d="M140.8,159.8c-0.1-0.4,7.4-6.4,7.4-6.4c9.6,34.5,9.6,34.4,14.1,45.3
			C162.3,198.7,142.4,170.4,140.8,159.8z"/>
		
			<linearGradient id="SVGID_60_" gradientUnits="userSpaceOnUse" x1="267.4507" y1="215.2072" x2="274.5533" y2="194.4069" gradientTransform="matrix(0.947 -0.7062 0.6975 0.9354 -262.4996 130.2295)">
			<stop  offset="0" style="stop-color:#D28F31"/>
			<stop  offset="0.1762" style="stop-color:#D59336"/>
			<stop  offset="0.4251" style="stop-color:#DC9E43"/>
			<stop  offset="0.7158" style="stop-color:#E8B35D"/>
			<stop  offset="1" style="stop-color:#F8CE7E"/>
		</linearGradient>
		<path fill="url(#SVGID_60_)" d="M135.7,112.1l10.3,34.2l-13.3-15c0,0-1.6-9.6,2.7-19.4"/>
		
			<linearGradient id="SVGID_61_" gradientUnits="userSpaceOnUse" x1="243.8931" y1="212.7424" x2="246.6959" y2="204.5344" gradientTransform="matrix(0.947 -0.7062 0.6975 0.9354 -262.4996 130.2295)">
			<stop  offset="0" style="stop-color:#D28F31"/>
			<stop  offset="0.1762" style="stop-color:#D59336"/>
			<stop  offset="0.4251" style="stop-color:#DC9E43"/>
			<stop  offset="0.7158" style="stop-color:#E8B35D"/>
			<stop  offset="1" style="stop-color:#F8CE7E"/>
		</linearGradient>
		<path fill="url(#SVGID_61_)" d="M88.9,168.2c0,0,32.8-20.7,56.4-20.9l-21.6-5.4C123.7,141.9,102.7,151.1,88.9,168.2z"/>
		
			<linearGradient id="SVGID_62_" gradientUnits="userSpaceOnUse" x1="292.2691" y1="240.1104" x2="296.7089" y2="227.1081" gradientTransform="matrix(0.947 -0.7062 0.6975 0.9354 -262.4996 130.2295)">
			<stop  offset="0" style="stop-color:#D28F31"/>
			<stop  offset="0.1762" style="stop-color:#D59336"/>
			<stop  offset="0.4251" style="stop-color:#DC9E43"/>
			<stop  offset="0.7158" style="stop-color:#E8B35D"/>
			<stop  offset="1" style="stop-color:#F8CE7E"/>
		</linearGradient>
		<path fill="url(#SVGID_62_)" d="M151.3,145.3c0,0,20.2-8.5,58-2.6c0,0-24.3-10.5-43.3-9.5C166,133.2,154.1,139.3,151.3,145.3z"/>
		
			<linearGradient id="SVGID_63_" gradientUnits="userSpaceOnUse" x1="290.0004" y1="221.5499" x2="292.7582" y2="213.4734" gradientTransform="matrix(0.947 -0.7062 0.6975 0.9354 -262.4996 130.2295)">
			<stop  offset="0" style="stop-color:#D28F31"/>
			<stop  offset="0.1762" style="stop-color:#D59336"/>
			<stop  offset="0.4251" style="stop-color:#DC9E43"/>
			<stop  offset="0.7158" style="stop-color:#E8B35D"/>
			<stop  offset="1" style="stop-color:#F8CE7E"/>
		</linearGradient>
		<path fill="url(#SVGID_63_)" d="M177.4,117.1c0,0-19.7,14-24.3,22l0.5-11.4c0,0,7.5-6.9,23.6-11"/>
		
			<linearGradient id="SVGID_64_" gradientUnits="userSpaceOnUse" x1="277.1853" y1="247.1035" x2="281.7256" y2="233.8069" gradientTransform="matrix(0.947 -0.7062 0.6975 0.9354 -262.4996 130.2295)">
			<stop  offset="0" style="stop-color:#D28F31"/>
			<stop  offset="0.1762" style="stop-color:#D59336"/>
			<stop  offset="0.4251" style="stop-color:#DC9E43"/>
			<stop  offset="0.7158" style="stop-color:#E8B35D"/>
			<stop  offset="1" style="stop-color:#F8CE7E"/>
		</linearGradient>
		<path fill="url(#SVGID_64_)" d="M184.5,165c0,0-0.1-0.1-0.3-0.2c-2.7-1.9-20.6-13.8-28.9-14.2l9.7-3.4
			C165,147.2,177.4,156.4,184.5,165z"/>
	</g>
	<linearGradient id="SVGID_65_" gradientUnits="userSpaceOnUse" x1="72.4911" y1="107.4357" x2="138.6673" y2="109.366">
		<stop  offset="5.618000e-03" style="stop-color:#EF9031"/>
		<stop  offset="1" style="stop-color:#F2A02F"/>
	</linearGradient>
	<path fill="url(#SVGID_65_)" d="M134,144.5l-33-46.6C88.8,77.3,68.2,63.2,68.2,63.2c2.8,13.1,18.1,39.3,18.1,39.3l37,50.5
		C123.2,153,133.3,153.7,134,144.5"/>
	<path opacity="0.63" fill="#A2562B" d="M68.3,64.1c0,0,13.5,30.5,24.3,45.6l32.1,42.9c0,0,3.2,0,4.4-1.2l-33.7-44
		C95.4,107.4,71.5,69.8,68.3,64.1z"/>
	<linearGradient id="SVGID_66_" gradientUnits="userSpaceOnUse" x1="78.6291" y1="78.0421" x2="132.9328" y2="145.8089">
		<stop  offset="5.618000e-03" style="stop-color:#FFFFFF"/>
		<stop  offset="1" style="stop-color:#F2A02F"/>
	</linearGradient>
	<path fill="url(#SVGID_66_)" d="M70.8,66.5c0,0,18.7,22.9,29.1,37.7l31.9,44.8c0,0,1.5-1.2,1.5-3.1L101,101.5
		C101,101.5,75.8,70,70.8,66.5z"/>
	<path opacity="0.15" fill="#231F20" d="M121.9,150.6l1.3,2.4c0,0,9.3,0.8,10.1-7.1l-1.3-3.3C132,142.6,127.4,151.4,121.9,150.6z"/>
	<path opacity="0.26" fill="#A2562B" d="M273.9,353.5c0,0,11.5,11.2,13.6,14c0,0,3.4-0.6,5-1.9c0,0,4.6-5.6,5.6-9l-11.2-13.3
		C286.9,343.3,285.1,351.3,273.9,353.5z"/>
</g>
</svg>
