<?xml version="1.0" encoding="utf-8"?>
<!-- Generator: Adobe Illustrator 18.0.0, SVG Export Plug-In . SVG Version: 6.00 Build 0)  -->
<!DOCTYPE svg PUBLIC "-//W3C//DTD SVG 1.1//EN" "http://www.w3.org/Graphics/SVG/1.1/DTD/svg11.dtd">
<svg version="1.1" id="Layer_1" xmlns="http://www.w3.org/2000/svg" xmlns:xlink="http://www.w3.org/1999/xlink" x="0px" y="0px"
	 viewBox="0 0 500 500" enable-background="new 0 0 500 500" xml:space="preserve">
<g>
	<path fill="#3B51A3" d="M249,275.7c-41,0-74.3,33.3-74.3,74.3c0,41,33.3,74.3,74.3,74.3s74.3-33.3,74.3-74.3
		C323.3,309,290,275.7,249,275.7z M249,380.8c-17,0-30.8-13.8-30.8-30.8c0-17,13.8-30.8,30.8-30.8c17,0,30.8,13.8,30.8,30.8
		C279.8,367,266,380.8,249,380.8z"/>
	<path fill="#3B51A3" d="M249.1,203.3c29.3,0,53.1-23.8,53.1-53.1c0-29.3-23.8-53.1-53.1-53.1c-29.3,0-53.1,23.8-53.1,53.1
		C195.9,179.4,219.8,203.3,249.1,203.3z M249.1,127.7c12.4,0,22.4,10.1,22.4,22.4s-10.1,22.4-22.4,22.4c-12.4,0-22.4-10.1-22.4-22.4
		S236.7,127.7,249.1,127.7z"/>
	<path fill="#3B51A3" d="M390.6,25.2H106.8c-11,0-19.3,8.8-19.3,20.2v405.1c0,11.4,8.3,21.4,19.3,21.4h283.9c11,0,20.5-10,20.5-21.4
		V45.4C411.1,34,401.6,25.2,390.6,25.2z M248.7,74.5c42,0,76,34,76,76c0,42-34,76-76,76c-42,0-76-34-76-76
		C172.7,108.5,206.7,74.5,248.7,74.5z M118,452.3c-10.5,0-18.9-8.5-18.9-18.9c0-10.5,8.5-18.9,18.9-18.9s18.9,8.5,18.9,18.9
		C137,443.8,128.5,452.3,118,452.3z M118,80.8c-10.5,0-18.9-8.5-18.9-18.9c0-10.5,8.5-18.9,18.9-18.9S137,51.4,137,61.9
		C137,72.3,128.5,80.8,118,80.8z M248.7,444.8c-52.2,0-94.4-42.3-94.4-94.4s42.3-94.4,94.4-94.4s94.4,42.3,94.4,94.4
		S300.8,444.8,248.7,444.8z M379.3,452.3c-10.5,0-18.9-8.5-18.9-18.9c0-10.5,8.5-18.9,18.9-18.9c10.5,0,18.9,8.5,18.9,18.9
		C398.3,443.8,389.8,452.3,379.3,452.3z M379.3,80.8c-10.5,0-18.9-8.5-18.9-18.9c0-10.5,8.5-18.9,18.9-18.9
		c10.5,0,18.9,8.5,18.9,18.9C398.3,72.3,389.8,80.8,379.3,80.8z"/>
</g>
</svg>
